Lora-Regular.ufo
<glyph name="exclam" format="2">
  <advance width="266.0"/>
  <unicode hex="0021"/>
  <outline>
    <contour>
      <point x="114.0" y="230.0" type="line"/>
      <point x="151.0" y="230.0" type="line"/>
      <point x="190.0" y="643.0" type="line" smooth="yes"/>
      <point x="193.0" y="678.0"/>
      <point x="176.0" y="716.0"/>
      <point x="133.0" y="716.0" type="curve" smooth="yes"/>
      <point x="92.0" y="716.0"/>
      <point x="72.0" y="678.0"/>
      <point x="75.0" y="643.0" type="curve" smooth="yes"/>
    </contour>
    <contour>
      <point x="132.0" y="-16.0" type="curve" smooth="yes"/>
      <point x="163.0" y="-16.0"/>
      <point x="191.0" y="12.0"/>
      <point x="191.0" y="48.0" type="curve" smooth="yes"/>
      <point x="191.0" y="84.0"/>
      <point x="166.0" y="113.0"/>
      <point x="133.0" y="113.0" type="curve" smooth="yes"/>
      <point x="102.0" y="113.0"/>
      <point x="74.0" y="84.0"/>
      <point x="74.0" y="48.0" type="curve" smooth="yes"/>
      <point x="74.0" y="12.0"/>
      <point x="101.0" y="-16.0"/>
    </contour>
  </outline>
</glyph>
<glyph name="quotedbl" format="2">
  <advance width="346"/>
  <unicode hex="0022"/>
  <outline>
    <contour>
      <point x="213.03" y="491" type="line"/>
      <point x="274.41" y="491" type="line"/>
      <point x="282.78" y="716" type="line"/>
      <point x="204.66" y="716" type="line"/>
    </contour>
    <contour>
      <point x="70.03" y="491" type="line"/>
      <point x="131.41" y="491" type="line"/>
      <point x="139.78" y="716" type="line"/>
      <point x="61.66" y="716" type="line"/>
    </contour>
  </outline>
</glyph>
<glyph name="percent" format="2">
  <advance width="870.0"/>
  <unicode hex="0025"/>
  <outline>
    <contour>
      <point x="165.0" y="-17.0" type="line"/>
      <point x="732.0" y="676.0" type="line"/>
      <point x="687.0" y="716.0" type="line"/>
      <point x="123.0" y="18.0" type="line"/>
    </contour>
    <contour>
      <point x="217.0" y="335.0" type="curve" smooth="yes"/>
      <point x="319.0" y="335.0"/>
      <point x="401.0" y="429.0"/>
      <point x="401.0" y="532.0" type="curve" smooth="yes"/>
      <point x="401.0" y="624.0"/>
      <point x="341.0" y="719.0"/>
      <point x="217.0" y="716.0" type="curve" smooth="yes"/>
      <point x="100.0" y="714.0"/>
      <point x="36.0" y="616.0"/>
      <point x="36.0" y="522.0" type="curve" smooth="yes"/>
      <point x="36.0" y="426.0"/>
      <point x="98.0" y="335.0"/>
    </contour>
    <contour>
      <point x="220.0" y="375.0" type="curve" smooth="yes"/>
      <point x="141.0" y="375.0"/>
      <point x="122.0" y="475.0"/>
      <point x="122.0" y="539.0" type="curve" smooth="yes"/>
      <point x="122.0" y="589.0"/>
      <point x="143.0" y="681.0"/>
      <point x="218.0" y="681.0" type="curve" smooth="yes"/>
      <point x="293.0" y="681.0"/>
      <point x="315.0" y="583.0"/>
      <point x="315.0" y="516.0" type="curve" smooth="yes"/>
      <point x="315.0" y="454.0"/>
      <point x="293.0" y="375.0"/>
    </contour>
    <contour>
      <point x="654.0" y="-16.0" type="curve" smooth="yes"/>
      <point x="771.0" y="-14.0"/>
      <point x="835.0" y="85.0"/>
      <point x="835.0" y="178.0" type="curve" smooth="yes"/>
      <point x="835.0" y="274.0"/>
      <point x="773.0" y="365.0"/>
      <point x="654.0" y="365.0" type="curve" smooth="yes"/>
      <point x="552.0" y="365.0"/>
      <point x="469.0" y="272.0"/>
      <point x="469.0" y="169.0" type="curve" smooth="yes"/>
      <point x="469.0" y="77.0"/>
      <point x="530.0" y="-18.0"/>
    </contour>
    <contour>
      <point x="655.0" y="20.0" type="curve" smooth="yes"/>
      <point x="581.0" y="20.0"/>
      <point x="556.0" y="118.0"/>
      <point x="556.0" y="185.0" type="curve" smooth="yes"/>
      <point x="556.0" y="247.0"/>
      <point x="578.0" y="326.0"/>
      <point x="651.0" y="326.0" type="curve" smooth="yes"/>
      <point x="730.0" y="326.0"/>
      <point x="749.0" y="226.0"/>
      <point x="749.0" y="162.0" type="curve" smooth="yes"/>
      <point x="749.0" y="111.0"/>
      <point x="730.0" y="20.0"/>
    </contour>
  </outline>
</glyph>
<glyph name="asterisk" format="2">
  <advance width="520.0"/>
  <unicode hex="002A"/>
  <outline>
    <contour>
      <point x="125.0" y="302.0" type="curve"/>
      <point x="156.0" y="281.0"/>
      <point x="182.0" y="311.0"/>
      <point x="198.0" y="338.0" type="curve" smooth="yes"/>
      <point x="219.0" y="377.0"/>
      <point x="245.0" y="425.0"/>
      <point x="260.0" y="463.0" type="curve"/>
      <point x="274.0" y="425.0"/>
      <point x="301.0" y="377.0"/>
      <point x="322.0" y="338.0" type="curve"/>
      <point x="339.0" y="311.0"/>
      <point x="365.0" y="281.0"/>
      <point x="394.0" y="302.0" type="curve" smooth="yes"/>
      <point x="424.0" y="324.0"/>
      <point x="403.0" y="363.0"/>
      <point x="381.0" y="386.0" type="curve" smooth="yes"/>
      <point x="350.0" y="419.0"/>
      <point x="315.0" y="455.0"/>
      <point x="283.0" y="480.0" type="curve"/>
      <point x="324.0" y="482.0"/>
      <point x="375.0" y="492.0"/>
      <point x="419.0" y="500.0" type="curve"/>
      <point x="452.0" y="508.0"/>
      <point x="488.0" y="523.0"/>
      <point x="476.0" y="559.0" type="curve" smooth="yes"/>
      <point x="465.0" y="592.0"/>
      <point x="423.0" y="585.0"/>
      <point x="394.0" y="571.0" type="curve" smooth="yes"/>
      <point x="353.0" y="551.0"/>
      <point x="308.0" y="530.0"/>
      <point x="273.0" y="508.0" type="curve"/>
      <point x="285.0" y="547.0"/>
      <point x="291.0" y="599.0"/>
      <point x="296.0" y="644.0" type="curve" smooth="yes"/>
      <point x="300.0" y="675.0"/>
      <point x="297.0" y="716.0"/>
      <point x="260.0" y="716.0" type="curve" smooth="yes"/>
      <point x="223.0" y="716.0"/>
      <point x="218.0" y="675.0"/>
      <point x="222.0" y="644.0" type="curve" smooth="yes"/>
      <point x="227.0" y="599.0"/>
      <point x="233.0" y="547.0"/>
      <point x="245.0" y="508.0" type="curve"/>
      <point x="211.0" y="531.0"/>
      <point x="165.0" y="552.0"/>
      <point x="124.0" y="571.0" type="curve" smooth="yes"/>
      <point x="94.0" y="585.0"/>
      <point x="54.0" y="593.0"/>
      <point x="42.0" y="559.0" type="curve" smooth="yes"/>
      <point x="30.0" y="523.0"/>
      <point x="67.0" y="507.0"/>
      <point x="99.0" y="500.0" type="curve" smooth="yes"/>
      <point x="142.0" y="492.0"/>
      <point x="194.0" y="482.0"/>
      <point x="236.0" y="480.0" type="curve"/>
      <point x="203.0" y="456.0"/>
      <point x="169.0" y="419.0"/>
      <point x="138.0" y="386.0" type="curve" smooth="yes"/>
      <point x="117.0" y="362.0"/>
      <point x="97.0" y="324.0"/>
    </contour>
  </outline>
</glyph>
<glyph name="plus" format="2">
  <advance width="530.0"/>
  <unicode hex="002B"/>
  <outline>
    <contour>
      <point x="42.0" y="390.0" type="line"/>
      <point x="42.0" y="340.0" type="line"/>
      <point x="488.0" y="340.0" type="line"/>
      <point x="488.0" y="390.0" type="line"/>
    </contour>
    <contour>
      <point x="290.0" y="583.0" type="line"/>
      <point x="240.0" y="583.0" type="line"/>
      <point x="240.0" y="137.0" type="line"/>
      <point x="290.0" y="137.0" type="line"/>
    </contour>
  </outline>
</glyph>
<glyph name="slash" format="2">
  <advance width="690"/>
  <unicode hex="002F"/>
  <outline>
    <contour>
      <point x="79" y="-271" type="line"/>
      <point x="670" y="719" type="line"/>
      <point x="605" y="760" type="line"/>
      <point x="21" y="-235" type="line"/>
    </contour>
  </outline>
</glyph>
<glyph name="zero" format="2">
  <advance width="621.0"/>
  <unicode hex="0030"/>
  <outline>
    <contour>
      <point x="311.0" y="-16.0" type="curve" smooth="yes"/>
      <point x="497.0" y="-16.0"/>
      <point x="566.0" y="186.0"/>
      <point x="566.0" y="352.0" type="curve" smooth="yes"/>
      <point x="566.0" y="519.0"/>
      <point x="509.0" y="716.0"/>
      <point x="315.0" y="716.0" type="curve" smooth="yes"/>
      <point x="129.0" y="716.0"/>
      <point x="56.0" y="515.0"/>
      <point x="56.0" y="347.0" type="curve" smooth="yes"/>
      <point x="56.0" y="180.0"/>
      <point x="107.0" y="-16.0"/>
    </contour>
    <contour>
      <point x="317.0" y="23.0" type="curve" smooth="yes"/>
      <point x="188.0" y="23.0"/>
      <point x="159.0" y="229.0"/>
      <point x="159.0" y="368.0" type="curve" smooth="yes"/>
      <point x="159.0" y="517.0"/>
      <point x="198.0" y="678.0"/>
      <point x="313.0" y="678.0" type="curve" smooth="yes"/>
      <point x="431.0" y="678.0"/>
      <point x="463.0" y="493.0"/>
      <point x="463.0" y="331.0" type="curve" smooth="yes"/>
      <point x="463.0" y="184.0"/>
      <point x="431.0" y="23.0"/>
    </contour>
  </outline>
</glyph>
<glyph name="one" format="2">
  <advance width="364.0"/>
  <unicode hex="0031"/>
  <outline>
    <contour>
      <point x="74.0" y="0.0" type="line"/>
      <point x="329.0" y="0.0" type="line"/>
      <point x="329.0" y="44.0" type="line"/>
      <point x="301.0" y="43.0"/>
      <point x="273.0" y="41.0"/>
      <point x="245.0" y="40.0" type="curve"/>
      <point x="248.0" y="59.0"/>
      <point x="248.0" y="83.0"/>
      <point x="248.0" y="109.0" type="curve" smooth="yes"/>
      <point x="247.0" y="716.0" type="line"/>
      <point x="213.0" y="716.0" type="line"/>
      <point x="18.0" y="571.0" type="line"/>
      <point x="38.0" y="542.0" type="line"/>
      <point x="158.0" y="619.0" type="line"/>
      <point x="161.0" y="147.0" type="line" smooth="yes"/>
      <point x="161.0" y="78.0"/>
      <point x="143.0" y="36.0"/>
      <point x="74.0" y="33.0" type="curve"/>
    </contour>
  </outline>
</glyph>
<glyph name="six" format="2">
  <advance width="578.0"/>
  <unicode hex="0036"/>
  <outline>
    <contour>
      <point x="295.0" y="-16.0" type="curve" smooth="yes"/>
      <point x="429.0" y="-16.0"/>
      <point x="529.0" y="88.0"/>
      <point x="529.0" y="213.0" type="curve" smooth="yes"/>
      <point x="529.0" y="314.0"/>
      <point x="478.0" y="437.0"/>
      <point x="318.0" y="437.0" type="curve" smooth="yes"/>
      <point x="240.0" y="437.0"/>
      <point x="183.0" y="397.0"/>
      <point x="150.0" y="353.0" type="curve"/>
      <point x="153.0" y="448.0"/>
      <point x="177.0" y="679.0"/>
      <point x="330.0" y="679.0" type="curve" smooth="yes"/>
      <point x="385.0" y="679.0"/>
      <point x="422.0" y="645.0"/>
      <point x="429.0" y="621.0" type="curve"/>
      <point x="421.0" y="607.0"/>
      <point x="417.0" y="592.0"/>
      <point x="417.0" y="579.0" type="curve" smooth="yes"/>
      <point x="417.0" y="562.0"/>
      <point x="428.0" y="536.0"/>
      <point x="462.0" y="537.0" type="curve" smooth="yes"/>
      <point x="491.0" y="539.0"/>
      <point x="505.0" y="561.0"/>
      <point x="505.0" y="589.0" type="curve" smooth="yes"/>
      <point x="505.0" y="639.0"/>
      <point x="447.0" y="716.0"/>
      <point x="328.0" y="716.0" type="curve" smooth="yes"/>
      <point x="100.0" y="716.0"/>
      <point x="56.0" y="448.0"/>
      <point x="56.0" y="329.0" type="curve" smooth="yes"/>
      <point x="56.0" y="117.0"/>
      <point x="117.0" y="-16.0"/>
    </contour>
    <contour>
      <point x="297.0" y="23.0" type="curve" smooth="yes"/>
      <point x="192.0" y="23.0"/>
      <point x="158.0" y="155.0"/>
      <point x="151.0" y="282.0" type="curve"/>
      <point x="170.0" y="339.0"/>
      <point x="234.0" y="392.0"/>
      <point x="297.0" y="392.0" type="curve" smooth="yes"/>
      <point x="409.0" y="392.0"/>
      <point x="428.0" y="266.0"/>
      <point x="428.0" y="191.0" type="curve" smooth="yes"/>
      <point x="428.0" y="103.0"/>
      <point x="391.0" y="23.0"/>
    </contour>
  </outline>
</glyph>
<glyph name="question" format="2">
  <advance width="474.0"/>
  <unicode hex="003F"/>
  <outline>
    <contour>
      <point x="226.0" y="188.0" type="curve" smooth="yes"/>
      <point x="250.0" y="188.0"/>
      <point x="283.0" y="194.0"/>
      <point x="304.0" y="206.0" type="curve"/>
      <point x="292.0" y="241.0" type="line"/>
      <point x="280.0" y="236.0"/>
      <point x="265.0" y="234.0"/>
      <point x="255.0" y="234.0" type="curve" smooth="yes"/>
      <point x="224.0" y="234.0"/>
      <point x="213.0" y="251.0"/>
      <point x="213.0" y="267.0" type="curve" smooth="yes"/>
      <point x="213.0" y="334.0"/>
      <point x="428.0" y="406.0"/>
      <point x="437.0" y="542.0" type="curve" smooth="yes"/>
      <point x="441.0" y="625.0"/>
      <point x="390.0" y="716.0"/>
      <point x="235.0" y="716.0" type="curve" smooth="yes"/>
      <point x="109.0" y="716.0"/>
      <point x="33.0" y="635.0"/>
      <point x="33.0" y="577.0" type="curve" smooth="yes"/>
      <point x="33.0" y="548.0"/>
      <point x="47.0" y="526.0"/>
      <point x="76.0" y="524.0" type="curve" smooth="yes"/>
      <point x="108.0" y="523.0"/>
      <point x="122.0" y="550.0"/>
      <point x="122.0" y="567.0" type="curve" smooth="yes"/>
      <point x="122.0" y="582.0"/>
      <point x="117.0" y="595.0"/>
      <point x="110.0" y="606.0" type="curve"/>
      <point x="115.0" y="638.0"/>
      <point x="163.0" y="677.0"/>
      <point x="220.0" y="677.0" type="curve" smooth="yes"/>
      <point x="314.0" y="677.0"/>
      <point x="344.0" y="617.0"/>
      <point x="342.0" y="544.0" type="curve" smooth="yes"/>
      <point x="339.0" y="466.0"/>
      <point x="288.0" y="416.0"/>
      <point x="238.0" y="373.0" type="curve" smooth="yes"/>
      <point x="191.0" y="332.0"/>
      <point x="146.0" y="299.0"/>
      <point x="146.0" y="255.0" type="curve" smooth="yes"/>
      <point x="146.0" y="206.0"/>
      <point x="187.0" y="188.0"/>
    </contour>
    <contour>
      <point x="232.0" y="-16.0" type="curve" smooth="yes"/>
      <point x="263.0" y="-16.0"/>
      <point x="286.0" y="10.0"/>
      <point x="286.0" y="43.0" type="curve" smooth="yes"/>
      <point x="286.0" y="75.0"/>
      <point x="262.0" y="102.0"/>
      <point x="232.0" y="102.0" type="curve" smooth="yes"/>
      <point x="205.0" y="102.0"/>
      <point x="178.0" y="75.0"/>
      <point x="178.0" y="43.0" type="curve" smooth="yes"/>
      <point x="178.0" y="6.0"/>
      <point x="205.0" y="-16.0"/>
    </contour>
  </outline>
</glyph>
<glyph name="B" format="2">
  <advance width="622"/>
  <unicode hex="0042"/>
  <outline>
    <contour>
      <point x="55" y="0" type="line"/>
      <point x="347" y="0" type="line" smooth="yes"/>
      <point x="482" y="0"/>
      <point x="583" y="73"/>
      <point x="583" y="196" type="curve" smooth="yes"/>
      <point x="583" y="299"/>
      <point x="508" y="374"/>
      <point x="361" y="374" type="curve"/>
      <point x="361" y="376" type="line"/>
      <point x="471" y="396"/>
      <point x="525" y="466"/>
      <point x="526" y="531" type="curve" smooth="yes"/>
      <point x="528" y="649"/>
      <point x="436" y="702"/>
      <point x="281" y="702" type="curve" smooth="yes"/>
      <point x="201" y="702"/>
      <point x="128" y="701"/>
      <point x="55" y="700" type="curve"/>
      <point x="55" y="656" type="line"/>
      <point x="79" y="657"/>
      <point x="103" y="659"/>
      <point x="127" y="660" type="curve"/>
      <point x="125" y="643"/>
      <point x="124" y="617"/>
      <point x="124" y="581" type="curve" smooth="yes"/>
      <point x="124" y="161" type="line" smooth="yes"/>
      <point x="124" y="86"/>
      <point x="130" y="35"/>
      <point x="55" y="33" type="curve"/>
    </contour>
    <contour>
      <point x="208" y="40" type="curve"/>
      <point x="210" y="57"/>
      <point x="211" y="82"/>
      <point x="211" y="118" type="curve" smooth="yes"/>
      <point x="211" y="344" type="line"/>
      <point x="243" y="346"/>
      <point x="274" y="347"/>
      <point x="314" y="347" type="curve" smooth="yes"/>
      <point x="405" y="347"/>
      <point x="486" y="312"/>
      <point x="486" y="190" type="curve" smooth="yes"/>
      <point x="486" y="90"/>
      <point x="417" y="38"/>
      <point x="314" y="38" type="curve" smooth="yes"/>
      <point x="301" y="38"/>
      <point x="239" y="37"/>
    </contour>
    <contour>
      <point x="211" y="383" type="line"/>
      <point x="211" y="569" type="line" smooth="yes"/>
      <point x="211" y="642"/>
      <point x="221" y="666"/>
      <point x="286" y="666" type="curve" smooth="yes"/>
      <point x="352" y="666"/>
      <point x="433" y="644"/>
      <point x="435" y="536" type="curve" smooth="yes"/>
      <point x="436" y="462"/>
      <point x="398" y="387"/>
      <point x="284" y="385" type="curve" smooth="yes"/>
    </contour>
  </outline>
</glyph>
<glyph name="F" format="2">
  <advance width="548.0"/>
  <unicode hex="0046"/>
  <outline>
    <contour>
      <point x="55.0" y="0.0" type="line"/>
      <point x="310.0" y="0.0" type="line"/>
      <point x="310.0" y="44.0" type="line"/>
      <point x="276.0" y="43.0"/>
      <point x="242.0" y="41.0"/>
      <point x="208.0" y="40.0" type="curve"/>
      <point x="210.0" y="57.0"/>
      <point x="211.0" y="83.0"/>
      <point x="211.0" y="119.0" type="curve" smooth="yes"/>
      <point x="211.0" y="329.0" type="line"/>
      <point x="271.0" y="332.0" type="line" smooth="yes"/>
      <point x="355.0" y="336.0"/>
      <point x="390.0" y="332.0"/>
      <point x="390.0" y="243.0" type="curve"/>
      <point x="422.0" y="243.0" type="line"/>
      <point x="422.0" y="454.0" type="line"/>
      <point x="378.0" y="454.0" type="line"/>
      <point x="385.0" y="367.0" type="line"/>
      <point x="211.0" y="368.0" type="line"/>
      <point x="211.0" y="540.0" type="line" smooth="yes"/>
      <point x="211.0" y="609.0"/>
      <point x="206.0" y="661.0"/>
      <point x="280.0" y="663.0" type="curve" smooth="yes"/>
      <point x="353.0" y="665.0" type="line" smooth="yes"/>
      <point x="428.0" y="667.0"/>
      <point x="491.0" y="643.0"/>
      <point x="491.0" y="525.0" type="curve"/>
      <point x="524.0" y="525.0" type="line"/>
      <point x="519.0" y="700.0" type="line"/>
      <point x="55.0" y="700.0" type="line"/>
      <point x="55.0" y="656.0" type="line"/>
      <point x="79.0" y="657.0"/>
      <point x="103.0" y="659.0"/>
      <point x="127.0" y="660.0" type="curve"/>
      <point x="125.0" y="640.0"/>
      <point x="124.0" y="615.0"/>
      <point x="124.0" y="588.0" type="curve" smooth="yes"/>
      <point x="124.0" y="156.0" type="line" smooth="yes"/>
      <point x="124.0" y="85.0"/>
      <point x="130.0" y="36.0"/>
      <point x="55.0" y="33.0" type="curve"/>
    </contour>
  </outline>
</glyph>
<glyph name="H" format="2">
  <advance width="780"/>
  <unicode hex="0048"/>
  <anchor x="390" y="0" name="bottom"/>
  <anchor x="390" y="350" name="center"/>
  <anchor x="390" y="700" name="top"/>
  <outline>
    <contour>
      <point x="55" y="0" type="line"/>
      <point x="280" y="0" type="line"/>
      <point x="280" y="44" type="line"/>
      <point x="256" y="43"/>
      <point x="232" y="41"/>
      <point x="208" y="40" type="curve"/>
      <point x="210" y="57"/>
      <point x="211" y="83"/>
      <point x="211" y="119" type="curve" smooth="yes"/>
      <point x="211" y="334" type="line"/>
      <point x="569" y="338" type="line"/>
      <point x="569" y="156" type="line" smooth="yes"/>
      <point x="569" y="85"/>
      <point x="575" y="36"/>
      <point x="500" y="33" type="curve"/>
      <point x="500" y="0" type="line"/>
      <point x="725" y="0" type="line"/>
      <point x="725" y="44" type="line"/>
      <point x="701" y="43"/>
      <point x="677" y="41"/>
      <point x="653" y="40" type="curve"/>
      <point x="655" y="57"/>
      <point x="656" y="83"/>
      <point x="656" y="119" type="curve" smooth="yes"/>
      <point x="656" y="544" type="line" smooth="yes"/>
      <point x="656" y="615"/>
      <point x="650" y="664"/>
      <point x="725" y="667" type="curve"/>
      <point x="725" y="700" type="line"/>
      <point x="500" y="700" type="line"/>
      <point x="500" y="656" type="line"/>
      <point x="524" y="657"/>
      <point x="548" y="659"/>
      <point x="572" y="660" type="curve"/>
      <point x="570" y="640"/>
      <point x="569" y="615"/>
      <point x="569" y="588" type="curve" smooth="yes"/>
      <point x="569" y="378" type="line"/>
      <point x="211" y="378" type="line"/>
      <point x="211" y="544" type="line" smooth="yes"/>
      <point x="211" y="615"/>
      <point x="205" y="664"/>
      <point x="280" y="667" type="curve"/>
      <point x="280" y="700" type="line"/>
      <point x="55" y="700" type="line"/>
      <point x="55" y="656" type="line"/>
      <point x="79" y="657"/>
      <point x="103" y="659"/>
      <point x="127" y="660" type="curve"/>
      <point x="125" y="640"/>
      <point x="124" y="615"/>
      <point x="124" y="588" type="curve" smooth="yes"/>
      <point x="124" y="156" type="line" smooth="yes"/>
      <point x="124" y="85"/>
      <point x="130" y="36"/>
      <point x="55" y="33" type="curve"/>
    </contour>
  </outline>
</glyph>
<glyph name="J" format="2">
  <advance width="373.0"/>
  <unicode hex="004A"/>
  <anchor x="215.0" y="700.0" name="top"/>
  <outline>
    <contour>
      <point x="104.0" y="-16.0" type="curve" smooth="yes"/>
      <point x="219.0" y="-16.0"/>
      <point x="266.0" y="56.0"/>
      <point x="266.0" y="244.0" type="curve" smooth="yes"/>
      <point x="266.0" y="568.0" type="line" smooth="yes"/>
      <point x="266.0" y="624.0"/>
      <point x="277.0" y="667.0"/>
      <point x="343.0" y="667.0" type="curve"/>
      <point x="343.0" y="700.0" type="line"/>
      <point x="77.0" y="700.0" type="line"/>
      <point x="77.0" y="656.0" type="line"/>
      <point x="111.0" y="657.0"/>
      <point x="145.0" y="659.0"/>
      <point x="179.0" y="660.0" type="curve"/>
      <point x="179.0" y="630.0"/>
      <point x="179.0" y="601.0"/>
      <point x="179.0" y="571.0" type="curve"/>
      <point x="179.0" y="139.0" type="line" smooth="yes"/>
      <point x="179.0" y="57.0"/>
      <point x="160.0" y="26.0"/>
      <point x="120.0" y="25.0" type="curve" smooth="yes"/>
      <point x="110.0" y="24.0"/>
      <point x="89.0" y="28.0"/>
      <point x="81.0" y="41.0" type="curve"/>
      <point x="84.0" y="47.0"/>
      <point x="85.0" y="57.0"/>
      <point x="85.0" y="63.0" type="curve" smooth="yes"/>
      <point x="85.0" y="83.0"/>
      <point x="74.0" y="109.0"/>
      <point x="41.0" y="107.0" type="curve" smooth="yes"/>
      <point x="12.0" y="106.0"/>
      <point x="-2.0" y="81.0"/>
      <point x="-2.0" y="55.0" type="curve" smooth="yes"/>
      <point x="-2.0" y="11.0"/>
      <point x="48.0" y="-16.0"/>
    </contour>
  </outline>
</glyph>
<glyph name="P" format="2">
  <advance width="606.0"/>
  <unicode hex="0050"/>
  <outline>
    <contour>
      <point x="55.0" y="33.0" type="curve"/>
      <point x="55.0" y="0.0" type="line"/>
      <point x="300.0" y="0.0" type="line"/>
      <point x="300.0" y="45.0" type="line"/>
      <point x="269.0" y="43.0"/>
      <point x="239.0" y="42.0"/>
      <point x="208.0" y="40.0" type="curve"/>
      <point x="210.0" y="57.0"/>
      <point x="211.0" y="83.0"/>
      <point x="211.0" y="119.0" type="curve" smooth="yes"/>
      <point x="211.0" y="264.0" type="line"/>
      <point x="224.0" y="263.0"/>
      <point x="241.0" y="263.0"/>
      <point x="247.0" y="263.0" type="curve" smooth="yes"/>
      <point x="521.0" y="263.0"/>
      <point x="585.0" y="404.0"/>
      <point x="580.0" y="508.0" type="curve" smooth="yes"/>
      <point x="574.0" y="636.0"/>
      <point x="471.0" y="702.0"/>
      <point x="278.0" y="702.0" type="curve" smooth="yes"/>
      <point x="200.0" y="702.0"/>
      <point x="125.0" y="701.0"/>
      <point x="55.0" y="700.0" type="curve"/>
      <point x="55.0" y="656.0" type="line"/>
      <point x="79.0" y="657.0"/>
      <point x="103.0" y="659.0"/>
      <point x="127.0" y="660.0" type="curve"/>
      <point x="125.0" y="640.0"/>
      <point x="124.0" y="615.0"/>
      <point x="124.0" y="588.0" type="curve" smooth="yes"/>
      <point x="124.0" y="156.0" type="line" smooth="yes"/>
      <point x="124.0" y="85.0"/>
      <point x="130.0" y="36.0"/>
    </contour>
    <contour>
      <point x="211.0" y="305.0" type="curve"/>
      <point x="211.0" y="544.0" type="line" smooth="yes"/>
      <point x="211.0" y="615.0"/>
      <point x="205.0" y="663.0"/>
      <point x="276.0" y="663.0" type="curve" smooth="yes"/>
      <point x="398.0" y="663.0"/>
      <point x="483.0" y="615.0"/>
      <point x="483.0" y="489.0" type="curve" smooth="yes"/>
      <point x="483.0" y="372.0"/>
      <point x="390.0" y="302.0"/>
      <point x="276.0" y="302.0" type="curve" smooth="yes"/>
      <point x="251.0" y="302.0"/>
      <point x="236.0" y="302.0"/>
    </contour>
  </outline>
</glyph>
<glyph name="Q" format="2">
  <advance width="796.0"/>
  <unicode hex="0051"/>
  <outline>
    <contour>
      <point x="754.0" y="-218.0" type="curve" smooth="yes"/>
      <point x="786.0" y="-218.0" type="line"/>
      <point x="786.0" y="-185.0" type="line"/>
      <point x="747.0" y="-185.0"/>
      <point x="719.0" y="-157.0"/>
      <point x="626.0" y="-71.0" type="curve" smooth="yes"/>
      <point x="567.0" y="-16.0"/>
      <point x="533.0" y="-8.0"/>
      <point x="483.0" y="-7.0" type="curve"/>
      <point x="664.0" y="32.0"/>
      <point x="750.0" y="204.0"/>
      <point x="750.0" y="350.0" type="curve" smooth="yes"/>
      <point x="750.0" y="517.0"/>
      <point x="638.0" y="716.0"/>
      <point x="394.0" y="716.0" type="curve" smooth="yes"/>
      <point x="158.0" y="716.0"/>
      <point x="46.0" y="518.0"/>
      <point x="46.0" y="350.0" type="curve" smooth="yes"/>
      <point x="46.0" y="178.0"/>
      <point x="146.0" y="-12.0"/>
      <point x="395.0" y="-16.0" type="curve" smooth="yes"/>
      <point x="459.0" y="-16.0"/>
      <point x="495.0" y="-81.0"/>
      <point x="585.0" y="-162.0" type="curve" smooth="yes"/>
      <point x="647.0" y="-218.0"/>
      <point x="682.0" y="-218.0"/>
    </contour>
    <contour>
      <point x="404.0" y="25.0" type="curve" smooth="yes"/>
      <point x="225.0" y="25.0"/>
      <point x="144.0" y="220.0"/>
      <point x="144.0" y="368.0" type="curve" smooth="yes"/>
      <point x="144.0" y="516.0"/>
      <point x="226.0" y="676.0"/>
      <point x="391.0" y="676.0" type="curve" smooth="yes"/>
      <point x="557.0" y="676.0"/>
      <point x="650.0" y="495.0"/>
      <point x="650.0" y="331.0" type="curve" smooth="yes"/>
      <point x="650.0" y="184.0"/>
      <point x="568.0" y="25.0"/>
    </contour>
  </outline>
</glyph>
<glyph name="R" format="2">
  <advance width="628.0"/>
  <unicode hex="0052"/>
  <anchor x="334.0" y="0.0" name="bottom"/>
  <anchor x="314.0" y="700.0" name="top"/>
  <outline>
    <contour>
      <point x="55.0" y="0.0" type="line"/>
      <point x="280.0" y="0.0" type="line"/>
      <point x="280.0" y="44.0" type="line"/>
      <point x="256.0" y="43.0"/>
      <point x="232.0" y="41.0"/>
      <point x="208.0" y="40.0" type="curve"/>
      <point x="210.0" y="57.0"/>
      <point x="211.0" y="83.0"/>
      <point x="211.0" y="119.0" type="curve" smooth="yes"/>
      <point x="211.0" y="313.0" type="line"/>
      <point x="234.0" y="312.0"/>
      <point x="257.0" y="311.0"/>
      <point x="279.0" y="313.0" type="curve" smooth="yes"/>
      <point x="307.0" y="287.0"/>
      <point x="328.0" y="246.0"/>
      <point x="346.0" y="218.0" type="curve" smooth="yes"/>
      <point x="413.0" y="111.0" type="line" smooth="yes"/>
      <point x="441.0" y="67.0"/>
      <point x="463.0" y="34.0"/>
      <point x="502.0" y="0.0" type="curve"/>
      <point x="628.0" y="0.0" type="line"/>
      <point x="628.0" y="33.0" type="line"/>
      <point x="565.0" y="33.0"/>
      <point x="540.0" y="74.0"/>
      <point x="506.0" y="128.0" type="curve" smooth="yes"/>
      <point x="438.0" y="235.0" type="line" smooth="yes"/>
      <point x="413.0" y="274.0"/>
      <point x="395.0" y="303.0"/>
      <point x="369.0" y="322.0" type="curve"/>
      <point x="521.0" y="353.0"/>
      <point x="557.0" y="444.0"/>
      <point x="556.0" y="522.0" type="curve" smooth="yes"/>
      <point x="556.0" y="633.0"/>
      <point x="477.0" y="698.0"/>
      <point x="284.0" y="701.0" type="curve" smooth="yes"/>
      <point x="207.0" y="703.0"/>
      <point x="130.0" y="701.0"/>
      <point x="55.0" y="700.0" type="curve"/>
      <point x="55.0" y="656.0" type="line"/>
      <point x="79.0" y="657.0"/>
      <point x="103.0" y="659.0"/>
      <point x="127.0" y="660.0" type="curve"/>
      <point x="125.0" y="640.0"/>
      <point x="124.0" y="615.0"/>
      <point x="124.0" y="588.0" type="curve" smooth="yes"/>
      <point x="124.0" y="156.0" type="line" smooth="yes"/>
      <point x="124.0" y="85.0"/>
      <point x="130.0" y="36.0"/>
      <point x="55.0" y="33.0" type="curve"/>
    </contour>
    <contour>
      <point x="273.0" y="350.0" type="curve" smooth="yes"/>
      <point x="250.0" y="349.0"/>
      <point x="232.0" y="350.0"/>
      <point x="211.0" y="352.0" type="curve"/>
      <point x="211.0" y="544.0" type="line" smooth="yes"/>
      <point x="211.0" y="615.0"/>
      <point x="205.0" y="663.0"/>
      <point x="280.0" y="663.0" type="curve" smooth="yes"/>
      <point x="403.0" y="663.0"/>
      <point x="459.0" y="612.0"/>
      <point x="459.0" y="511.0" type="curve" smooth="yes"/>
      <point x="459.0" y="396.0"/>
      <point x="382.0" y="354.0"/>
    </contour>
  </outline>
</glyph>
<glyph name="S" format="2">
  <advance width="567.0"/>
  <unicode hex="0053"/>
  <anchor x="304.0" y="0.0" name="bottom"/>
  <anchor x="272.0" y="700.0" name="top"/>
  <outline>
    <contour>
      <point x="448.0" y="488.0" type="curve"/>
      <point x="484.0" y="488.0" type="line"/>
      <point x="484.0" y="708.0" type="line"/>
      <point x="433.0" y="708.0" type="line"/>
      <point x="437.0" y="665.0" type="line"/>
      <point x="382.0" y="705.0"/>
      <point x="314.0" y="716.0"/>
      <point x="263.0" y="716.0" type="curve" smooth="yes"/>
      <point x="101.0" y="716.0"/>
      <point x="60.0" y="608.0"/>
      <point x="60.0" y="540.0" type="curve" smooth="yes"/>
      <point x="60.0" y="413.0"/>
      <point x="169.0" y="366.0"/>
      <point x="270.0" y="320.0" type="curve" smooth="yes"/>
      <point x="356.0" y="280.0"/>
      <point x="437.0" y="241.0"/>
      <point x="437.0" y="151.0" type="curve" smooth="yes"/>
      <point x="437.0" y="70.0"/>
      <point x="371.0" y="26.0"/>
      <point x="293.0" y="26.0" type="curve" smooth="yes"/>
      <point x="187.0" y="26.0"/>
      <point x="104.0" y="87.0"/>
      <point x="97.0" y="205.0" type="curve"/>
      <point x="58.0" y="205.0" type="line"/>
      <point x="64.0" y="-8.0" type="line"/>
      <point x="116.0" y="-8.0" type="line"/>
      <point x="111.0" y="35.0" type="line"/>
      <point x="160.0" y="1.0"/>
      <point x="229.0" y="-16.0"/>
      <point x="289.0" y="-16.0" type="curve" smooth="yes"/>
      <point x="438.0" y="-16.0"/>
      <point x="523.0" y="63.0"/>
      <point x="523.0" y="174.0" type="curve" smooth="yes"/>
      <point x="523.0" y="302.0"/>
      <point x="412.0" y="351.0"/>
      <point x="310.0" y="397.0" type="curve" smooth="yes"/>
      <point x="223.0" y="437.0"/>
      <point x="142.0" y="475.0"/>
      <point x="142.0" y="559.0" type="curve" smooth="yes"/>
      <point x="142.0" y="622.0"/>
      <point x="187.0" y="676.0"/>
      <point x="270.0" y="676.0" type="curve" smooth="yes"/>
      <point x="387.0" y="676.0"/>
      <point x="442.0" y="584.0"/>
    </contour>
  </outline>
</glyph>
<glyph name="X" format="2">
  <advance width="649.0"/>
  <unicode hex="0058"/>
  <outline>
    <contour>
      <point x="12.0" y="0.0" type="line"/>
      <point x="208.0" y="0.0" type="line"/>
      <point x="208.0" y="44.0" type="line"/>
      <point x="180.0" y="42.0"/>
      <point x="153.0" y="41.0"/>
      <point x="125.0" y="39.0" type="curve"/>
      <point x="158.0" y="77.0"/>
      <point x="183.0" y="117.0"/>
      <point x="207.0" y="153.0" type="curve" smooth="yes"/>
      <point x="240.0" y="203.0"/>
      <point x="273.0" y="252.0"/>
      <point x="306.0" y="300.0" type="curve"/>
      <point x="367.0" y="215.0"/>
      <point x="422.0" y="147.0"/>
      <point x="453.0" y="106.0" type="curve" smooth="yes"/>
      <point x="477.0" y="73.0"/>
      <point x="488.0" y="30.0"/>
      <point x="411.0" y="33.0" type="curve"/>
      <point x="411.0" y="0.0" type="line"/>
      <point x="656.0" y="0.0" type="line"/>
      <point x="656.0" y="44.0" type="line"/>
      <point x="637.0" y="43.0"/>
      <point x="617.0" y="43.0"/>
      <point x="598.0" y="42.0" type="curve"/>
      <point x="575.0" y="73.0"/>
      <point x="552.0" y="104.0"/>
      <point x="529.0" y="135.0" type="curve" smooth="yes"/>
      <point x="498.0" y="176.0"/>
      <point x="424.0" y="272.0"/>
      <point x="353.0" y="368.0" type="curve"/>
      <point x="466.0" y="528.0" type="line" smooth="yes"/>
      <point x="508.0" y="588.0"/>
      <point x="559.0" y="658.0"/>
      <point x="623.0" y="667.0" type="curve"/>
      <point x="623.0" y="700.0" type="line"/>
      <point x="426.0" y="700.0" type="line"/>
      <point x="426.0" y="656.0" type="line"/>
      <point x="454.0" y="657.0"/>
      <point x="482.0" y="659.0"/>
      <point x="510.0" y="660.0" type="curve"/>
      <point x="489.0" y="641.0"/>
      <point x="455.0" y="592.0"/>
      <point x="421.0" y="544.0" type="curve" smooth="yes"/>
      <point x="325.0" y="405.0" type="line"/>
      <point x="273.0" y="477.0"/>
      <point x="225.0" y="544.0"/>
      <point x="201.0" y="584.0" type="curve" smooth="yes"/>
      <point x="178.0" y="621.0"/>
      <point x="151.0" y="662.0"/>
      <point x="224.0" y="665.0" type="curve" smooth="yes"/>
      <point x="268.0" y="667.0" type="line"/>
      <point x="268.0" y="700.0" type="line"/>
      <point x="9.0" y="700.0" type="line"/>
      <point x="9.0" y="656.0" type="line"/>
      <point x="27.0" y="657.0"/>
      <point x="46.0" y="657.0"/>
      <point x="64.0" y="658.0" type="curve"/>
      <point x="74.0" y="632.0"/>
      <point x="84.0" y="614.0"/>
      <point x="110.0" y="576.0" type="curve" smooth="yes"/>
      <point x="139.0" y="534.0"/>
      <point x="187.0" y="468.0"/>
      <point x="279.0" y="339.0" type="curve"/>
      <point x="149.0" y="153.0" type="line" smooth="yes"/>
      <point x="104.0" y="87.0"/>
      <point x="76.0" y="46.0"/>
      <point x="12.0" y="33.0" type="curve"/>
    </contour>
  </outline>
</glyph>
<glyph name="Y" format="2">
  <advance width="634.0"/>
  <unicode hex="0059"/>
  <anchor x="317.0" y="0.0" name="bottom"/>
  <anchor x="331.0" y="700.0" name="top"/>
  <anchor x="20.0" y="700.0" name="topleft"/>
  <outline>
    <contour>
      <point x="215.0" y="0.0" type="line"/>
      <point x="450.0" y="0.0" type="line"/>
      <point x="450.0" y="44.0" type="line"/>
      <point x="422.0" y="43.0"/>
      <point x="395.0" y="41.0"/>
      <point x="367.0" y="40.0" type="curve"/>
      <point x="369.0" y="57.0"/>
      <point x="370.0" y="83.0"/>
      <point x="370.0" y="119.0" type="curve" smooth="yes"/>
      <point x="369.0" y="120.0"/>
      <point x="370.0" y="251.0"/>
      <point x="371.0" y="300.0" type="curve"/>
      <point x="410.0" y="374.0"/>
      <point x="451.0" y="452.0"/>
      <point x="497.0" y="538.0" type="curve" smooth="yes"/>
      <point x="543.0" y="623.0"/>
      <point x="578.0" y="663.0"/>
      <point x="644.0" y="667.0" type="curve"/>
      <point x="644.0" y="700.0" type="line"/>
      <point x="440.0" y="700.0" type="line"/>
      <point x="440.0" y="656.0" type="line"/>
      <point x="466.0" y="657.0"/>
      <point x="493.0" y="658.0"/>
      <point x="519.0" y="659.0" type="curve"/>
      <point x="500.0" y="638.0"/>
      <point x="481.0" y="602.0"/>
      <point x="471.0" y="583.0" type="curve"/>
      <point x="386.0" y="422.0" type="line"/>
      <point x="372.0" y="396.0"/>
      <point x="358.0" y="369.0"/>
      <point x="343.0" y="340.0" type="curve"/>
      <point x="341.0" y="340.0" type="line"/>
      <point x="317.0" y="373.0"/>
      <point x="297.0" y="403.0"/>
      <point x="279.0" y="432.0" type="curve"/>
      <point x="199.0" y="558.0" type="line"/>
      <point x="159.0" y="622.0"/>
      <point x="160.0" y="667.0"/>
      <point x="252.0" y="667.0" type="curve"/>
      <point x="252.0" y="700.0" type="line"/>
      <point x="-6.0" y="700.0" type="line"/>
      <point x="-6.0" y="656.0" type="line"/>
      <point x="15.0" y="657.0"/>
      <point x="35.0" y="657.0"/>
      <point x="56.0" y="658.0" type="curve"/>
      <point x="61.0" y="633.0"/>
      <point x="76.0" y="598.0"/>
      <point x="110.0" y="545.0" type="curve" smooth="yes"/>
      <point x="284.0" y="270.0" type="line"/>
      <point x="283.0" y="156.0" type="line" smooth="yes"/>
      <point x="283.0" y="88.0"/>
      <point x="290.0" y="36.0"/>
      <point x="215.0" y="33.0" type="curve"/>
    </contour>
  </outline>
</glyph>
<glyph name="bracketleft" format="2">
  <advance width="359.0"/>
  <unicode hex="005B"/>
  <outline>
    <contour>
      <point x="79.0" y="-255.0" type="line"/>
      <point x="347.0" y="-255.0" type="line"/>
      <point x="347.0" y="-195.0" type="line"/>
      <point x="150.0" y="-192.0" type="line"/>
      <point x="155.0" y="692.0" type="line"/>
      <point x="345.0" y="695.0" type="line"/>
      <point x="345.0" y="755.0" type="line"/>
      <point x="80.0" y="755.0" type="line"/>
    </contour>
  </outline>
</glyph>
<glyph name="grave" format="2">
  <advance width="252.0"/>
  <unicode hex="0060"/>
  <anchor x="126.0" y="500.0" name="_top"/>
  <outline>
    <contour>
      <point x="179.0" y="580.0" type="line"/>
      <point x="207.0" y="603.0" type="line"/>
      <point x="123.0" y="738.0" type="line" smooth="yes"/>
      <point x="93.0" y="781.0"/>
      <point x="63.0" y="761.0"/>
      <point x="58.0" y="757.0" type="curve" smooth="yes"/>
      <point x="50.0" y="750.0"/>
      <point x="31.0" y="724.0"/>
      <point x="67.0" y="686.0" type="curve" smooth="yes"/>
    </contour>
  </outline>
</glyph>
<glyph name="c" format="2">
  <advance width="532.0"/>
  <unicode hex="0063"/>
  <anchor x="342.0" y="0.0" name="bottom"/>
  <anchor x="292.0" y="500.0" name="top"/>
  <outline>
    <contour>
      <point x="288.0" y="-16.0" type="curve" smooth="yes"/>
      <point x="356.0" y="-16.0"/>
      <point x="445.0" y="19.0"/>
      <point x="498.0" y="102.0" type="curve"/>
      <point x="472.0" y="122.0" type="line"/>
      <point x="440.0" y="74.0"/>
      <point x="377.0" y="36.0"/>
      <point x="315.0" y="36.0" type="curve" smooth="yes"/>
      <point x="212.0" y="36.0"/>
      <point x="143.0" y="132.0"/>
      <point x="143.0" y="266.0" type="curve" smooth="yes"/>
      <point x="143.0" y="404.0"/>
      <point x="213.0" y="479.0"/>
      <point x="304.0" y="479.0" type="curve" smooth="yes"/>
      <point x="332.0" y="479.0"/>
      <point x="392.0" y="472.0"/>
      <point x="409.0" y="425.0" type="curve"/>
      <point x="397.0" y="413.0"/>
      <point x="394.0" y="398.0"/>
      <point x="394.0" y="385.0" type="curve" smooth="yes"/>
      <point x="394.0" y="368.0"/>
      <point x="406.0" y="339.0"/>
      <point x="440.0" y="340.0" type="curve" smooth="yes"/>
      <point x="470.0" y="340.0"/>
      <point x="487.0" y="364.0"/>
      <point x="487.0" y="393.0" type="curve" smooth="yes"/>
      <point x="487.0" y="458.0"/>
      <point x="413.0" y="516.0"/>
      <point x="302.0" y="516.0" type="curve" smooth="yes"/>
      <point x="147.0" y="516.0"/>
      <point x="41.0" y="379.0"/>
      <point x="41.0" y="241.0" type="curve" smooth="yes"/>
      <point x="41.0" y="79.0"/>
      <point x="153.0" y="-16.0"/>
    </contour>
  </outline>
</glyph>
<glyph name="d" format="2">
  <advance width="598"/>
  <unicode hex="0064"/>
  <anchor x="299" y="250" name="center"/>
  <anchor x="588" y="500" name="topright"/>
  <outline>
    <contour>
      <point x="258" y="-16" type="curve" smooth="yes"/>
      <point x="324" y="-16"/>
      <point x="380" y="11"/>
      <point x="418" y="52" type="curve"/>
      <point x="419" y="36"/>
      <point x="421" y="20"/>
      <point x="425" y="0" type="curve"/>
      <point x="568" y="0" type="line"/>
      <point x="568" y="42" type="line"/>
      <point x="544" y="41"/>
      <point x="521" y="39"/>
      <point x="497" y="38" type="curve"/>
      <point x="500" y="65"/>
      <point x="501" y="85"/>
      <point x="501" y="106" type="curve" smooth="yes"/>
      <point x="501" y="755" type="line"/>
      <point x="472" y="755" type="line"/>
      <point x="457" y="741"/>
      <point x="436" y="728"/>
      <point x="348" y="728" type="curve"/>
      <point x="348" y="686" type="line"/>
      <point x="372" y="687"/>
      <point x="395" y="689"/>
      <point x="419" y="690" type="curve"/>
      <point x="416" y="663"/>
      <point x="416" y="646"/>
      <point x="416" y="625" type="curve" smooth="yes"/>
      <point x="416" y="488" type="line"/>
      <point x="390" y="502"/>
      <point x="343" y="516"/>
      <point x="299" y="516" type="curve" smooth="yes"/>
      <point x="150" y="516"/>
      <point x="42" y="399"/>
      <point x="42" y="236" type="curve" smooth="yes"/>
      <point x="42" y="81"/>
      <point x="135" y="-16"/>
    </contour>
    <contour>
      <point x="294" y="33" type="curve" smooth="yes"/>
      <point x="200" y="33"/>
      <point x="149" y="122"/>
      <point x="145" y="245" type="curve" smooth="yes"/>
      <point x="140" y="384"/>
      <point x="205" y="477"/>
      <point x="305" y="477" type="curve" smooth="yes"/>
      <point x="345" y="477"/>
      <point x="384" y="466"/>
      <point x="416" y="442" type="curve"/>
      <point x="415" y="154" type="line" smooth="yes"/>
      <point x="415" y="133"/>
      <point x="415" y="115"/>
      <point x="416" y="99" type="curve"/>
      <point x="386" y="61"/>
      <point x="338" y="33"/>
    </contour>
  </outline>
</glyph>
<glyph name="g" format="2">
  <advance width="553.0"/>
  <unicode hex="0067"/>
  <anchor x="264.0" y="500.0" name="top"/>
  <outline>
    <contour>
      <point x="285.0" y="-271.0" type="curve" smooth="yes"/>
      <point x="403.0" y="-271.0"/>
      <point x="530.0" y="-212.0"/>
      <point x="530.0" y="-104.0" type="curve" smooth="yes"/>
      <point x="530.0" y="4.0"/>
      <point x="438.0" y="39.0"/>
      <point x="284.0" y="46.0" type="curve" smooth="yes"/>
      <point x="192.0" y="50.0"/>
      <point x="135.0" y="54.0"/>
      <point x="125.0" y="86.0" type="curve" smooth="yes"/>
      <point x="115.0" y="119.0"/>
      <point x="152.0" y="147.0"/>
      <point x="201.0" y="147.0" type="curve" smooth="yes"/>
      <point x="227.0" y="147.0"/>
      <point x="243.0" y="142.0"/>
      <point x="268.0" y="142.0" type="curve" smooth="yes"/>
      <point x="380.0" y="142.0"/>
      <point x="479.0" y="222.0"/>
      <point x="479.0" y="335.0" type="curve" smooth="yes"/>
      <point x="479.0" y="381.0"/>
      <point x="458.0" y="424.0"/>
      <point x="426.0" y="454.0" type="curve"/>
      <point x="433.0" y="484.0"/>
      <point x="450.0" y="515.0"/>
      <point x="484.0" y="520.0" type="curve"/>
      <point x="488.0" y="500.0"/>
      <point x="503.0" y="485.0"/>
      <point x="526.0" y="485.0" type="curve" smooth="yes"/>
      <point x="558.0" y="484.0"/>
      <point x="569.0" y="511.0"/>
      <point x="569.0" y="526.0" type="curve" smooth="yes"/>
      <point x="569.0" y="557.0"/>
      <point x="550.0" y="576.0"/>
      <point x="516.0" y="576.0" type="curve" smooth="yes"/>
      <point x="463.0" y="576.0"/>
      <point x="415.0" y="535.0"/>
      <point x="395.0" y="479.0" type="curve"/>
      <point x="357.0" y="503.0"/>
      <point x="312.0" y="516.0"/>
      <point x="268.0" y="516.0" type="curve" smooth="yes"/>
      <point x="164.0" y="516.0"/>
      <point x="57.0" y="438.0"/>
      <point x="57.0" y="318.0" type="curve" smooth="yes"/>
      <point x="57.0" y="249.0"/>
      <point x="97.0" y="195.0"/>
      <point x="158.0" y="166.0" type="curve"/>
      <point x="99.0" y="156.0"/>
      <point x="58.0" y="110.0"/>
      <point x="58.0" y="63.0" type="curve" smooth="yes"/>
      <point x="58.0" y="21.0"/>
      <point x="84.0" y="-2.0"/>
      <point x="127.0" y="-16.0" type="curve"/>
      <point x="87.0" y="-33.0"/>
      <point x="35.0" y="-75.0"/>
      <point x="35.0" y="-136.0" type="curve" smooth="yes"/>
      <point x="35.0" y="-202.0"/>
      <point x="104.0" y="-271.0"/>
    </contour>
    <contour>
      <point x="284.0" y="-232.0" type="curve" smooth="yes"/>
      <point x="181.0" y="-232.0"/>
      <point x="114.0" y="-190.0"/>
      <point x="114.0" y="-124.0" type="curve" smooth="yes"/>
      <point x="114.0" y="-85.0"/>
      <point x="135.0" y="-49.0"/>
      <point x="171.0" y="-25.0" type="curve"/>
      <point x="203.0" y="-30.0"/>
      <point x="238.0" y="-32.0"/>
      <point x="274.0" y="-33.0" type="curve" smooth="yes"/>
      <point x="385.0" y="-36.0"/>
      <point x="466.0" y="-51.0"/>
      <point x="466.0" y="-125.0" type="curve" smooth="yes"/>
      <point x="466.0" y="-182.0"/>
      <point x="398.0" y="-232.0"/>
    </contour>
    <contour>
      <point x="271.0" y="178.0" type="curve" smooth="yes"/>
      <point x="196.0" y="178.0"/>
      <point x="153.0" y="244.0"/>
      <point x="153.0" y="340.0" type="curve" smooth="yes"/>
      <point x="153.0" y="420.0"/>
      <point x="194.0" y="481.0"/>
      <point x="266.0" y="481.0" type="curve" smooth="yes"/>
      <point x="343.0" y="481.0"/>
      <point x="382.0" y="403.0"/>
      <point x="382.0" y="315.0" type="curve" smooth="yes"/>
      <point x="382.0" y="237.0"/>
      <point x="345.0" y="178.0"/>
    </contour>
  </outline>
</glyph>
<glyph name="h" format="2">
  <advance width="599"/>
  <unicode hex="0068"/>
  <anchor x="302" y="0" name="bottom"/>
  <anchor x="300" y="250" name="center"/>
  <anchor x="149" y="703" name="top"/>
  <outline>
    <contour>
      <point x="365" y="30" type="curve"/>
      <point x="365" y="0" type="line"/>
      <point x="569" y="0" type="line"/>
      <point x="569" y="41" type="line"/>
      <point x="548" y="40"/>
      <point x="527" y="39"/>
      <point x="506" y="38" type="curve"/>
      <point x="510" y="61"/>
      <point x="510" y="79"/>
      <point x="510" y="106" type="curve" smooth="yes"/>
      <point x="509" y="292" type="line" smooth="yes"/>
      <point x="508" y="445"/>
      <point x="460" y="516"/>
      <point x="344" y="516" type="curve" smooth="yes"/>
      <point x="287" y="516"/>
      <point x="224" y="487"/>
      <point x="180" y="450" type="curve"/>
      <point x="180" y="755" type="line"/>
      <point x="151" y="755" type="line"/>
      <point x="136" y="741"/>
      <point x="114" y="728"/>
      <point x="26" y="728" type="curve"/>
      <point x="26" y="686" type="line"/>
      <point x="50" y="687"/>
      <point x="73" y="689"/>
      <point x="97" y="690" type="curve"/>
      <point x="94" y="663"/>
      <point x="94" y="646"/>
      <point x="94" y="625" type="curve" smooth="yes"/>
      <point x="94" y="152" type="line" smooth="yes"/>
      <point x="94" y="80"/>
      <point x="95" y="30"/>
      <point x="34" y="30" type="curve"/>
      <point x="34" y="0" type="line"/>
      <point x="238" y="0" type="line"/>
      <point x="238" y="41" type="line"/>
      <point x="217" y="40"/>
      <point x="196" y="39"/>
      <point x="175" y="38" type="curve"/>
      <point x="179" y="61"/>
      <point x="180" y="79"/>
      <point x="180" y="106" type="curve" smooth="yes"/>
      <point x="180" y="401" type="line"/>
      <point x="209" y="437"/>
      <point x="261" y="462"/>
      <point x="310" y="463" type="curve" smooth="yes"/>
      <point x="389" y="464"/>
      <point x="424" y="406"/>
      <point x="424" y="292" type="curve" smooth="yes"/>
      <point x="424" y="152" type="line" smooth="yes"/>
      <point x="424" y="80"/>
      <point x="426" y="30"/>
    </contour>
  </outline>
</glyph>
<glyph name="k" format="2">
  <advance width="537.0"/>
  <unicode hex="006B"/>
  <anchor x="269.0" y="0.0" name="bottom"/>
  <anchor x="287.0" y="755.0" name="top"/>
  <outline>
    <contour>
      <point x="35.0" y="0.0" type="line"/>
      <point x="239.0" y="0.0" type="line"/>
      <point x="239.0" y="41.0" type="line"/>
      <point x="218.0" y="40.0"/>
      <point x="196.0" y="39.0"/>
      <point x="175.0" y="38.0" type="curve"/>
      <point x="179.0" y="61.0"/>
      <point x="179.0" y="79.0"/>
      <point x="179.0" y="106.0" type="curve" smooth="yes"/>
      <point x="179.0" y="243.0" type="line"/>
      <point x="220.0" y="245.0" type="line"/>
      <point x="246.0" y="220.0"/>
      <point x="281.0" y="166.0"/>
      <point x="333.0" y="94.0" type="curve" smooth="yes"/>
      <point x="370.0" y="46.0"/>
      <point x="402.0" y="0.0"/>
      <point x="439.0" y="0.0" type="curve" smooth="yes"/>
      <point x="530.0" y="0.0" type="line"/>
      <point x="530.0" y="30.0" type="line"/>
      <point x="484.0" y="30.0"/>
      <point x="421.0" y="122.0"/>
      <point x="409.0" y="138.0" type="curve" smooth="yes"/>
      <point x="338.0" y="229.0" type="line" smooth="yes"/>
      <point x="319.0" y="252.0"/>
      <point x="302.0" y="271.0"/>
      <point x="276.0" y="283.0" type="curve"/>
      <point x="354.0" y="365.0" type="line" smooth="yes"/>
      <point x="390.0" y="402.0"/>
      <point x="446.0" y="463.0"/>
      <point x="514.0" y="470.0" type="curve"/>
      <point x="514.0" y="500.0" type="line"/>
      <point x="332.0" y="500.0" type="line"/>
      <point x="332.0" y="460.0" type="line"/>
      <point x="400.0" y="463.0" type="line"/>
      <point x="381.0" y="451.0"/>
      <point x="363.0" y="433.0"/>
      <point x="341.0" y="410.0" type="curve" smooth="yes"/>
      <point x="219.0" y="282.0" type="line"/>
      <point x="179.0" y="282.0" type="line"/>
      <point x="179.0" y="755.0" type="line"/>
      <point x="150.0" y="755.0" type="line"/>
      <point x="135.0" y="741.0"/>
      <point x="114.0" y="728.0"/>
      <point x="26.0" y="728.0" type="curve"/>
      <point x="26.0" y="686.0" type="line"/>
      <point x="50.0" y="687.0"/>
      <point x="73.0" y="689.0"/>
      <point x="97.0" y="690.0" type="curve"/>
      <point x="94.0" y="663.0"/>
      <point x="94.0" y="646.0"/>
      <point x="94.0" y="625.0" type="curve" smooth="yes"/>
      <point x="93.0" y="152.0" type="line" smooth="yes"/>
      <point x="93.0" y="80.0"/>
      <point x="96.0" y="30.0"/>
      <point x="35.0" y="30.0" type="curve"/>
    </contour>
  </outline>
</glyph>
<glyph name="m" format="2">
  <advance width="894.0"/>
  <unicode hex="006D"/>
  <outline>
    <contour>
      <point x="44.0" y="0.0" type="line"/>
      <point x="248.0" y="0.0" type="line"/>
      <point x="248.0" y="41.0" type="line"/>
      <point x="227.0" y="40.0"/>
      <point x="206.0" y="39.0"/>
      <point x="185.0" y="38.0" type="curve"/>
      <point x="189.0" y="61.0"/>
      <point x="189.0" y="79.0"/>
      <point x="189.0" y="106.0" type="curve" smooth="yes"/>
      <point x="189.0" y="363.0" type="line" smooth="yes"/>
      <point x="189.0" y="383.0"/>
      <point x="188.0" y="401.0"/>
      <point x="188.0" y="417.0" type="curve"/>
      <point x="216.0" y="445.0"/>
      <point x="258.0" y="465.0"/>
      <point x="300.0" y="465.0" type="curve" smooth="yes"/>
      <point x="379.0" y="466.0"/>
      <point x="411.0" y="406.0"/>
      <point x="410.0" y="292.0" type="curve" smooth="yes"/>
      <point x="409.0" y="152.0" type="line" smooth="yes"/>
      <point x="408.0" y="80.0"/>
      <point x="411.0" y="30.0"/>
      <point x="350.0" y="30.0" type="curve"/>
      <point x="350.0" y="0.0" type="line"/>
      <point x="554.0" y="0.0" type="line"/>
      <point x="554.0" y="41.0" type="line"/>
      <point x="533.0" y="40.0"/>
      <point x="512.0" y="39.0"/>
      <point x="491.0" y="38.0" type="curve"/>
      <point x="495.0" y="61.0"/>
      <point x="495.0" y="79.0"/>
      <point x="495.0" y="106.0" type="curve" smooth="yes"/>
      <point x="496.0" y="184.0"/>
      <point x="496.0" y="263.0"/>
      <point x="497.0" y="341.0" type="curve" smooth="yes"/>
      <point x="497.0" y="367.0"/>
      <point x="494.0" y="392.0"/>
      <point x="487.0" y="414.0" type="curve"/>
      <point x="517.0" y="442.0"/>
      <point x="561.0" y="463.0"/>
      <point x="603.0" y="463.0" type="curve" smooth="yes"/>
      <point x="682.0" y="464.0"/>
      <point x="717.0" y="406.0"/>
      <point x="717.0" y="292.0" type="curve" smooth="yes"/>
      <point x="717.0" y="152.0" type="line" smooth="yes"/>
      <point x="717.0" y="80.0"/>
      <point x="719.0" y="30.0"/>
      <point x="658.0" y="30.0" type="curve"/>
      <point x="658.0" y="0.0" type="line"/>
      <point x="862.0" y="0.0" type="line"/>
      <point x="862.0" y="41.0" type="line"/>
      <point x="841.0" y="40.0"/>
      <point x="820.0" y="39.0"/>
      <point x="799.0" y="38.0" type="curve"/>
      <point x="803.0" y="61.0"/>
      <point x="803.0" y="79.0"/>
      <point x="803.0" y="106.0" type="curve" smooth="yes"/>
      <point x="804.0" y="292.0" type="line" smooth="yes"/>
      <point x="807.0" y="450.0"/>
      <point x="753.0" y="516.0"/>
      <point x="637.0" y="516.0" type="curve" smooth="yes"/>
      <point x="580.0" y="516.0"/>
      <point x="516.0" y="486.0"/>
      <point x="471.0" y="449.0" type="curve"/>
      <point x="446.0" y="490.0"/>
      <point x="401.0" y="516.0"/>
      <point x="334.0" y="516.0" type="curve" smooth="yes"/>
      <point x="282.0" y="516.0"/>
      <point x="227.0" y="491.0"/>
      <point x="187.0" y="457.0" type="curve"/>
      <point x="186.0" y="480.0"/>
      <point x="185.0" y="497.0"/>
      <point x="183.0" y="510.0" type="curve"/>
      <point x="154.0" y="510.0" type="line"/>
      <point x="139.0" y="496.0"/>
      <point x="124.0" y="483.0"/>
      <point x="36.0" y="483.0" type="curve"/>
      <point x="36.0" y="441.0" type="line"/>
      <point x="60.0" y="442.0"/>
      <point x="83.0" y="444.0"/>
      <point x="107.0" y="445.0" type="curve"/>
      <point x="103.0" y="422.0"/>
      <point x="103.0" y="401.0"/>
      <point x="103.0" y="380.0" type="curve" smooth="yes"/>
      <point x="103.0" y="152.0" type="line" smooth="yes"/>
      <point x="103.0" y="80.0"/>
      <point x="105.0" y="30.0"/>
      <point x="44.0" y="30.0" type="curve"/>
    </contour>
  </outline>
</glyph>
<glyph name="n" format="2">
  <advance width="607.0"/>
  <unicode hex="006E"/>
  <anchor x="304.0" y="0.0" name="bottom"/>
  <anchor x="319.0" y="500.0" name="top"/>
  <outline>
    <contour>
      <point x="44.0" y="0.0" type="line"/>
      <point x="248.0" y="0.0" type="line"/>
      <point x="248.0" y="41.0" type="line"/>
      <point x="227.0" y="40.0"/>
      <point x="206.0" y="39.0"/>
      <point x="185.0" y="38.0" type="curve"/>
      <point x="189.0" y="61.0"/>
      <point x="189.0" y="79.0"/>
      <point x="189.0" y="106.0" type="curve" smooth="yes"/>
      <point x="190.0" y="361.0" type="line" smooth="yes"/>
      <point x="190.0" y="375.0"/>
      <point x="190.0" y="389.0"/>
      <point x="189.0" y="400.0" type="curve"/>
      <point x="219.0" y="437.0"/>
      <point x="269.0" y="464.0"/>
      <point x="317.0" y="465.0" type="curve" smooth="yes"/>
      <point x="396.0" y="466.0"/>
      <point x="431.0" y="406.0"/>
      <point x="432.0" y="292.0" type="curve" smooth="yes"/>
      <point x="432.0" y="152.0" type="line" smooth="yes"/>
      <point x="432.0" y="80.0"/>
      <point x="434.0" y="30.0"/>
      <point x="373.0" y="30.0" type="curve"/>
      <point x="373.0" y="0.0" type="line"/>
      <point x="577.0" y="0.0" type="line"/>
      <point x="577.0" y="41.0" type="line"/>
      <point x="556.0" y="40.0"/>
      <point x="535.0" y="39.0"/>
      <point x="514.0" y="38.0" type="curve"/>
      <point x="518.0" y="61.0"/>
      <point x="518.0" y="79.0"/>
      <point x="518.0" y="106.0" type="curve" smooth="yes"/>
      <point x="518.0" y="292.0" type="line" smooth="yes"/>
      <point x="518.0" y="445.0"/>
      <point x="467.0" y="516.0"/>
      <point x="351.0" y="516.0" type="curve" smooth="yes"/>
      <point x="293.0" y="516.0"/>
      <point x="231.0" y="487.0"/>
      <point x="188.0" y="449.0" type="curve"/>
      <point x="187.0" y="477.0"/>
      <point x="186.0" y="495.0"/>
      <point x="184.0" y="510.0" type="curve"/>
      <point x="155.0" y="510.0" type="line"/>
      <point x="140.0" y="496.0"/>
      <point x="125.0" y="483.0"/>
      <point x="37.0" y="483.0" type="curve"/>
      <point x="37.0" y="441.0" type="line"/>
      <point x="61.0" y="442.0"/>
      <point x="84.0" y="444.0"/>
      <point x="108.0" y="445.0" type="curve"/>
      <point x="104.0" y="422.0"/>
      <point x="104.0" y="401.0"/>
      <point x="104.0" y="380.0" type="curve" smooth="yes"/>
      <point x="103.0" y="152.0" type="line" smooth="yes"/>
      <point x="102.0" y="80.0"/>
      <point x="105.0" y="30.0"/>
      <point x="44.0" y="30.0" type="curve"/>
    </contour>
  </outline>
</glyph>
<glyph name="o" format="2">
  <advance width="585.0"/>
  <unicode hex="006F"/>
  <anchor x="293.0" y="0.0" name="bottom"/>
  <anchor x="293.0" y="250.0" name="center"/>
  <anchor x="526.0" y="10.0" name="ogonek"/>
  <anchor x="292.0" y="500.0" name="top"/>
  <anchor x="448.0" y="500.0" name="topright"/>
  <outline>
    <contour>
      <point x="292.0" y="-16.0" type="curve" smooth="yes"/>
      <point x="434.0" y="-16.0"/>
      <point x="544.0" y="107.0"/>
      <point x="544.0" y="262.0" type="curve" smooth="yes"/>
      <point x="544.0" y="407.0"/>
      <point x="432.0" y="516.0"/>
      <point x="292.0" y="516.0" type="curve" smooth="yes"/>
      <point x="150.0" y="516.0"/>
      <point x="41.0" y="396.0"/>
      <point x="41.0" y="238.0" type="curve" smooth="yes"/>
      <point x="41.0" y="90.0"/>
      <point x="152.0" y="-16.0"/>
    </contour>
    <contour>
      <point x="300.0" y="24.0" type="curve" smooth="yes"/>
      <point x="194.0" y="24.0"/>
      <point x="143.0" y="143.0"/>
      <point x="143.0" y="267.0" type="curve" smooth="yes"/>
      <point x="143.0" y="376.0"/>
      <point x="187.0" y="478.0"/>
      <point x="292.0" y="478.0" type="curve" smooth="yes"/>
      <point x="399.0" y="478.0"/>
      <point x="442.0" y="353.0"/>
      <point x="442.0" y="233.0" type="curve" smooth="yes"/>
      <point x="442.0" y="127.0"/>
      <point x="405.0" y="24.0"/>
    </contour>
  </outline>
</glyph>
<glyph name="p" format="2">
  <advance width="597.0"/>
  <unicode hex="0070"/>
  <outline>
    <contour>
      <point x="35.0" y="-255.0" type="line"/>
      <point x="239.0" y="-255.0" type="line"/>
      <point x="239.0" y="-214.0" type="line"/>
      <point x="218.0" y="-215.0"/>
      <point x="197.0" y="-216.0"/>
      <point x="176.0" y="-217.0" type="curve"/>
      <point x="180.0" y="-194.0"/>
      <point x="180.0" y="-176.0"/>
      <point x="180.0" y="-149.0" type="curve" smooth="yes"/>
      <point x="180.0" y="17.0" type="line"/>
      <point x="214.0" y="-5.0"/>
      <point x="253.0" y="-16.0"/>
      <point x="300.0" y="-16.0" type="curve" smooth="yes"/>
      <point x="435.0" y="-16.0"/>
      <point x="555.0" y="97.0"/>
      <point x="555.0" y="268.0" type="curve" smooth="yes"/>
      <point x="555.0" y="422.0"/>
      <point x="451.0" y="516.0"/>
      <point x="335.0" y="516.0" type="curve" smooth="yes"/>
      <point x="279.0" y="516.0"/>
      <point x="220.0" y="492.0"/>
      <point x="180.0" y="456.0" type="curve"/>
      <point x="179.0" y="479.0"/>
      <point x="177.0" y="497.0"/>
      <point x="176.0" y="510.0" type="curve"/>
      <point x="146.0" y="510.0" type="line"/>
      <point x="132.0" y="496.0"/>
      <point x="117.0" y="483.0"/>
      <point x="29.0" y="483.0" type="curve"/>
      <point x="29.0" y="441.0" type="line"/>
      <point x="53.0" y="442.0"/>
      <point x="76.0" y="444.0"/>
      <point x="100.0" y="445.0" type="curve"/>
      <point x="96.0" y="422.0"/>
      <point x="96.0" y="401.0"/>
      <point x="96.0" y="380.0" type="curve" smooth="yes"/>
      <point x="94.0" y="-103.0" type="line" smooth="yes"/>
      <point x="93.0" y="-175.0"/>
      <point x="96.0" y="-225.0"/>
      <point x="35.0" y="-225.0" type="curve"/>
    </contour>
    <contour>
      <point x="298.0" y="24.0" type="curve" smooth="yes"/>
      <point x="254.0" y="24.0"/>
      <point x="214.0" y="38.0"/>
      <point x="181.0" y="63.0" type="curve"/>
      <point x="182.0" y="380.0"/>
      <point x="182.0" y="396.0"/>
      <point x="181.0" y="411.0" type="curve"/>
      <point x="209.0" y="441.0"/>
      <point x="253.0" y="467.0"/>
      <point x="299.0" y="467.0" type="curve" smooth="yes"/>
      <point x="408.0" y="467.0"/>
      <point x="452.0" y="360.0"/>
      <point x="452.0" y="252.0" type="curve" smooth="yes"/>
      <point x="452.0" y="120.0"/>
      <point x="393.0" y="24.0"/>
    </contour>
  </outline>
</glyph>
<glyph name="q" format="2">
  <advance width="576"/>
  <unicode hex="0071"/>
  <outline>
    <contour>
      <point x="357" y="-255" type="line"/>
      <point x="561" y="-255" type="line"/>
      <point x="561" y="-214" type="line"/>
      <point x="540" y="-215"/>
      <point x="519" y="-216"/>
      <point x="498" y="-217" type="curve"/>
      <point x="502" y="-194"/>
      <point x="502" y="-176"/>
      <point x="502" y="-149" type="curve" smooth="yes"/>
      <point x="501" y="510" type="line"/>
      <point x="473" y="510" type="line"/>
      <point x="462" y="498"/>
      <point x="450" y="494"/>
      <point x="435" y="494" type="curve" smooth="yes"/>
      <point x="401" y="494"/>
      <point x="355" y="516"/>
      <point x="299" y="516" type="curve" smooth="yes"/>
      <point x="157" y="516"/>
      <point x="42" y="406"/>
      <point x="42" y="239" type="curve" smooth="yes"/>
      <point x="42" y="84"/>
      <point x="141" y="-16"/>
      <point x="266" y="-16" type="curve" smooth="yes"/>
      <point x="330" y="-16"/>
      <point x="381" y="7"/>
      <point x="416" y="47" type="curve"/>
      <point x="416" y="-103" type="line" smooth="yes"/>
      <point x="416" y="-175"/>
      <point x="418" y="-225"/>
      <point x="357" y="-225" type="curve"/>
    </contour>
    <contour>
      <point x="302" y="33" type="curve" smooth="yes"/>
      <point x="203" y="33"/>
      <point x="145" y="135"/>
      <point x="145" y="263" type="curve" smooth="yes"/>
      <point x="145" y="392"/>
      <point x="204" y="479"/>
      <point x="301" y="479" type="curve" smooth="yes"/>
      <point x="387" y="479"/>
      <point x="416" y="439"/>
      <point x="416" y="359" type="curve" smooth="yes"/>
      <point x="416" y="97" type="line"/>
      <point x="389" y="59"/>
      <point x="346" y="33"/>
    </contour>
  </outline>
</glyph>
<glyph name="s" format="2">
  <advance width="463.0"/>
  <unicode hex="0073"/>
  <anchor x="278.0" y="0.0" name="bottom"/>
  <anchor x="229.0" y="500.0" name="top"/>
  <outline>
    <contour>
      <point x="249.0" y="-16.0" type="curve" smooth="yes"/>
      <point x="334.0" y="-16.0"/>
      <point x="422.0" y="30.0"/>
      <point x="422.0" y="131.0" type="curve" smooth="yes"/>
      <point x="422.0" y="221.0"/>
      <point x="342.0" y="255.0"/>
      <point x="266.0" y="287.0" type="curve" smooth="yes"/>
      <point x="196.0" y="315.0"/>
      <point x="130.0" y="341.0"/>
      <point x="130.0" y="403.0" type="curve" smooth="yes"/>
      <point x="130.0" y="443.0"/>
      <point x="166.0" y="479.0"/>
      <point x="228.0" y="479.0" type="curve" smooth="yes"/>
      <point x="313.0" y="479.0"/>
      <point x="351.0" y="405.0"/>
      <point x="355.0" y="336.0" type="curve"/>
      <point x="387.0" y="336.0" type="line"/>
      <point x="387.0" y="511.0" type="line"/>
      <point x="345.0" y="511.0" type="line"/>
      <point x="347.0" y="473.0" type="line"/>
      <point x="306.0" y="506.0"/>
      <point x="259.0" y="516.0"/>
      <point x="223.0" y="516.0" type="curve" smooth="yes"/>
      <point x="88.0" y="516.0"/>
      <point x="52.0" y="427.0"/>
      <point x="52.0" y="371.0" type="curve" smooth="yes"/>
      <point x="52.0" y="270.0"/>
      <point x="143.0" y="238.0"/>
      <point x="223.0" y="207.0" type="curve" smooth="yes"/>
      <point x="285.0" y="182.0"/>
      <point x="341.0" y="158.0"/>
      <point x="341.0" y="102.0" type="curve" smooth="yes"/>
      <point x="341.0" y="48.0"/>
      <point x="282.0" y="23.0"/>
      <point x="231.0" y="23.0" type="curve" smooth="yes"/>
      <point x="154.0" y="23.0"/>
      <point x="87.0" y="82.0"/>
      <point x="83.0" y="165.0" type="curve"/>
      <point x="52.0" y="165.0" type="line"/>
      <point x="58.0" y="-7.0" type="line"/>
      <point x="100.0" y="-7.0" type="line"/>
      <point x="96.0" y="28.0" type="line"/>
      <point x="129.0" y="5.0"/>
      <point x="182.0" y="-16.0"/>
    </contour>
  </outline>
</glyph>
<glyph name="y" format="2">
  <advance width="528"/>
  <unicode hex="0079"/>
  <anchor x="358" y="0" name="bottom"/>
  <anchor x="287" y="500" name="top"/>
  <outline>
    <contour>
      <point x="121" y="-271" type="curve" smooth="yes"/>
      <point x="210" y="-271"/>
      <point x="246" y="-177"/>
      <point x="306" y="-9" type="curve" smooth="yes"/>
      <point x="431" y="340" type="line" smooth="yes"/>
      <point x="456" y="408"/>
      <point x="474" y="451"/>
      <point x="524" y="470" type="curve"/>
      <point x="524" y="500" type="line"/>
      <point x="367" y="500" type="line"/>
      <point x="367" y="459" type="line"/>
      <point x="436" y="463" type="line"/>
      <point x="422" y="452"/>
      <point x="402" y="396"/>
      <point x="387" y="352" type="curve" smooth="yes"/>
      <point x="359" y="269"/>
      <point x="331" y="186"/>
      <point x="301" y="101" type="curve"/>
      <point x="184" y="352" type="line" smooth="yes"/>
      <point x="148" y="429"/>
      <point x="151" y="466"/>
      <point x="207" y="470" type="curve" smooth="yes"/>
      <point x="211" y="470" type="line"/>
      <point x="211" y="500" type="line"/>
      <point x="4" y="500" type="line"/>
      <point x="4" y="459" type="line"/>
      <point x="52" y="461" type="line"/>
      <point x="57" y="439"/>
      <point x="70" y="398"/>
      <point x="105" y="323" type="curve" smooth="yes"/>
      <point x="261" y="-11" type="line"/>
      <point x="232" y="-92"/>
      <point x="208" y="-153"/>
      <point x="191" y="-182" type="curve" smooth="yes"/>
      <point x="176" y="-208"/>
      <point x="156" y="-221"/>
      <point x="140" y="-221" type="curve" smooth="yes"/>
      <point x="136" y="-221"/>
      <point x="132" y="-221"/>
      <point x="129" y="-219" type="curve"/>
      <point x="130" y="-214"/>
      <point x="130" y="-209"/>
      <point x="130" y="-205" type="curve" smooth="yes"/>
      <point x="130" y="-189"/>
      <point x="121" y="-161"/>
      <point x="89" y="-162" type="curve" smooth="yes"/>
      <point x="63" y="-162"/>
      <point x="46" y="-186"/>
      <point x="46" y="-210" type="curve" smooth="yes"/>
      <point x="46" y="-251"/>
      <point x="80" y="-271"/>
    </contour>
  </outline>
</glyph>
<glyph name="z" format="2">
  <advance width="511"/>
  <unicode hex="007A"/>
  <anchor x="266" y="500" name="top"/>
  <outline>
    <contour>
      <point x="40" y="0" type="line"/>
      <point x="455" y="0" type="line"/>
      <point x="467" y="182" type="line"/>
      <point x="438" y="182" type="line"/>
      <point x="426" y="102"/>
      <point x="401" y="37"/>
      <point x="318" y="38" type="curve" smooth="yes"/>
      <point x="125" y="41" type="line"/>
      <point x="150" y="62"/>
      <point x="160" y="75"/>
      <point x="177" y="97" type="curve" smooth="yes"/>
      <point x="459" y="468" type="line"/>
      <point x="459" y="500" type="line"/>
      <point x="67" y="500" type="line"/>
      <point x="55" y="321" type="line"/>
      <point x="86" y="321" type="line"/>
      <point x="97" y="398"/>
      <point x="113" y="461"/>
      <point x="188" y="462" type="curve" smooth="yes"/>
      <point x="376" y="465" type="line"/>
      <point x="363" y="457"/>
      <point x="340" y="427"/>
      <point x="319" y="400" type="curve" smooth="yes"/>
      <point x="40" y="41" type="line"/>
    </contour>
  </outline>
</glyph>
<glyph name="asciitilde" format="2">
  <advance width="530.0"/>
  <unicode hex="007E"/>
  <outline>
    <contour>
      <point x="368.0" y="231.0" type="curve" smooth="yes"/>
      <point x="421.0" y="231.0"/>
      <point x="460.0" y="253.0"/>
      <point x="487.0" y="283.0" type="curve"/>
      <point x="487.0" y="346.0" type="line"/>
      <point x="453.0" y="315.0"/>
      <point x="408.0" y="295.0"/>
      <point x="360.0" y="299.0" type="curve" smooth="yes"/>
      <point x="289.0" y="305.0"/>
      <point x="273.0" y="374.0"/>
      <point x="170.0" y="374.0" type="curve" smooth="yes"/>
      <point x="117.0" y="374.0"/>
      <point x="85.0" y="355.0"/>
      <point x="43.0" y="321.0" type="curve"/>
      <point x="43.0" y="258.0" type="line"/>
      <point x="79.0" y="284.0"/>
      <point x="111.0" y="306.0"/>
      <point x="166.0" y="306.0" type="curve" smooth="yes"/>
      <point x="246.0" y="306.0"/>
      <point x="268.0" y="231.0"/>
    </contour>
  </outline>
</glyph>
<glyph name="cent" format="2">
  <advance width="531.0"/>
  <unicode hex="00A2"/>
  <outline>
    <contour>
      <point x="249.0" y="-134.0" type="line"/>
      <point x="307.0" y="-134.0" type="line"/>
      <point x="308.0" y="-16.0" type="line"/>
      <point x="371.0" y="-9.0"/>
      <point x="446.0" y="28.0"/>
      <point x="493.0" y="102.0" type="curve"/>
      <point x="467.0" y="122.0" type="line"/>
      <point x="435.0" y="74.0"/>
      <point x="372.0" y="35.0"/>
      <point x="310.0" y="35.0" type="curve" smooth="yes"/>
      <point x="207.0" y="35.0"/>
      <point x="138.0" y="132.0"/>
      <point x="138.0" y="266.0" type="curve" smooth="yes"/>
      <point x="138.0" y="404.0"/>
      <point x="208.0" y="480.0"/>
      <point x="299.0" y="480.0" type="curve" smooth="yes"/>
      <point x="327.0" y="480.0"/>
      <point x="387.0" y="473.0"/>
      <point x="404.0" y="426.0" type="curve"/>
      <point x="393.0" y="414.0"/>
      <point x="389.0" y="399.0"/>
      <point x="389.0" y="386.0" type="curve" smooth="yes"/>
      <point x="389.0" y="369.0"/>
      <point x="401.0" y="340.0"/>
      <point x="436.0" y="341.0" type="curve" smooth="yes"/>
      <point x="465.0" y="341.0"/>
      <point x="482.0" y="365.0"/>
      <point x="482.0" y="394.0" type="curve" smooth="yes"/>
      <point x="482.0" y="455.0"/>
      <point x="416.0" y="510.0"/>
      <point x="314.0" y="516.0" type="curve"/>
      <point x="315.0" y="622.0" type="line"/>
      <point x="250.0" y="622.0" type="line"/>
      <point x="250.0" y="516.0" type="line"/>
      <point x="121.0" y="493.0"/>
      <point x="36.0" y="365.0"/>
      <point x="36.0" y="241.0" type="curve" smooth="yes"/>
      <point x="36.0" y="93.0"/>
      <point x="129.0" y="-1.0"/>
      <point x="249.0" y="-16.0" type="curve"/>
    </contour>
  </outline>
</glyph>
<glyph name="sterling" format="2">
  <advance width="548.0"/>
  <unicode hex="00A3"/>
  <outline>
    <contour>
      <point x="129.0" y="360.0" type="curve"/>
      <point x="63.0" y="360.0" type="line"/>
      <point x="63.0" y="312.0" type="line"/>
      <point x="142.0" y="312.0" type="line"/>
      <point x="152.0" y="276.0"/>
      <point x="160.0" y="242.0"/>
      <point x="160.0" y="199.0" type="curve" smooth="yes"/>
      <point x="160.0" y="162.0"/>
      <point x="148.0" y="131.0"/>
      <point x="134.0" y="108.0" type="curve"/>
      <point x="83.0" y="93.0"/>
      <point x="47.0" y="57.0"/>
      <point x="47.0" y="21.0" type="curve" smooth="yes"/>
      <point x="47.0" y="2.0"/>
      <point x="61.0" y="-16.0"/>
      <point x="84.0" y="-16.0" type="curve" smooth="yes"/>
      <point x="117.0" y="-16.0"/>
      <point x="148.0" y="28.0"/>
      <point x="155.0" y="79.0" type="curve"/>
      <point x="160.0" y="80.0"/>
      <point x="166.0" y="80.0"/>
      <point x="171.0" y="80.0" type="curve" smooth="yes"/>
      <point x="261.0" y="80.0"/>
      <point x="328.0" y="-16.0"/>
      <point x="412.0" y="-16.0" type="curve" smooth="yes"/>
      <point x="477.0" y="-16.0"/>
      <point x="511.0" y="44.0"/>
      <point x="514.0" y="124.0" type="curve"/>
      <point x="482.0" y="124.0" type="line"/>
      <point x="479.0" y="81.0"/>
      <point x="458.0" y="61.0"/>
      <point x="429.0" y="61.0" type="curve" smooth="yes"/>
      <point x="384.0" y="61.0"/>
      <point x="315.0" y="121.0"/>
      <point x="229.0" y="121.0" type="curve" smooth="yes"/>
      <point x="211.0" y="121.0"/>
      <point x="193.0" y="120.0"/>
      <point x="177.0" y="117.0" type="curve"/>
      <point x="234.0" y="187.0"/>
      <point x="234.0" y="224.0"/>
      <point x="223.0" y="312.0" type="curve"/>
      <point x="366.0" y="312.0" type="line"/>
      <point x="366.0" y="360.0" type="line"/>
      <point x="214.0" y="360.0" type="line"/>
      <point x="204.0" y="415.0"/>
      <point x="190.0" y="469.0"/>
      <point x="190.0" y="537.0" type="curve" smooth="yes"/>
      <point x="190.0" y="611.0"/>
      <point x="229.0" y="678.0"/>
      <point x="304.0" y="678.0" type="curve" smooth="yes"/>
      <point x="351.0" y="678.0"/>
      <point x="377.0" y="655.0"/>
      <point x="385.0" y="629.0" type="curve"/>
      <point x="374.0" y="617.0"/>
      <point x="372.0" y="603.0"/>
      <point x="372.0" y="595.0" type="curve" smooth="yes"/>
      <point x="372.0" y="580.0"/>
      <point x="382.0" y="555.0"/>
      <point x="412.0" y="556.0" type="curve" smooth="yes"/>
      <point x="438.0" y="557.0"/>
      <point x="452.0" y="576.0"/>
      <point x="452.0" y="600.0" type="curve" smooth="yes"/>
      <point x="452.0" y="646.0"/>
      <point x="414.0" y="716.0"/>
      <point x="296.0" y="716.0" type="curve" smooth="yes"/>
      <point x="188.0" y="716.0"/>
      <point x="111.0" y="630.0"/>
      <point x="111.0" y="497.0" type="curve" smooth="yes"/>
      <point x="111.0" y="441.0"/>
      <point x="119.0" y="398.0"/>
    </contour>
  </outline>
</glyph>
<glyph name="currency" format="2">
  <advance width="535.0"/>
  <unicode hex="00A4"/>
  <outline>
    <contour>
      <point x="102.0" y="40.0" type="line"/>
      <point x="153.0" y="104.0" type="line"/>
      <point x="182.0" y="81.0"/>
      <point x="221.0" y="67.0"/>
      <point x="268.0" y="67.0" type="curve" smooth="yes"/>
      <point x="315.0" y="67.0"/>
      <point x="354.0" y="81.0"/>
      <point x="384.0" y="105.0" type="curve"/>
      <point x="435.0" y="40.0" type="line"/>
      <point x="475.0" y="72.0" type="line"/>
      <point x="416.0" y="139.0" type="line"/>
      <point x="440.0" y="172.0"/>
      <point x="452.0" y="212.0"/>
      <point x="452.0" y="254.0" type="curve" smooth="yes"/>
      <point x="452.0" y="296.0"/>
      <point x="439.0" y="339.0"/>
      <point x="413.0" y="374.0" type="curve"/>
      <point x="475.0" y="444.0" type="line"/>
      <point x="435.0" y="477.0" type="line"/>
      <point x="381.0" y="409.0" type="line"/>
      <point x="351.0" y="433.0"/>
      <point x="314.0" y="448.0"/>
      <point x="268.0" y="448.0" type="curve" smooth="yes"/>
      <point x="223.0" y="448.0"/>
      <point x="185.0" y="433.0"/>
      <point x="156.0" y="409.0" type="curve"/>
      <point x="102.0" y="477.0" type="line"/>
      <point x="61.0" y="444.0" type="line"/>
      <point x="123.0" y="374.0" type="line"/>
      <point x="97.0" y="339.0"/>
      <point x="84.0" y="296.0"/>
      <point x="84.0" y="254.0" type="curve" smooth="yes"/>
      <point x="84.0" y="212.0"/>
      <point x="96.0" y="172.0"/>
      <point x="120.0" y="139.0" type="curve"/>
      <point x="61.0" y="72.0" type="line"/>
    </contour>
    <contour>
      <point x="268.0" y="106.0" type="curve" smooth="yes"/>
      <point x="189.0" y="106.0"/>
      <point x="170.0" y="207.0"/>
      <point x="170.0" y="271.0" type="curve" smooth="yes"/>
      <point x="170.0" y="321.0"/>
      <point x="193.0" y="413.0"/>
      <point x="268.0" y="413.0" type="curve" smooth="yes"/>
      <point x="343.0" y="413.0"/>
      <point x="366.0" y="321.0"/>
      <point x="366.0" y="271.0" type="curve" smooth="yes"/>
      <point x="366.0" y="207.0"/>
      <point x="347.0" y="106.0"/>
    </contour>
  </outline>
</glyph>
<glyph name="yen" format="2">
  <advance width="705.0"/>
  <unicode hex="00A5"/>
  <outline>
    <contour>
      <point x="249.0" y="0.0" type="line"/>
      <point x="484.0" y="0.0" type="line"/>
      <point x="484.0" y="44.0" type="line"/>
      <point x="456.0" y="43.0"/>
      <point x="429.0" y="41.0"/>
      <point x="401.0" y="40.0" type="curve"/>
      <point x="404.0" y="66.0"/>
      <point x="404.0" y="87.0"/>
      <point x="403.0" y="163.0" type="curve"/>
      <point x="534.0" y="164.0" type="line"/>
      <point x="534.0" y="207.0" type="line"/>
      <point x="403.0" y="208.0" type="line"/>
      <point x="404.0" y="271.0" type="line"/>
      <point x="534.0" y="272.0" type="line"/>
      <point x="534.0" y="315.0" type="line"/>
      <point x="413.0" y="315.0" type="line"/>
      <point x="531.0" y="538.0" type="line" smooth="yes"/>
      <point x="577.0" y="623.0"/>
      <point x="612.0" y="663.0"/>
      <point x="678.0" y="667.0" type="curve"/>
      <point x="678.0" y="700.0" type="line"/>
      <point x="474.0" y="700.0" type="line"/>
      <point x="474.0" y="656.0" type="line"/>
      <point x="500.0" y="657.0"/>
      <point x="527.0" y="658.0"/>
      <point x="553.0" y="659.0" type="curve"/>
      <point x="534.0" y="638.0"/>
      <point x="515.0" y="602.0"/>
      <point x="505.0" y="583.0" type="curve"/>
      <point x="422.0" y="426.0" type="line"/>
      <point x="407.0" y="399.0"/>
      <point x="393.0" y="370.0"/>
      <point x="377.0" y="340.0" type="curve"/>
      <point x="345.0" y="383.0"/>
      <point x="337.0" y="393.0"/>
      <point x="316.0" y="426.0" type="curve"/>
      <point x="233.0" y="558.0" type="line"/>
      <point x="193.0" y="622.0"/>
      <point x="194.0" y="667.0"/>
      <point x="286.0" y="667.0" type="curve"/>
      <point x="286.0" y="700.0" type="line"/>
      <point x="28.0" y="700.0" type="line"/>
      <point x="28.0" y="656.0" type="line"/>
      <point x="49.0" y="657.0"/>
      <point x="69.0" y="657.0"/>
      <point x="90.0" y="658.0" type="curve"/>
      <point x="95.0" y="633.0"/>
      <point x="110.0" y="598.0"/>
      <point x="144.0" y="545.0" type="curve" smooth="yes"/>
      <point x="288.0" y="316.0" type="line"/>
      <point x="189.0" y="317.0" type="line"/>
      <point x="189.0" y="270.0" type="line"/>
      <point x="317.0" y="271.0" type="line"/>
      <point x="317.0" y="208.0" type="line"/>
      <point x="189.0" y="209.0" type="line"/>
      <point x="189.0" y="162.0" type="line"/>
      <point x="317.0" y="163.0" type="line"/>
      <point x="317.0" y="59.0"/>
      <point x="311.0" y="35.0"/>
      <point x="249.0" y="33.0" type="curve"/>
    </contour>
  </outline>
</glyph>
<glyph name="brokenbar" format="2">
  <advance width="243.0"/>
  <unicode hex="00A6"/>
  <outline>
    <contour>
      <point x="87.0" y="385.0" type="line"/>
      <point x="155.0" y="385.0" type="line"/>
      <point x="159.0" y="760.0" type="line"/>
      <point x="84.0" y="760.0" type="line"/>
    </contour>
    <contour>
      <point x="87.0" y="-271.0" type="line"/>
      <point x="155.0" y="-271.0" type="line"/>
      <point x="159.0" y="101.0" type="line"/>
      <point x="84.0" y="101.0" type="line"/>
    </contour>
  </outline>
</glyph>
<glyph name="dieresis" format="2">
  <advance width="387.0"/>
  <unicode hex="00A8"/>
  <anchor x="193.0" y="500.0" name="_top"/>
  <outline>
    <contour>
      <point x="277.0" y="611.0" type="curve" smooth="yes"/>
      <point x="303.0" y="611.0"/>
      <point x="327.0" y="637.0"/>
      <point x="327.0" y="670.0" type="curve" smooth="yes"/>
      <point x="327.0" y="703.0"/>
      <point x="306.0" y="730.0"/>
      <point x="277.0" y="730.0" type="curve" smooth="yes"/>
      <point x="251.0" y="730.0"/>
      <point x="227.0" y="703.0"/>
      <point x="227.0" y="670.0" type="curve" smooth="yes"/>
      <point x="227.0" y="637.0"/>
      <point x="250.0" y="611.0"/>
    </contour>
    <contour>
      <point x="110.0" y="611.0" type="curve" smooth="yes"/>
      <point x="136.0" y="611.0"/>
      <point x="160.0" y="637.0"/>
      <point x="160.0" y="670.0" type="curve" smooth="yes"/>
      <point x="160.0" y="703.0"/>
      <point x="139.0" y="730.0"/>
      <point x="110.0" y="730.0" type="curve" smooth="yes"/>
      <point x="84.0" y="730.0"/>
      <point x="60.0" y="703.0"/>
      <point x="60.0" y="670.0" type="curve" smooth="yes"/>
      <point x="60.0" y="637.0"/>
      <point x="83.0" y="611.0"/>
    </contour>
  </outline>
</glyph>
<glyph name="macron" format="2">
  <advance width="355.0"/>
  <unicode hex="00AF"/>
  <anchor x="178.0" y="500.0" name="_top"/>
  <outline>
    <contour>
      <point x="45.0" y="640.0" type="line"/>
      <point x="310.0" y="644.0" type="line"/>
      <point x="310.0" y="700.0" type="line"/>
      <point x="45.0" y="700.0" type="line"/>
    </contour>
  </outline>
</glyph>
<glyph name="twosuperior" format="2">
  <advance width="385.0"/>
  <unicode hex="00B2"/>
  <outline>
    <contour>
      <point x="61.0" y="306.0" type="curve"/>
      <point x="317.0" y="306.0" type="line"/>
      <point x="321.0" y="400.0" type="line"/>
      <point x="296.0" y="400.0" type="line"/>
      <point x="296.0" y="354.0"/>
      <point x="257.0" y="359.0"/>
      <point x="200.0" y="360.0" type="curve" smooth="yes"/>
      <point x="116.0" y="362.0" type="line"/>
      <point x="124.0" y="391.0"/>
      <point x="150.0" y="420.0"/>
      <point x="195.0" y="454.0" type="curve" smooth="yes"/>
      <point x="297.0" y="528.0"/>
      <point x="312.0" y="570.0"/>
      <point x="312.0" y="609.0" type="curve" smooth="yes"/>
      <point x="312.0" y="683.0"/>
      <point x="254.0" y="716.0"/>
      <point x="192.0" y="716.0" type="curve" smooth="yes"/>
      <point x="111.0" y="716.0"/>
      <point x="68.0" y="659.0"/>
      <point x="68.0" y="620.0" type="curve" smooth="yes"/>
      <point x="68.0" y="603.0"/>
      <point x="78.0" y="588.0"/>
      <point x="96.0" y="588.0" type="curve" smooth="yes"/>
      <point x="118.0" y="587.0"/>
      <point x="126.0" y="606.0"/>
      <point x="126.0" y="617.0" type="curve" smooth="yes"/>
      <point x="126.0" y="626.0"/>
      <point x="123.0" y="635.0"/>
      <point x="117.0" y="640.0" type="curve"/>
      <point x="122.0" y="661.0"/>
      <point x="146.0" y="680.0"/>
      <point x="179.0" y="680.0" type="curve" smooth="yes"/>
      <point x="219.0" y="680.0"/>
      <point x="242.0" y="651.0"/>
      <point x="242.0" y="608.0" type="curve" smooth="yes"/>
      <point x="242.0" y="580.0"/>
      <point x="234.0" y="538.0"/>
      <point x="178.0" y="492.0" type="curve" smooth="yes"/>
      <point x="116.0" y="441.0"/>
      <point x="61.0" y="389.0"/>
    </contour>
  </outline>
</glyph>
<glyph name="acute" format="2">
  <advance width="252.0"/>
  <unicode hex="00B4"/>
  <anchor x="125.0" y="500.0" name="_top"/>
  <outline>
    <contour>
      <point x="73.0" y="580.0" type="line"/>
      <point x="185.0" y="686.0" type="line" smooth="yes"/>
      <point x="221.0" y="724.0"/>
      <point x="202.0" y="750.0"/>
      <point x="194.0" y="757.0" type="curve" smooth="yes"/>
      <point x="189.0" y="761.0"/>
      <point x="159.0" y="781.0"/>
      <point x="129.0" y="738.0" type="curve" smooth="yes"/>
      <point x="45.0" y="603.0" type="line"/>
    </contour>
  </outline>
</glyph>
<glyph name="onesuperior" format="2">
  <advance width="283.0"/>
  <unicode hex="00B9"/>
  <outline>
    <contour>
      <point x="76.0" y="301.0" type="line"/>
      <point x="231.0" y="301.0" type="line"/>
      <point x="231.0" y="335.0" type="line"/>
      <point x="214.0" y="334.0"/>
      <point x="197.0" y="334.0"/>
      <point x="180.0" y="333.0" type="curve"/>
      <point x="182.0" y="344.0"/>
      <point x="182.0" y="357.0"/>
      <point x="182.0" y="372.0" type="curve" smooth="yes"/>
      <point x="181.0" y="716.0" type="line"/>
      <point x="156.0" y="716.0" type="line"/>
      <point x="45.0" y="635.0" type="line"/>
      <point x="61.0" y="607.0" type="line"/>
      <point x="125.0" y="644.0" type="line"/>
      <point x="125.0" y="403.0" type="line" smooth="yes"/>
      <point x="125.0" y="362.0"/>
      <point x="117.0" y="329.0"/>
      <point x="76.0" y="329.0" type="curve"/>
    </contour>
  </outline>
</glyph>
<glyph name="ordmasculine" format="2">
  <advance width="419.0"/>
  <unicode hex="00BA"/>
  <outline>
    <contour>
      <point x="209.0" y="380.0" type="curve" smooth="yes"/>
      <point x="304.0" y="380.0"/>
      <point x="373.0" y="452.0"/>
      <point x="372.0" y="553.0" type="curve" smooth="yes"/>
      <point x="371.0" y="649.0"/>
      <point x="304.0" y="716.0"/>
      <point x="212.0" y="716.0" type="curve" smooth="yes"/>
      <point x="118.0" y="716.0"/>
      <point x="48.0" y="640.0"/>
      <point x="48.0" y="541.0" type="curve" smooth="yes"/>
      <point x="48.0" y="447.0"/>
      <point x="118.0" y="380.0"/>
    </contour>
    <contour>
      <point x="217.0" y="416.0" type="curve" smooth="yes"/>
      <point x="151.0" y="414.0"/>
      <point x="121.0" y="481.0"/>
      <point x="121.0" y="559.0" type="curve" smooth="yes"/>
      <point x="121.0" y="627.0"/>
      <point x="152.0" y="680.0"/>
      <point x="208.0" y="683.0" type="curve" smooth="yes"/>
      <point x="275.0" y="685.0"/>
      <point x="302.0" y="612.0"/>
      <point x="302.0" y="538.0" type="curve" smooth="yes"/>
      <point x="302.0" y="471.0"/>
      <point x="272.0" y="417.0"/>
    </contour>
  </outline>
</glyph>
<glyph name="AE" format="2">
  <advance width="949"/>
  <unicode hex="00C6"/>
  <outline>
    <contour>
      <point x="-21" y="0" type="line"/>
      <point x="166" y="0" type="line"/>
      <point x="166" y="44" type="line"/>
      <point x="90" y="40" type="line"/>
      <point x="113" y="74"/>
      <point x="136" y="109"/>
      <point x="159" y="143" type="curve"/>
      <point x="208" y="216" type="line"/>
      <point x="451" y="221" type="line"/>
      <point x="451" y="130" type="line" smooth="yes"/>
      <point x="451" y="56"/>
      <point x="437" y="40"/>
      <point x="382" y="36" type="curve"/>
      <point x="382" y="0" type="line"/>
      <point x="898" y="0" type="line"/>
      <point x="904" y="195" type="line"/>
      <point x="870" y="195" type="line"/>
      <point x="870" y="79"/>
      <point x="817" y="36"/>
      <point x="732" y="37" type="curve" smooth="yes"/>
      <point x="535" y="40" type="line"/>
      <point x="537" y="57"/>
      <point x="538" y="82"/>
      <point x="538" y="118" type="curve" smooth="yes"/>
      <point x="538" y="344" type="line"/>
      <point x="611" y="347" type="line" smooth="yes"/>
      <point x="696" y="350"/>
      <point x="730" y="347"/>
      <point x="730" y="259" type="curve"/>
      <point x="763" y="259" type="line"/>
      <point x="763" y="469" type="line"/>
      <point x="719" y="469" type="line"/>
      <point x="726" y="383" type="line"/>
      <point x="538" y="384" type="line"/>
      <point x="538" y="544" type="line" smooth="yes"/>
      <point x="538" y="625"/>
      <point x="539" y="661"/>
      <point x="614" y="663" type="curve" smooth="yes"/>
      <point x="700" y="665" type="line" smooth="yes"/>
      <point x="775" y="667"/>
      <point x="835" y="643"/>
      <point x="835" y="525" type="curve"/>
      <point x="868" y="525" type="line"/>
      <point x="863" y="700" type="line"/>
      <point x="362" y="700" type="line"/>
      <point x="362" y="656" type="line"/>
      <point x="452" y="660" type="line"/>
      <point x="91" y="125" type="line" smooth="yes"/>
      <point x="64" y="85"/>
      <point x="32" y="33"/>
      <point x="-21" y="33" type="curve"/>
    </contour>
    <contour>
      <point x="236" y="259" type="line"/>
      <point x="451" y="582" type="line"/>
      <point x="451" y="259" type="line"/>
    </contour>
  </outline>
</glyph>
<glyph name="Eth" format="2">
  <advance width="746.0"/>
  <unicode hex="00D0"/>
  <anchor x="374.0" y="350.0" name="center"/>
  <anchor x="347.0" y="700.0" name="top"/>
  <outline>
    <contour>
      <point x="19.0" y="335.0" type="line"/>
      <point x="393.0" y="335.0" type="line"/>
      <point x="393.0" y="377.0" type="line"/>
      <point x="19.0" y="377.0" type="line"/>
    </contour>
    <component base="D" xOffset="1.0"/>
  </outline>
</glyph>
<glyph name="Oslash" format="2">
  <advance width="794"/>
  <unicode hex="00D8"/>
  <anchor x="397" y="0" name="bottom"/>
  <anchor x="397" y="700" name="top"/>
  <anchor x="396" y="350" name="center"/>
  <anchor x="714" y="10" name="ogonek"/>
  <anchor x="19" y="700" name="topleft"/>
  <anchor x="573" y="700" name="topright"/>
  <outline>
    <contour>
      <point x="611" y="755" type="line"/>
      <point x="145" y="-50" type="line"/>
      <point x="193" y="-80" type="line"/>
      <point x="665" y="721" type="line"/>
    </contour>
    <component base="O" xOffset="-1"/>
  </outline>
</glyph>
<glyph name="thorn" format="2">
  <advance width="577.0"/>
  <unicode hex="00FE"/>
  <outline>
    <contour>
      <point x="15.0" y="-255.0" type="line"/>
      <point x="219.0" y="-255.0" type="line"/>
      <point x="219.0" y="-214.0" type="line"/>
      <point x="198.0" y="-215.0"/>
      <point x="177.0" y="-216.0"/>
      <point x="156.0" y="-217.0" type="curve"/>
      <point x="160.0" y="-194.0"/>
      <point x="160.0" y="-176.0"/>
      <point x="160.0" y="-149.0" type="curve" smooth="yes"/>
      <point x="160.0" y="15.0" type="line"/>
      <point x="193.0" y="-6.0"/>
      <point x="232.0" y="-16.0"/>
      <point x="279.0" y="-16.0" type="curve" smooth="yes"/>
      <point x="418.0" y="-16.0"/>
      <point x="534.0" y="94.0"/>
      <point x="534.0" y="264.0" type="curve" smooth="yes"/>
      <point x="534.0" y="419.0"/>
      <point x="432.0" y="516.0"/>
      <point x="311.0" y="516.0" type="curve" smooth="yes"/>
      <point x="255.0" y="516.0"/>
      <point x="201.0" y="495.0"/>
      <point x="160.0" y="462.0" type="curve"/>
      <point x="161.0" y="755.0" type="line"/>
      <point x="132.0" y="755.0" type="line"/>
      <point x="117.0" y="741.0"/>
      <point x="97.0" y="728.0"/>
      <point x="9.0" y="728.0" type="curve"/>
      <point x="9.0" y="686.0" type="line"/>
      <point x="33.0" y="687.0"/>
      <point x="56.0" y="689.0"/>
      <point x="80.0" y="690.0" type="curve"/>
      <point x="76.0" y="667.0"/>
      <point x="76.0" y="646.0"/>
      <point x="76.0" y="625.0" type="curve" smooth="yes"/>
      <point x="74.0" y="-103.0" type="line" smooth="yes"/>
      <point x="73.0" y="-175.0"/>
      <point x="76.0" y="-225.0"/>
      <point x="15.0" y="-225.0" type="curve"/>
    </contour>
    <contour>
      <point x="277.0" y="24.0" type="curve" smooth="yes"/>
      <point x="233.0" y="24.0"/>
      <point x="193.0" y="37.0"/>
      <point x="160.0" y="62.0" type="curve"/>
      <point x="160.0" y="416.0" type="line"/>
      <point x="189.0" y="446.0"/>
      <point x="231.0" y="467.0"/>
      <point x="277.0" y="467.0" type="curve" smooth="yes"/>
      <point x="386.0" y="467.0"/>
      <point x="431.0" y="357.0"/>
      <point x="431.0" y="249.0" type="curve" smooth="yes"/>
      <point x="431.0" y="117.0"/>
      <point x="372.0" y="24.0"/>
    </contour>
  </outline>
</glyph>
<glyph name="Hbar" format="2">
  <advance width="780"/>
  <unicode hex="0126"/>
  <anchor x="390" y="0" name="bottom"/>
  <anchor x="390" y="350" name="center"/>
  <anchor x="390" y="700" name="top"/>
  <outline>
    <contour>
      <point x="37" y="515" type="line"/>
      <point x="742" y="519" type="line"/>
      <point x="742" y="558" type="line"/>
      <point x="37" y="558" type="line"/>
    </contour>
    <component base="H"/>
  </outline>
</glyph>
<glyph name="hbar" format="2">
  <advance width="599"/>
  <unicode hex="0127"/>
  <anchor x="302" y="0" name="bottom"/>
  <anchor x="300" y="250" name="center"/>
  <anchor x="149" y="703" name="top"/>
  <outline>
    <contour>
      <point x="11" y="575" type="line"/>
      <point x="356" y="579" type="line"/>
      <point x="356" y="618" type="line"/>
      <point x="11" y="618" type="line"/>
    </contour>
    <component base="h"/>
  </outline>
</glyph>
<glyph name="idotless" format="2">
  <advance width="281"/>
  <unicode hex="0131"/>
  <anchor x="141" y="0" name="bottom"/>
  <anchor x="253" y="10" name="ogonek"/>
  <anchor x="141" y="500" name="top"/>
  <outline>
    <contour>
      <point x="44" y="30" type="curve"/>
      <point x="44" y="0" type="line"/>
      <point x="248" y="0" type="line"/>
      <point x="248" y="41" type="line"/>
      <point x="227" y="40"/>
      <point x="206" y="39"/>
      <point x="185" y="38" type="curve"/>
      <point x="189" y="61"/>
      <point x="189" y="79"/>
      <point x="189" y="106" type="curve" smooth="yes"/>
      <point x="189" y="510" type="line"/>
      <point x="160" y="510" type="line"/>
      <point x="145" y="496"/>
      <point x="124" y="483"/>
      <point x="36" y="483" type="curve"/>
      <point x="36" y="441" type="line"/>
      <point x="60" y="442"/>
      <point x="83" y="444"/>
      <point x="107" y="445" type="curve"/>
      <point x="104" y="418"/>
      <point x="103" y="401"/>
      <point x="103" y="380" type="curve" smooth="yes"/>
      <point x="103" y="152" type="line" smooth="yes"/>
      <point x="103" y="80"/>
      <point x="105" y="30"/>
    </contour>
  </outline>
</glyph>
<glyph name="Lcaron" format="2">
  <advance width="578.0"/>
  <unicode hex="013D"/>
  <outline>
    <contour>
      <point x="55.0" y="0.0" type="line"/>
      <point x="551.0" y="0.0" type="line"/>
      <point x="557.0" y="207.0" type="line"/>
      <point x="523.0" y="207.0" type="line"/>
      <point x="523.0" y="89.0"/>
      <point x="479.0" y="41.0"/>
      <point x="395.0" y="40.0" type="curve" smooth="yes"/>
      <point x="208.0" y="37.0" type="line"/>
      <point x="210.0" y="54.0"/>
      <point x="211.0" y="79.0"/>
      <point x="211.0" y="115.0" type="curve" smooth="yes"/>
      <point x="211.0" y="544.0" type="line" smooth="yes"/>
      <point x="211.0" y="615.0"/>
      <point x="205.0" y="664.0"/>
      <point x="280.0" y="667.0" type="curve"/>
      <point x="280.0" y="700.0" type="line"/>
      <point x="55.0" y="700.0" type="line"/>
      <point x="55.0" y="656.0" type="line"/>
      <point x="79.0" y="657.0"/>
      <point x="103.0" y="659.0"/>
      <point x="127.0" y="660.0" type="curve"/>
      <point x="125.0" y="640.0"/>
      <point x="124.0" y="615.0"/>
      <point x="124.0" y="588.0" type="curve" smooth="yes"/>
      <point x="124.0" y="156.0" type="line" smooth="yes"/>
      <point x="124.0" y="85.0"/>
      <point x="130.0" y="36.0"/>
      <point x="55.0" y="33.0" type="curve"/>
    </contour>
    <contour>
      <point x="415.0" y="488.0" type="line"/>
      <point x="457.0" y="530.0"/>
      <point x="492.0" y="583.0"/>
      <point x="497.0" y="636.0" type="curve" smooth="yes"/>
      <point x="500.0" y="660.0"/>
      <point x="497.0" y="673.0"/>
      <point x="486.0" y="696.0" type="curve"/>
      <point x="417.0" y="709.0" type="line"/>
      <point x="432.0" y="650.0"/>
      <point x="433.0" y="592.0"/>
      <point x="389.0" y="508.0" type="curve"/>
    </contour>
  </outline>
</glyph>
<glyph name="Lslash" format="2">
  <advance width="578.0"/>
  <unicode hex="0141"/>
  <anchor x="319.0" y="0.0" name="bottom"/>
  <anchor x="181.0" y="700.0" name="top"/>
  <outline>
    <contour>
      <point x="48.0" y="228.0" type="line"/>
      <point x="390.0" y="481.0" type="line"/>
      <point x="390.0" y="536.0" type="line"/>
      <point x="48.0" y="284.0" type="line"/>
    </contour>
    <component base="L"/>
  </outline>
</glyph>
<glyph name="eng" format="2">
  <advance width="588.0"/>
  <unicode hex="014B"/>
  <outline>
    <contour>
      <point x="329.0" y="-271.0" type="curve" smooth="yes"/>
      <point x="437.0" y="-271.0"/>
      <point x="518.0" y="-190.0"/>
      <point x="518.0" y="-3.0" type="curve" smooth="yes"/>
      <point x="518.0" y="292.0" type="line" smooth="yes"/>
      <point x="518.0" y="445.0"/>
      <point x="467.0" y="516.0"/>
      <point x="351.0" y="516.0" type="curve" smooth="yes"/>
      <point x="293.0" y="516.0"/>
      <point x="231.0" y="487.0"/>
      <point x="188.0" y="449.0" type="curve"/>
      <point x="187.0" y="477.0"/>
      <point x="186.0" y="495.0"/>
      <point x="184.0" y="510.0" type="curve"/>
      <point x="155.0" y="510.0" type="line"/>
      <point x="140.0" y="496.0"/>
      <point x="125.0" y="483.0"/>
      <point x="37.0" y="483.0" type="curve"/>
      <point x="37.0" y="441.0" type="line"/>
      <point x="61.0" y="442.0"/>
      <point x="84.0" y="444.0"/>
      <point x="108.0" y="445.0" type="curve"/>
      <point x="104.0" y="422.0"/>
      <point x="104.0" y="401.0"/>
      <point x="104.0" y="380.0" type="curve" smooth="yes"/>
      <point x="103.0" y="152.0" type="line" smooth="yes"/>
      <point x="102.0" y="80.0"/>
      <point x="105.0" y="30.0"/>
      <point x="44.0" y="30.0" type="curve"/>
      <point x="44.0" y="0.0" type="line"/>
      <point x="248.0" y="0.0" type="line"/>
      <point x="248.0" y="41.0" type="line"/>
      <point x="227.0" y="40.0"/>
      <point x="206.0" y="39.0"/>
      <point x="185.0" y="38.0" type="curve"/>
      <point x="189.0" y="61.0"/>
      <point x="189.0" y="79.0"/>
      <point x="189.0" y="106.0" type="curve" smooth="yes"/>
      <point x="190.0" y="361.0" type="line" smooth="yes"/>
      <point x="190.0" y="375.0"/>
      <point x="190.0" y="389.0"/>
      <point x="189.0" y="400.0" type="curve"/>
      <point x="219.0" y="437.0"/>
      <point x="269.0" y="464.0"/>
      <point x="317.0" y="465.0" type="curve" smooth="yes"/>
      <point x="396.0" y="466.0"/>
      <point x="431.0" y="406.0"/>
      <point x="432.0" y="292.0" type="curve" smooth="yes"/>
      <point x="431.0" y="-86.0" type="line" smooth="yes"/>
      <point x="431.0" y="-157.0"/>
      <point x="422.0" y="-217.0"/>
      <point x="366.0" y="-225.0" type="curve" smooth="yes"/>
      <point x="357.0" y="-225.0"/>
      <point x="346.0" y="-224.0"/>
      <point x="336.0" y="-219.0" type="curve"/>
      <point x="337.0" y="-216.0"/>
      <point x="337.0" y="-213.0"/>
      <point x="337.0" y="-210.0" type="curve" smooth="yes"/>
      <point x="337.0" y="-194.0"/>
      <point x="326.0" y="-167.0"/>
      <point x="293.0" y="-168.0" type="curve" smooth="yes"/>
      <point x="266.0" y="-169.0"/>
      <point x="250.0" y="-191.0"/>
      <point x="250.0" y="-215.0" type="curve" smooth="yes"/>
      <point x="250.0" y="-244.0"/>
      <point x="274.0" y="-271.0"/>
    </contour>
  </outline>
</glyph>
<glyph name="OE" format="2">
  <advance width="1022.0"/>
  <unicode hex="0152"/>
  <outline>
    <contour>
      <point x="805.0" y="259.0" type="curve"/>
      <point x="838.0" y="259.0" type="line"/>
      <point x="838.0" y="469.0" type="line"/>
      <point x="793.0" y="469.0" type="line"/>
      <point x="796.0" y="440.0"/>
      <point x="798.0" y="412.0"/>
      <point x="801.0" y="383.0" type="curve"/>
      <point x="611.0" y="383.0" type="line"/>
      <point x="611.0" y="544.0" type="line" smooth="yes"/>
      <point x="611.0" y="625.0"/>
      <point x="612.0" y="661.0"/>
      <point x="687.0" y="663.0" type="curve" smooth="yes"/>
      <point x="773.0" y="665.0" type="line" smooth="yes"/>
      <point x="848.0" y="667.0"/>
      <point x="908.0" y="643.0"/>
      <point x="908.0" y="525.0" type="curve"/>
      <point x="941.0" y="525.0" type="line"/>
      <point x="936.0" y="700.0" type="line"/>
      <point x="524.0" y="700.0" type="line"/>
      <point x="484.0" y="709.0"/>
      <point x="435.0" y="716.0"/>
      <point x="397.0" y="716.0" type="curve" smooth="yes"/>
      <point x="155.0" y="710.0"/>
      <point x="46.0" y="517.0"/>
      <point x="46.0" y="329.0" type="curve" smooth="yes"/>
      <point x="46.0" y="130.0"/>
      <point x="174.0" y="-16.0"/>
      <point x="385.0" y="-16.0" type="curve" smooth="yes"/>
      <point x="424.0" y="-16.0"/>
      <point x="471.0" y="-11.0"/>
      <point x="524.0" y="0.0" type="curve"/>
      <point x="971.0" y="0.0" type="line"/>
      <point x="977.0" y="195.0" type="line"/>
      <point x="943.0" y="195.0" type="line"/>
      <point x="943.0" y="76.0"/>
      <point x="887.0" y="34.0"/>
      <point x="800.0" y="37.0" type="curve" smooth="yes"/>
      <point x="608.0" y="43.0" type="line"/>
      <point x="610.0" y="60.0"/>
      <point x="611.0" y="85.0"/>
      <point x="611.0" y="121.0" type="curve" smooth="yes"/>
      <point x="611.0" y="343.0" type="line"/>
      <point x="686.0" y="347.0" type="line" smooth="yes"/>
      <point x="771.0" y="350.0"/>
      <point x="805.0" y="347.0"/>
    </contour>
    <contour>
      <point x="524.0" y="651.0" type="curve"/>
      <point x="524.0" y="48.0" type="line"/>
      <point x="484.0" y="37.0"/>
      <point x="451.0" y="32.0"/>
      <point x="414.0" y="32.0" type="curve" smooth="yes"/>
      <point x="256.0" y="32.0"/>
      <point x="146.0" y="155.0"/>
      <point x="144.0" y="344.0" type="curve" smooth="yes"/>
      <point x="142.0" y="550.0"/>
      <point x="258.0" y="674.0"/>
      <point x="400.0" y="674.0" type="curve" smooth="yes"/>
      <point x="439.0" y="674.0"/>
      <point x="486.0" y="668.0"/>
    </contour>
  </outline>
</glyph>
<glyph name="Tbar" format="2">
  <advance width="640"/>
  <unicode hex="0166"/>
  <anchor x="321" y="0" name="bottom"/>
  <anchor x="320" y="350" name="center"/>
  <anchor x="320" y="700" name="top"/>
  <outline>
    <contour>
      <point x="152" y="318" type="line"/>
      <point x="508" y="322" type="line"/>
      <point x="508" y="361" type="line"/>
      <point x="152" y="361" type="line"/>
    </contour>
    <component base="T"/>
  </outline>
</glyph>
<glyph name="tbar" format="2">
  <advance width="387.0"/>
  <unicode hex="0167"/>
  <anchor x="253.0" y="0.0" name="bottom"/>
  <anchor x="174.0" y="250.0" name="center"/>
  <outline>
    <contour>
      <point x="31.0" y="285.0" type="line"/>
      <point x="346.0" y="289.0" type="line"/>
      <point x="346.0" y="328.0" type="line"/>
      <point x="31.0" y="328.0" type="line"/>
    </contour>
    <component base="t"/>
  </outline>
</glyph>
<glyph name="gstroke" format="2">
  <advance width="575.0"/>
  <unicode hex="01E5"/>
  <outline>
    <contour>
      <point x="277.0" y="-95.0" type="line"/>
      <point x="562.0" y="-91.0" type="line"/>
      <point x="562.0" y="-52.0" type="line"/>
      <point x="277.0" y="-52.0" type="line"/>
    </contour>
    <component base="de-cy.loclBGR"/>
  </outline>
</glyph>
<glyph name="jdotless" format="2">
  <advance width="212.0"/>
  <unicode hex="0237"/>
  <anchor x="209.0" y="-255.0" name="bottom"/>
  <anchor x="133.0" y="500.0" name="top"/>
  <outline>
    <contour>
      <point x="-9.0" y="-271.0" type="curve" smooth="yes"/>
      <point x="99.0" y="-271.0"/>
      <point x="181.0" y="-190.0"/>
      <point x="181.0" y="-3.0" type="curve" smooth="yes"/>
      <point x="181.0" y="510.0" type="line"/>
      <point x="152.0" y="510.0" type="line"/>
      <point x="137.0" y="496.0"/>
      <point x="115.0" y="483.0"/>
      <point x="27.0" y="483.0" type="curve"/>
      <point x="27.0" y="441.0" type="line"/>
      <point x="51.0" y="442.0"/>
      <point x="74.0" y="444.0"/>
      <point x="98.0" y="445.0" type="curve"/>
      <point x="95.0" y="418.0"/>
      <point x="95.0" y="401.0"/>
      <point x="95.0" y="380.0" type="curve" smooth="yes"/>
      <point x="93.0" y="-86.0" type="line" smooth="yes"/>
      <point x="93.0" y="-153.0"/>
      <point x="82.0" y="-225.0"/>
      <point x="24.0" y="-225.0" type="curve" smooth="yes"/>
      <point x="15.0" y="-225.0"/>
      <point x="7.0" y="-223.0"/>
      <point x="-2.0" y="-219.0" type="curve"/>
      <point x="-1.0" y="-216.0"/>
      <point x="-1.0" y="-213.0"/>
      <point x="-1.0" y="-210.0" type="curve" smooth="yes"/>
      <point x="-1.0" y="-194.0"/>
      <point x="-12.0" y="-167.0"/>
      <point x="-45.0" y="-168.0" type="curve" smooth="yes"/>
      <point x="-72.0" y="-168.0"/>
      <point x="-88.0" y="-191.0"/>
      <point x="-88.0" y="-215.0" type="curve" smooth="yes"/>
      <point x="-88.0" y="-244.0"/>
      <point x="-64.0" y="-271.0"/>
    </contour>
  </outline>
</glyph>
<glyph name="circumflex" format="2">
  <advance width="400.0"/>
  <unicode hex="02C6"/>
  <anchor x="200.0" y="500.0" name="_top"/>
  <outline>
    <contour>
      <point x="328.0" y="583.0" type="line"/>
      <point x="355.0" y="615.0" type="line"/>
      <point x="206.0" y="778.0" type="line"/>
      <point x="204.0" y="778.0" type="line"/>
      <point x="45.0" y="619.0" type="line"/>
      <point x="70.0" y="590.0" type="line"/>
      <point x="199.0" y="692.0" type="line"/>
      <point x="201.0" y="692.0" type="line"/>
    </contour>
  </outline>
</glyph>
<glyph name="ring" format="2">
  <advance width="318"/>
  <unicode hex="02DA"/>
  <anchor x="159" y="500" name="_top"/>
  <outline>
    <contour>
      <point x="160" y="570" type="curve" smooth="yes"/>
      <point x="208" y="570"/>
      <point x="259" y="609"/>
      <point x="257" y="671" type="curve" smooth="yes"/>
      <point x="255" y="733"/>
      <point x="205" y="761"/>
      <point x="158" y="761" type="curve" smooth="yes"/>
      <point x="109" y="761"/>
      <point x="59" y="720"/>
      <point x="61" y="661" type="curve" smooth="yes"/>
      <point x="63" y="598"/>
      <point x="112" y="570"/>
    </contour>
    <contour>
      <point x="163" y="601" type="curve" smooth="yes"/>
      <point x="132" y="600"/>
      <point x="114" y="631"/>
      <point x="114" y="670" type="curve" smooth="yes"/>
      <point x="114" y="705"/>
      <point x="132" y="729"/>
      <point x="158" y="730" type="curve" smooth="yes"/>
      <point x="187" y="731"/>
      <point x="204" y="702"/>
      <point x="204" y="660" type="curve" smooth="yes"/>
      <point x="204" y="625"/>
      <point x="187" y="602"/>
    </contour>
  </outline>
</glyph>
<glyph name="tilde" format="2">
  <advance width="406.0"/>
  <unicode hex="02DC"/>
  <anchor x="203.0" y="500.0" name="_top"/>
  <outline>
    <contour>
      <point x="371.0" y="707.0" type="curve"/>
      <point x="342.0" y="722.0" type="line"/>
      <point x="326.0" y="693.0"/>
      <point x="298.0" y="674.0"/>
      <point x="269.0" y="674.0" type="curve" smooth="yes"/>
      <point x="225.0" y="674.0"/>
      <point x="200.0" y="729.0"/>
      <point x="137.0" y="727.0" type="curve" smooth="yes"/>
      <point x="100.0" y="726.0"/>
      <point x="52.0" y="688.0"/>
      <point x="35.0" y="641.0" type="curve"/>
      <point x="65.0" y="624.0" type="line"/>
      <point x="84.0" y="654.0"/>
      <point x="114.0" y="666.0"/>
      <point x="138.0" y="666.0" type="curve" smooth="yes"/>
      <point x="175.0" y="666.0"/>
      <point x="207.0" y="612.0"/>
      <point x="269.0" y="612.0" type="curve" smooth="yes"/>
      <point x="304.0" y="612.0"/>
      <point x="349.0" y="641.0"/>
    </contour>
  </outline>
</glyph>
<glyph name="hookabovecomb" format="2">
  <unicode hex="0309"/>
  <anchor x="234.0" y="500.0" name="_top"/>
  <anchor x="226.0" y="770.0" name="top"/>
  <outline>
    <contour>
      <point x="218.0" y="566.0" type="curve"/>
      <point x="259.0" y="566.0" type="line"/>
      <point x="259.0" y="577.0"/>
      <point x="273.0" y="586.0"/>
      <point x="289.0" y="598.0" type="curve" smooth="yes"/>
      <point x="313.0" y="617.0"/>
      <point x="330.0" y="633.0"/>
      <point x="330.0" y="667.0" type="curve" smooth="yes"/>
      <point x="330.0" y="707.0"/>
      <point x="291.0" y="748.0"/>
      <point x="221.0" y="748.0" type="curve" smooth="yes"/>
      <point x="154.0" y="748.0"/>
      <point x="117.0" y="712.0"/>
      <point x="117.0" y="678.0" type="curve" smooth="yes"/>
      <point x="117.0" y="651.0"/>
      <point x="134.0" y="640.0"/>
      <point x="150.0" y="640.0" type="curve" smooth="yes"/>
      <point x="166.0" y="640.0"/>
      <point x="181.0" y="650.0"/>
      <point x="181.0" y="666.0" type="curve" smooth="yes"/>
      <point x="181.0" y="672.0"/>
      <point x="178.0" y="678.0"/>
      <point x="175.0" y="682.0" type="curve"/>
      <point x="177.0" y="696.0"/>
      <point x="198.0" y="712.0"/>
      <point x="222.0" y="712.0" type="curve" smooth="yes"/>
      <point x="255.0" y="712.0"/>
      <point x="275.0" y="687.0"/>
      <point x="275.0" y="660.0" type="curve" smooth="yes"/>
      <point x="275.0" y="646.0"/>
      <point x="269.0" y="630.0"/>
      <point x="256.0" y="619.0" type="curve" smooth="yes"/>
      <point x="239.0" y="604.0"/>
      <point x="218.0" y="590.0"/>
    </contour>
  </outline>
</glyph>
<glyph name="horncomb" format="2">
  <unicode hex="031B"/>
  <anchor x="301" y="500" name="_topright"/>
  <anchor x="301" y="500" name="topright"/>
  <outline>
    <contour>
      <point x="233" y="446" type="line"/>
      <point x="326" y="446"/>
      <point x="390" y="510"/>
      <point x="390" y="577" type="curve"/>
      <point x="314" y="577" type="line"/>
      <point x="314" y="540"/>
      <point x="283" y="497"/>
      <point x="233" y="497" type="curve"/>
    </contour>
  </outline>
</glyph>
<glyph name="pi" format="2">
  <advance width="579.0"/>
  <unicode hex="03C0"/>
  <outline>
    <contour>
      <point x="73.0" y="-16.0" type="curve" smooth="yes"/>
      <point x="118.0" y="-16.0"/>
      <point x="160.0" y="15.0"/>
      <point x="180.0" y="72.0" type="curve" smooth="yes"/>
      <point x="206.0" y="148.0"/>
      <point x="205.0" y="334.0"/>
      <point x="205.0" y="443.0" type="curve"/>
      <point x="259.0" y="439.0"/>
      <point x="312.0" y="430.0"/>
      <point x="376.0" y="426.0" type="curve"/>
      <point x="376.0" y="346.0"/>
      <point x="375.0" y="96.0"/>
      <point x="375.0" y="88.0" type="curve" smooth="yes"/>
      <point x="375.0" y="51.0"/>
      <point x="386.0" y="-16.0"/>
      <point x="457.0" y="-16.0" type="curve" smooth="yes"/>
      <point x="495.0" y="-16.0"/>
      <point x="534.0" y="11.0"/>
      <point x="551.0" y="34.0" type="curve"/>
      <point x="539.0" y="50.0" type="line"/>
      <point x="527.0" y="42.0"/>
      <point x="514.0" y="38.0"/>
      <point x="505.0" y="38.0" type="curve" smooth="yes"/>
      <point x="477.0" y="38.0"/>
      <point x="462.0" y="62.0"/>
      <point x="462.0" y="131.0" type="curve" smooth="yes"/>
      <point x="462.0" y="231.0"/>
      <point x="463.0" y="332.0"/>
      <point x="463.0" y="432.0" type="curve"/>
      <point x="503.0" y="446.0"/>
      <point x="531.0" y="476.0"/>
      <point x="546.0" y="495.0" type="curve"/>
      <point x="529.0" y="516.0" type="line"/>
      <point x="492.0" y="498.0"/>
      <point x="466.0" y="493.0"/>
      <point x="432.0" y="493.0" type="curve" smooth="yes"/>
      <point x="375.0" y="493.0"/>
      <point x="276.0" y="512.0"/>
      <point x="173.0" y="512.0" type="curve" smooth="yes"/>
      <point x="110.0" y="512.0"/>
      <point x="67.0" y="479.0"/>
      <point x="39.0" y="444.0" type="curve"/>
      <point x="55.0" y="422.0" type="line"/>
      <point x="89.0" y="439.0"/>
      <point x="112.0" y="444.0"/>
      <point x="164.0" y="444.0" type="curve"/>
      <point x="164.0" y="338.0"/>
      <point x="167.0" y="76.0"/>
      <point x="104.0" y="56.0" type="curve"/>
      <point x="93.0" y="66.0"/>
      <point x="79.0" y="71.0"/>
      <point x="66.0" y="71.0" type="curve" smooth="yes"/>
      <point x="51.0" y="71.0"/>
      <point x="25.0" y="60.0"/>
      <point x="25.0" y="28.0" type="curve" smooth="yes"/>
      <point x="25.0" y="-1.0"/>
      <point x="47.0" y="-16.0"/>
    </contour>
  </outline>
</glyph>
<glyph name="Lje-cy" format="2">
  <advance width="950.0"/>
  <unicode hex="0409"/>
  <outline>
    <contour>
      <point x="94.0" y="-16.0" type="curve" smooth="yes"/>
      <point x="249.0" y="-16.0"/>
      <point x="287.0" y="290.0"/>
      <point x="287.0" y="582.0" type="curve" smooth="yes"/>
      <point x="289.0" y="632.0"/>
      <point x="296.0" y="660.0"/>
      <point x="339.0" y="660.0" type="curve" smooth="yes"/>
      <point x="484.0" y="660.0" type="line"/>
      <point x="484.0" y="156.0" type="line" smooth="yes"/>
      <point x="484.0" y="83.0"/>
      <point x="488.0" y="35.0"/>
      <point x="415.0" y="33.0" type="curve"/>
      <point x="415.0" y="0.0" type="line"/>
      <point x="683.0" y="0.0" type="line" smooth="yes"/>
      <point x="818.0" y="0.0"/>
      <point x="918.0" y="73.0"/>
      <point x="918.0" y="213.0" type="curve" smooth="yes"/>
      <point x="918.0" y="331.0"/>
      <point x="847.0" y="419.0"/>
      <point x="627.0" y="410.0" type="curve" smooth="yes"/>
      <point x="571.0" y="407.0" type="line"/>
      <point x="571.0" y="544.0" type="line" smooth="yes"/>
      <point x="571.0" y="615.0"/>
      <point x="566.0" y="664.0"/>
      <point x="640.0" y="667.0" type="curve"/>
      <point x="640.0" y="700.0" type="line"/>
      <point x="145.0" y="700.0" type="line"/>
      <point x="145.0" y="656.0" type="line"/>
      <point x="218.0" y="660.0" type="line"/>
      <point x="239.0" y="660.0" type="line"/>
      <point x="239.0" y="531.0" type="line" smooth="yes"/>
      <point x="239.0" y="217.0"/>
      <point x="162.0" y="25.0"/>
      <point x="107.0" y="25.0" type="curve" smooth="yes"/>
      <point x="100.0" y="25.0"/>
      <point x="96.0" y="27.0"/>
      <point x="90.0" y="33.0" type="curve"/>
      <point x="98.0" y="41.0"/>
      <point x="99.0" y="47.0"/>
      <point x="99.0" y="60.0" type="curve" smooth="yes"/>
      <point x="99.0" y="80.0"/>
      <point x="84.0" y="106.0"/>
      <point x="51.0" y="104.0" type="curve" smooth="yes"/>
      <point x="22.0" y="103.0"/>
      <point x="7.0" y="79.0"/>
      <point x="7.0" y="52.0" type="curve" smooth="yes"/>
      <point x="7.0" y="8.0"/>
      <point x="46.0" y="-16.0"/>
    </contour>
    <contour>
      <point x="568.0" y="40.0" type="curve" smooth="yes"/>
      <point x="570.0" y="57.0"/>
      <point x="571.0" y="82.0"/>
      <point x="571.0" y="118.0" type="curve" smooth="yes"/>
      <point x="571.0" y="369.0" type="line"/>
      <point x="603.0" y="371.0"/>
      <point x="610.0" y="372.0"/>
      <point x="649.0" y="372.0" type="curve" smooth="yes"/>
      <point x="741.0" y="372.0"/>
      <point x="822.0" y="336.0"/>
      <point x="822.0" y="209.0" type="curve" smooth="yes"/>
      <point x="822.0" y="90.0"/>
      <point x="752.0" y="38.0"/>
      <point x="649.0" y="38.0" type="curve" smooth="yes"/>
      <point x="637.0" y="38.0"/>
      <point x="599.0" y="37.0"/>
    </contour>
  </outline>
</glyph>
<glyph name="Tshe-cy" format="2">
  <advance width="790.0"/>
  <unicode hex="040B"/>
  <outline>
    <contour>
      <point x="178.0" y="0.0" type="line"/>
      <point x="413.0" y="0.0" type="line"/>
      <point x="413.0" y="44.0" type="line"/>
      <point x="385.0" y="43.0"/>
      <point x="358.0" y="41.0"/>
      <point x="330.0" y="40.0" type="curve"/>
      <point x="332.0" y="57.0"/>
      <point x="333.0" y="83.0"/>
      <point x="333.0" y="119.0" type="curve" smooth="yes"/>
      <point x="333.0" y="351.0" type="line"/>
      <point x="364.0" y="366.0"/>
      <point x="402.0" y="375.0"/>
      <point x="446.0" y="376.0" type="curve" smooth="yes"/>
      <point x="556.0" y="377.0"/>
      <point x="601.0" y="317.0"/>
      <point x="602.0" y="250.0" type="curve" smooth="yes"/>
      <point x="601.0" y="90.0"/>
      <point x="612.0" y="36.0"/>
      <point x="533.0" y="33.0" type="curve"/>
      <point x="533.0" y="0.0" type="line"/>
      <point x="758.0" y="0.0" type="line"/>
      <point x="758.0" y="44.0" type="line"/>
      <point x="734.0" y="43.0"/>
      <point x="710.0" y="41.0"/>
      <point x="686.0" y="40.0" type="curve"/>
      <point x="689.0" y="62.0"/>
      <point x="689.0" y="90.0"/>
      <point x="689.0" y="227.0" type="curve" smooth="yes"/>
      <point x="689.0" y="355.0"/>
      <point x="627.0" y="427.0"/>
      <point x="483.0" y="427.0" type="curve" smooth="yes"/>
      <point x="427.0" y="427.0"/>
      <point x="374.0" y="416.0"/>
      <point x="334.0" y="399.0" type="curve"/>
      <point x="334.0" y="664.0" type="line"/>
      <point x="449.0" y="664.0" type="line" smooth="yes"/>
      <point x="552.0" y="664.0"/>
      <point x="577.0" y="607.0"/>
      <point x="579.0" y="489.0" type="curve"/>
      <point x="617.0" y="489.0" type="line"/>
      <point x="611.0" y="700.0" type="line"/>
      <point x="28.0" y="700.0" type="line"/>
      <point x="22.0" y="489.0" type="line"/>
      <point x="59.0" y="489.0" type="line"/>
      <point x="59.0" y="607.0"/>
      <point x="90.0" y="661.0"/>
      <point x="174.0" y="662.0" type="curve" smooth="yes"/>
      <point x="247.0" y="663.0" type="line"/>
      <point x="246.0" y="156.0" type="line" smooth="yes"/>
      <point x="246.0" y="88.0"/>
      <point x="253.0" y="36.0"/>
      <point x="178.0" y="33.0" type="curve"/>
    </contour>
  </outline>
</glyph>
<glyph name="Dzhe-cy" format="2">
  <advance width="771"/>
  <unicode hex="040F"/>
  <anchor x="133" y="698" name="bottomright"/>
  <outline>
    <contour>
      <point x="387" y="-178" type="curve"/>
      <point x="429" y="-178" type="line"/>
      <point x="429" y="41" type="line"/>
      <point x="307" y="33" type="line"/>
      <point x="308" y="0" type="line"/>
      <point x="374" y="0"/>
      <point x="387" y="-78"/>
    </contour>
    <component base="Pe-cy" xScale="-1" yScale="-1" xOffset="771" yOffset="700"/>
  </outline>
</glyph>
<glyph name="Ze-cy" format="2">
  <advance width="613.0"/>
  <unicode hex="0417"/>
  <anchor x="314.0" y="0.0" name="bottom"/>
  <anchor x="306.0" y="700.0" name="top"/>
  <outline>
    <contour>
      <point x="313.0" y="-16.0" type="curve" smooth="yes"/>
      <point x="445.0" y="-16.0"/>
      <point x="574.0" y="57.0"/>
      <point x="574.0" y="201.0" type="curve" smooth="yes"/>
      <point x="574.0" y="294.0"/>
      <point x="506.0" y="367.0"/>
      <point x="372.0" y="374.0" type="curve"/>
      <point x="372.0" y="377.0" type="line"/>
      <point x="481.0" y="397.0"/>
      <point x="536.0" y="466.0"/>
      <point x="537.0" y="545.0" type="curve" smooth="yes"/>
      <point x="539.0" y="650.0"/>
      <point x="453.0" y="716.0"/>
      <point x="324.0" y="716.0" type="curve" smooth="yes"/>
      <point x="247.0" y="716.0"/>
      <point x="196.0" y="697.0"/>
      <point x="138.0" y="655.0" type="curve"/>
      <point x="143.0" y="709.0" type="line"/>
      <point x="89.0" y="709.0" type="line"/>
      <point x="89.0" y="487.0" type="line"/>
      <point x="125.0" y="487.0" type="line"/>
      <point x="155.0" y="613.0"/>
      <point x="210.0" y="675.0"/>
      <point x="321.0" y="675.0" type="curve" smooth="yes"/>
      <point x="390.0" y="675.0"/>
      <point x="445.0" y="637.0"/>
      <point x="445.0" y="539.0" type="curve" smooth="yes"/>
      <point x="445.0" y="462.0"/>
      <point x="409.0" y="391.0"/>
      <point x="296.0" y="389.0" type="curve" smooth="yes"/>
      <point x="211.0" y="389.0" type="line"/>
      <point x="211.0" y="347.0" type="line"/>
      <point x="289.0" y="348.0" type="line"/>
      <point x="415.0" y="345.0"/>
      <point x="475.0" y="298.0"/>
      <point x="475.0" y="202.0" type="curve" smooth="yes"/>
      <point x="475.0" y="89.0"/>
      <point x="390.0" y="32.0"/>
      <point x="291.0" y="32.0" type="curve" smooth="yes"/>
      <point x="205.0" y="32.0"/>
      <point x="120.0" y="76.0"/>
      <point x="66.0" y="151.0" type="curve"/>
      <point x="40.0" y="130.0" type="line"/>
      <point x="111.0" y="31.0"/>
      <point x="206.0" y="-16.0"/>
    </contour>
  </outline>
</glyph>
<glyph name="Ii-cy" format="2">
  <advance width="790.0"/>
  <unicode hex="0418"/>
  <guideline x="666.0" y="153.0" angle="90.0"/>
  <anchor x="666.0" y="0.0" name="bottomright"/>
  <anchor x="397.0" y="700.0" name="top"/>
  <outline>
    <contour>
      <point x="280.0" y="667.0" type="curve"/>
      <point x="280.0" y="700.0" type="line"/>
      <point x="55.0" y="700.0" type="line"/>
      <point x="55.0" y="656.0" type="line"/>
      <point x="79.0" y="657.0"/>
      <point x="103.0" y="659.0"/>
      <point x="127.0" y="660.0" type="curve"/>
      <point x="125.0" y="640.0"/>
      <point x="124.0" y="615.0"/>
      <point x="124.0" y="588.0" type="curve" smooth="yes"/>
      <point x="124.0" y="156.0" type="line" smooth="yes"/>
      <point x="124.0" y="85.0"/>
      <point x="130.0" y="36.0"/>
      <point x="55.0" y="33.0" type="curve"/>
      <point x="55.0" y="0.0" type="line"/>
      <point x="280.0" y="0.0" type="line"/>
      <point x="280.0" y="44.0" type="line"/>
      <point x="256.0" y="43.0"/>
      <point x="232.0" y="41.0"/>
      <point x="208.0" y="40.0" type="curve"/>
      <point x="210.0" y="57.0"/>
      <point x="211.0" y="83.0"/>
      <point x="211.0" y="119.0" type="curve" smooth="yes"/>
      <point x="211.0" y="544.0" type="line" smooth="yes"/>
      <point x="211.0" y="615.0"/>
      <point x="205.0" y="664.0"/>
    </contour>
    <contour>
      <point x="735.0" y="667.0" type="curve"/>
      <point x="735.0" y="700.0" type="line"/>
      <point x="510.0" y="700.0" type="line"/>
      <point x="510.0" y="656.0" type="line"/>
      <point x="534.0" y="657.0"/>
      <point x="558.0" y="659.0"/>
      <point x="582.0" y="660.0" type="curve"/>
      <point x="580.0" y="640.0"/>
      <point x="579.0" y="615.0"/>
      <point x="579.0" y="588.0" type="curve" smooth="yes"/>
      <point x="579.0" y="156.0" type="line" smooth="yes"/>
      <point x="579.0" y="85.0"/>
      <point x="585.0" y="36.0"/>
      <point x="510.0" y="33.0" type="curve"/>
      <point x="510.0" y="0.0" type="line"/>
      <point x="735.0" y="0.0" type="line"/>
      <point x="735.0" y="44.0" type="line"/>
      <point x="711.0" y="43.0"/>
      <point x="687.0" y="41.0"/>
      <point x="663.0" y="40.0" type="curve"/>
      <point x="665.0" y="57.0"/>
      <point x="666.0" y="83.0"/>
      <point x="666.0" y="119.0" type="curve" smooth="yes"/>
      <point x="666.0" y="544.0" type="line" smooth="yes"/>
      <point x="666.0" y="615.0"/>
      <point x="660.0" y="664.0"/>
    </contour>
    <contour>
      <point x="604.0" y="651.0" type="line"/>
      <point x="143.0" y="81.0" type="line"/>
      <point x="174.0" y="52.0" type="line"/>
      <point x="632.0" y="624.0" type="line"/>
    </contour>
  </outline>
</glyph>
<glyph name="El-cy" format="2">
  <advance width="700.0"/>
  <unicode hex="041B"/>
  <anchor x="576.0" y="0.0" name="bottomright"/>
  <outline>
    <contour>
      <point x="99.0" y="-16.0" type="curve" smooth="yes"/>
      <point x="249.0" y="-16.0"/>
      <point x="292.0" y="290.0"/>
      <point x="292.0" y="582.0" type="curve" smooth="yes"/>
      <point x="294.0" y="634.0"/>
      <point x="300.0" y="660.0"/>
      <point x="348.0" y="660.0" type="curve"/>
      <point x="489.0" y="661.0" type="line"/>
      <point x="489.0" y="156.0" type="line" smooth="yes"/>
      <point x="489.0" y="85.0"/>
      <point x="495.0" y="36.0"/>
      <point x="419.0" y="33.0" type="curve"/>
      <point x="419.0" y="0.0" type="line"/>
      <point x="645.0" y="0.0" type="line"/>
      <point x="645.0" y="44.0" type="line"/>
      <point x="621.0" y="43.0"/>
      <point x="597.0" y="41.0"/>
      <point x="573.0" y="40.0" type="curve"/>
      <point x="575.0" y="57.0"/>
      <point x="576.0" y="83.0"/>
      <point x="576.0" y="119.0" type="curve" smooth="yes"/>
      <point x="576.0" y="544.0" type="line" smooth="yes"/>
      <point x="576.0" y="615.0"/>
      <point x="570.0" y="664.0"/>
      <point x="645.0" y="667.0" type="curve"/>
      <point x="645.0" y="700.0" type="line"/>
      <point x="150.0" y="700.0" type="line"/>
      <point x="150.0" y="656.0" type="line"/>
      <point x="223.0" y="660.0" type="line"/>
      <point x="244.0" y="660.0" type="line"/>
      <point x="244.0" y="511.0" type="line" smooth="yes"/>
      <point x="244.0" y="178.0"/>
      <point x="157.0" y="25.0"/>
      <point x="112.0" y="25.0" type="curve" smooth="yes"/>
      <point x="105.0" y="25.0"/>
      <point x="101.0" y="27.0"/>
      <point x="95.0" y="33.0" type="curve"/>
      <point x="103.0" y="41.0"/>
      <point x="105.0" y="47.0"/>
      <point x="105.0" y="60.0" type="curve" smooth="yes"/>
      <point x="105.0" y="80.0"/>
      <point x="89.0" y="106.0"/>
      <point x="56.0" y="104.0" type="curve" smooth="yes"/>
      <point x="27.0" y="103.0"/>
      <point x="7.0" y="81.0"/>
      <point x="7.0" y="52.0" type="curve" smooth="yes"/>
      <point x="7.0" y="10.0"/>
      <point x="51.0" y="-16.0"/>
    </contour>
  </outline>
</glyph>
<glyph name="Pe-cy" format="2">
  <advance width="761.0"/>
  <unicode hex="041F"/>
  <anchor x="638.0" y="2.0" name="bottomright"/>
  <outline>
    <contour>
      <point x="55.0" y="0.0" type="line"/>
      <point x="280.0" y="0.0" type="line"/>
      <point x="280.0" y="44.0" type="line"/>
      <point x="256.0" y="43.0"/>
      <point x="232.0" y="41.0"/>
      <point x="208.0" y="40.0" type="curve"/>
      <point x="210.0" y="57.0"/>
      <point x="211.0" y="83.0"/>
      <point x="211.0" y="119.0" type="curve" smooth="yes"/>
      <point x="211.0" y="575.0" type="line" smooth="yes"/>
      <point x="212.0" y="623.0"/>
      <point x="221.0" y="655.0"/>
      <point x="280.0" y="657.0" type="curve" smooth="yes"/>
      <point x="550.0" y="661.0" type="line"/>
      <point x="550.0" y="156.0" type="line" smooth="yes"/>
      <point x="550.0" y="85.0"/>
      <point x="556.0" y="36.0"/>
      <point x="480.0" y="33.0" type="curve"/>
      <point x="480.0" y="0.0" type="line"/>
      <point x="706.0" y="0.0" type="line"/>
      <point x="706.0" y="44.0" type="line"/>
      <point x="682.0" y="43.0"/>
      <point x="658.0" y="41.0"/>
      <point x="634.0" y="40.0" type="curve"/>
      <point x="636.0" y="57.0"/>
      <point x="637.0" y="83.0"/>
      <point x="637.0" y="119.0" type="curve" smooth="yes"/>
      <point x="637.0" y="544.0" type="line" smooth="yes"/>
      <point x="637.0" y="615.0"/>
      <point x="631.0" y="664.0"/>
      <point x="706.0" y="667.0" type="curve"/>
      <point x="706.0" y="700.0" type="line"/>
      <point x="55.0" y="700.0" type="line"/>
      <point x="55.0" y="656.0" type="line"/>
      <point x="79.0" y="657.0"/>
      <point x="103.0" y="659.0"/>
      <point x="127.0" y="660.0" type="curve"/>
      <point x="125.0" y="640.0"/>
      <point x="124.0" y="615.0"/>
      <point x="124.0" y="588.0" type="curve" smooth="yes"/>
      <point x="124.0" y="156.0" type="line" smooth="yes"/>
      <point x="124.0" y="85.0"/>
      <point x="130.0" y="36.0"/>
      <point x="55.0" y="33.0" type="curve"/>
    </contour>
  </outline>
</glyph>
<glyph name="U-cy" format="2">
  <advance width="610.0"/>
  <unicode hex="0423"/>
  <anchor x="317.0" y="700.0" name="top"/>
  <outline>
    <contour>
      <point x="188.0" y="-17.0" type="curve" smooth="yes"/>
      <point x="258.0" y="-17.0"/>
      <point x="292.0" y="39.0"/>
      <point x="338.0" y="149.0" type="curve" smooth="yes"/>
      <point x="500.0" y="540.0" type="line" smooth="yes"/>
      <point x="533.0" y="622.0"/>
      <point x="548.0" y="663.0"/>
      <point x="623.0" y="667.0" type="curve"/>
      <point x="623.0" y="700.0" type="line"/>
      <point x="418.0" y="700.0" type="line"/>
      <point x="418.0" y="656.0" type="line"/>
      <point x="497.0" y="659.0" type="line"/>
      <point x="483.0" y="642.0"/>
      <point x="465.0" y="592.0"/>
      <point x="452.0" y="552.0" type="curve" smooth="yes"/>
      <point x="418.0" y="454.0"/>
      <point x="284.0" y="118.0"/>
      <point x="258.0" y="73.0" type="curve" smooth="yes"/>
      <point x="240.0" y="41.0"/>
      <point x="227.0" y="28.0"/>
      <point x="211.0" y="28.0" type="curve" smooth="yes"/>
      <point x="205.0" y="28.0"/>
      <point x="200.0" y="30.0"/>
      <point x="194.0" y="32.0" type="curve"/>
      <point x="200.0" y="39.0"/>
      <point x="203.0" y="45.0"/>
      <point x="203.0" y="57.0" type="curve" smooth="yes"/>
      <point x="203.0" y="78.0"/>
      <point x="188.0" y="101.0"/>
      <point x="157.0" y="100.0" type="curve" smooth="yes"/>
      <point x="126.0" y="99.0"/>
      <point x="106.0" y="76.0"/>
      <point x="106.0" y="44.0" type="curve" smooth="yes"/>
      <point x="106.0" y="-2.0"/>
      <point x="146.0" y="-17.0"/>
    </contour>
    <contour>
      <point x="299.0" y="147.0" type="line"/>
      <point x="342.0" y="241.0" type="line"/>
      <point x="324.0" y="278.0"/>
      <point x="305.0" y="314.0"/>
      <point x="287.0" y="351.0" type="curve"/>
      <point x="184.0" y="558.0" type="line" smooth="yes"/>
      <point x="151.0" y="622.0"/>
      <point x="152.0" y="667.0"/>
      <point x="236.0" y="667.0" type="curve"/>
      <point x="236.0" y="700.0" type="line"/>
      <point x="-5.0" y="700.0" type="line"/>
      <point x="-5.0" y="656.0" type="line"/>
      <point x="57.0" y="658.0" type="line"/>
      <point x="62.0" y="633.0"/>
      <point x="71.0" y="599.0"/>
      <point x="98.0" y="546.0" type="curve" smooth="yes"/>
    </contour>
  </outline>
</glyph>
<glyph name="Ef-cy" format="2">
  <advance width="819.0"/>
  <unicode hex="0424"/>
  <outline>
    <contour>
      <point x="294.0" y="-49.0" type="line"/>
      <point x="519.0" y="-49.0" type="line"/>
      <point x="519.0" y="-5.0" type="line"/>
      <point x="446.0" y="-9.0" type="line"/>
      <point x="449.0" y="6.0"/>
      <point x="450.0" y="40.0"/>
      <point x="450.0" y="73.0" type="curve"/>
      <point x="674.0" y="83.0"/>
      <point x="775.0" y="191.0"/>
      <point x="775.0" y="350.0" type="curve" smooth="yes"/>
      <point x="775.0" y="522.0"/>
      <point x="660.0" y="633.0"/>
      <point x="450.0" y="647.0" type="curve"/>
      <point x="451.0" y="693.0"/>
      <point x="460.0" y="724.0"/>
      <point x="519.0" y="726.0" type="curve"/>
      <point x="519.0" y="759.0" type="line"/>
      <point x="294.0" y="759.0" type="line"/>
      <point x="294.0" y="715.0" type="line"/>
      <point x="367.0" y="719.0" type="line"/>
      <point x="364.0" y="699.0"/>
      <point x="363.0" y="674.0"/>
      <point x="363.0" y="647.0" type="curve"/>
      <point x="145.0" y="633.0"/>
      <point x="46.0" y="509.0"/>
      <point x="46.0" y="335.0" type="curve" smooth="yes"/>
      <point x="46.0" y="181.0"/>
      <point x="158.0" y="87.0"/>
      <point x="363.0" y="74.0" type="curve"/>
      <point x="362.0" y="24.0"/>
      <point x="352.0" y="-14.0"/>
      <point x="294.0" y="-16.0" type="curve"/>
    </contour>
    <contour>
      <point x="363.0" y="115.0" type="line"/>
      <point x="220.0" y="129.0"/>
      <point x="144.0" y="201.0"/>
      <point x="144.0" y="354.0" type="curve" smooth="yes"/>
      <point x="144.0" y="506.0"/>
      <point x="221.0" y="592.0"/>
      <point x="363.0" y="606.0" type="curve"/>
    </contour>
    <contour>
      <point x="450.0" y="113.0" type="curve"/>
      <point x="450.0" y="605.0" type="line"/>
      <point x="598.0" y="591.0"/>
      <point x="677.0" y="504.0"/>
      <point x="677.0" y="332.0" type="curve" smooth="yes"/>
      <point x="677.0" y="193.0"/>
      <point x="597.0" y="122.0"/>
    </contour>
  </outline>
</glyph>
<glyph name="Tse-cy" format="2">
  <advance width="750.0"/>
  <unicode hex="0426"/>
  <outline>
    <contour>
      <point x="675.0" y="-178.0" type="curve"/>
      <point x="716.0" y="-178.0" type="line"/>
      <point x="716.0" y="45.0" type="line"/>
      <point x="624.0" y="40.0" type="line"/>
      <point x="626.0" y="60.0"/>
      <point x="627.0" y="85.0"/>
      <point x="627.0" y="112.0" type="curve" smooth="yes"/>
      <point x="627.0" y="544.0" type="line" smooth="yes"/>
      <point x="627.0" y="615.0"/>
      <point x="621.0" y="664.0"/>
      <point x="696.0" y="667.0" type="curve"/>
      <point x="696.0" y="700.0" type="line"/>
      <point x="471.0" y="700.0" type="line"/>
      <point x="471.0" y="656.0" type="line"/>
      <point x="495.0" y="657.0"/>
      <point x="519.0" y="659.0"/>
      <point x="543.0" y="660.0" type="curve"/>
      <point x="541.0" y="643.0"/>
      <point x="540.0" y="617.0"/>
      <point x="540.0" y="581.0" type="curve" smooth="yes"/>
      <point x="540.0" y="123.0" type="line" smooth="yes"/>
      <point x="539.0" y="76.0"/>
      <point x="530.0" y="45.0"/>
      <point x="475.0" y="43.0" type="curve" smooth="yes"/>
      <point x="211.0" y="40.0" type="line"/>
      <point x="211.0" y="544.0" type="line" smooth="yes"/>
      <point x="211.0" y="615.0"/>
      <point x="205.0" y="664.0"/>
      <point x="280.0" y="667.0" type="curve"/>
      <point x="280.0" y="700.0" type="line"/>
      <point x="55.0" y="700.0" type="line"/>
      <point x="55.0" y="656.0" type="line"/>
      <point x="79.0" y="657.0"/>
      <point x="103.0" y="659.0"/>
      <point x="127.0" y="660.0" type="curve"/>
      <point x="125.0" y="643.0"/>
      <point x="124.0" y="617.0"/>
      <point x="124.0" y="581.0" type="curve" smooth="yes"/>
      <point x="124.0" y="156.0" type="line" smooth="yes"/>
      <point x="124.0" y="85.0"/>
      <point x="130.0" y="36.0"/>
      <point x="55.0" y="33.0" type="curve"/>
      <point x="55.0" y="0.0" type="line"/>
      <point x="595.0" y="0.0" type="line" smooth="yes"/>
      <point x="661.0" y="0.0"/>
      <point x="675.0" y="-78.0"/>
    </contour>
  </outline>
</glyph>
<glyph name="Sha-cy" format="2">
  <advance width="1005.0"/>
  <unicode hex="0428"/>
  <outline>
    <contour>
      <point x="55.0" y="0.0" type="line"/>
      <point x="950.0" y="0.0" type="line"/>
      <point x="950.0" y="44.0" type="line"/>
      <point x="926.0" y="43.0"/>
      <point x="901.0" y="41.0"/>
      <point x="877.0" y="40.0" type="curve"/>
      <point x="880.0" y="60.0"/>
      <point x="881.0" y="85.0"/>
      <point x="881.0" y="112.0" type="curve" smooth="yes"/>
      <point x="881.0" y="544.0" type="line" smooth="yes"/>
      <point x="881.0" y="615.0"/>
      <point x="875.0" y="664.0"/>
      <point x="950.0" y="667.0" type="curve"/>
      <point x="950.0" y="700.0" type="line"/>
      <point x="734.0" y="700.0" type="line"/>
      <point x="734.0" y="656.0" type="line"/>
      <point x="755.0" y="657.0"/>
      <point x="776.0" y="659.0"/>
      <point x="797.0" y="660.0" type="curve"/>
      <point x="794.0" y="643.0"/>
      <point x="793.0" y="617.0"/>
      <point x="793.0" y="581.0" type="curve" smooth="yes"/>
      <point x="793.0" y="124.0" type="line" smooth="yes"/>
      <point x="792.0" y="77.0"/>
      <point x="783.0" y="46.0"/>
      <point x="728.0" y="43.0" type="curve"/>
      <point x="543.0" y="42.0" type="line"/>
      <point x="545.0" y="65.0"/>
      <point x="546.0" y="87.0"/>
      <point x="546.0" y="112.0" type="curve" smooth="yes"/>
      <point x="546.0" y="544.0" type="line" smooth="yes"/>
      <point x="546.0" y="615.0"/>
      <point x="540.0" y="664.0"/>
      <point x="615.0" y="667.0" type="curve"/>
      <point x="615.0" y="700.0" type="line"/>
      <point x="399.0" y="700.0" type="line"/>
      <point x="399.0" y="656.0" type="line"/>
      <point x="420.0" y="657.0"/>
      <point x="441.0" y="659.0"/>
      <point x="462.0" y="660.0" type="curve"/>
      <point x="459.0" y="643.0"/>
      <point x="458.0" y="617.0"/>
      <point x="458.0" y="581.0" type="curve" smooth="yes"/>
      <point x="458.0" y="122.0" type="line" smooth="yes"/>
      <point x="457.0" y="75.0"/>
      <point x="448.0" y="44.0"/>
      <point x="393.0" y="41.0" type="curve"/>
      <point x="211.0" y="40.0" type="line"/>
      <point x="211.0" y="544.0" type="line" smooth="yes"/>
      <point x="211.0" y="615.0"/>
      <point x="205.0" y="664.0"/>
      <point x="280.0" y="667.0" type="curve"/>
      <point x="280.0" y="700.0" type="line"/>
      <point x="55.0" y="700.0" type="line"/>
      <point x="55.0" y="656.0" type="line"/>
      <point x="79.0" y="657.0"/>
      <point x="103.0" y="659.0"/>
      <point x="127.0" y="660.0" type="curve"/>
      <point x="125.0" y="643.0"/>
      <point x="124.0" y="617.0"/>
      <point x="124.0" y="581.0" type="curve" smooth="yes"/>
      <point x="124.0" y="156.0" type="line" smooth="yes"/>
      <point x="124.0" y="85.0"/>
      <point x="130.0" y="36.0"/>
      <point x="55.0" y="33.0" type="curve"/>
    </contour>
  </outline>
</glyph>
<glyph name="Shcha-cy" format="2">
  <advance width="1001.0"/>
  <unicode hex="0429"/>
  <outline>
    <contour>
      <point x="926.0" y="-178.0" type="curve"/>
      <point x="967.0" y="-178.0" type="line"/>
      <point x="967.0" y="45.0" type="line"/>
      <point x="875.0" y="40.0" type="line"/>
      <point x="878.0" y="60.0"/>
      <point x="879.0" y="85.0"/>
      <point x="879.0" y="112.0" type="curve" smooth="yes"/>
      <point x="879.0" y="544.0" type="line" smooth="yes"/>
      <point x="879.0" y="615.0"/>
      <point x="873.0" y="664.0"/>
      <point x="948.0" y="667.0" type="curve"/>
      <point x="948.0" y="700.0" type="line"/>
      <point x="733.0" y="700.0" type="line"/>
      <point x="733.0" y="656.0" type="line"/>
      <point x="754.0" y="657.0"/>
      <point x="775.0" y="659.0"/>
      <point x="796.0" y="660.0" type="curve"/>
      <point x="793.0" y="643.0"/>
      <point x="792.0" y="617.0"/>
      <point x="792.0" y="581.0" type="curve" smooth="yes"/>
      <point x="792.0" y="124.0" type="line" smooth="yes"/>
      <point x="791.0" y="77.0"/>
      <point x="782.0" y="46.0"/>
      <point x="727.0" y="43.0" type="curve"/>
      <point x="542.0" y="42.0" type="line"/>
      <point x="544.0" y="65.0"/>
      <point x="545.0" y="87.0"/>
      <point x="545.0" y="112.0" type="curve" smooth="yes"/>
      <point x="545.0" y="544.0" type="line" smooth="yes"/>
      <point x="545.0" y="615.0"/>
      <point x="539.0" y="664.0"/>
      <point x="614.0" y="667.0" type="curve"/>
      <point x="614.0" y="700.0" type="line"/>
      <point x="399.0" y="700.0" type="line"/>
      <point x="399.0" y="656.0" type="line"/>
      <point x="420.0" y="657.0"/>
      <point x="441.0" y="659.0"/>
      <point x="462.0" y="660.0" type="curve"/>
      <point x="459.0" y="643.0"/>
      <point x="458.0" y="617.0"/>
      <point x="458.0" y="581.0" type="curve" smooth="yes"/>
      <point x="458.0" y="122.0" type="line" smooth="yes"/>
      <point x="457.0" y="75.0"/>
      <point x="448.0" y="44.0"/>
      <point x="393.0" y="41.0" type="curve"/>
      <point x="211.0" y="40.0" type="line"/>
      <point x="211.0" y="544.0" type="line" smooth="yes"/>
      <point x="211.0" y="615.0"/>
      <point x="205.0" y="664.0"/>
      <point x="280.0" y="667.0" type="curve"/>
      <point x="280.0" y="700.0" type="line"/>
      <point x="55.0" y="700.0" type="line"/>
      <point x="55.0" y="656.0" type="line"/>
      <point x="79.0" y="657.0"/>
      <point x="103.0" y="659.0"/>
      <point x="127.0" y="660.0" type="curve"/>
      <point x="125.0" y="643.0"/>
      <point x="124.0" y="617.0"/>
      <point x="124.0" y="581.0" type="curve" smooth="yes"/>
      <point x="124.0" y="156.0" type="line" smooth="yes"/>
      <point x="124.0" y="85.0"/>
      <point x="130.0" y="36.0"/>
      <point x="55.0" y="33.0" type="curve"/>
      <point x="55.0" y="0.0" type="line"/>
      <point x="846.0" y="0.0" type="line" smooth="yes"/>
      <point x="912.0" y="0.0"/>
      <point x="926.0" y="-78.0"/>
    </contour>
  </outline>
</glyph>
<glyph name="Hardsign-cy" format="2">
  <advance width="718.0"/>
  <unicode hex="042A"/>
  <outline>
    <contour>
      <point x="172.0" y="0.0" type="line"/>
      <point x="459.0" y="0.0" type="line" smooth="yes"/>
      <point x="590.0" y="0.0"/>
      <point x="686.0" y="73.0"/>
      <point x="686.0" y="213.0" type="curve" smooth="yes"/>
      <point x="686.0" y="331.0"/>
      <point x="614.0" y="416.0"/>
      <point x="404.0" y="410.0" type="curve" smooth="yes"/>
      <point x="329.0" y="407.0" type="line"/>
      <point x="329.0" y="544.0" type="line" smooth="yes"/>
      <point x="329.0" y="615.0"/>
      <point x="322.0" y="664.0"/>
      <point x="397.0" y="667.0" type="curve"/>
      <point x="397.0" y="700.0" type="line"/>
      <point x="28.0" y="700.0" type="line"/>
      <point x="22.0" y="489.0" type="line"/>
      <point x="59.0" y="489.0" type="line"/>
      <point x="59.0" y="607.0"/>
      <point x="90.0" y="659.0"/>
      <point x="174.0" y="659.0" type="curve" smooth="yes"/>
      <point x="245.0" y="660.0" type="line"/>
      <point x="242.0" y="640.0"/>
      <point x="241.0" y="615.0"/>
      <point x="241.0" y="588.0" type="curve" smooth="yes"/>
      <point x="241.0" y="156.0" type="line" smooth="yes"/>
      <point x="242.0" y="83.0"/>
      <point x="246.0" y="35.0"/>
      <point x="172.0" y="33.0" type="curve"/>
    </contour>
    <contour>
      <point x="325.0" y="40.0" type="curve"/>
      <point x="330.0" y="66.0"/>
      <point x="329.0" y="94.0"/>
      <point x="329.0" y="369.0" type="curve"/>
      <point x="360.0" y="371.0"/>
      <point x="387.0" y="372.0"/>
      <point x="426.0" y="372.0" type="curve" smooth="yes"/>
      <point x="508.0" y="372.0"/>
      <point x="589.0" y="336.0"/>
      <point x="589.0" y="209.0" type="curve" smooth="yes"/>
      <point x="589.0" y="90.0"/>
      <point x="520.0" y="38.0"/>
      <point x="426.0" y="38.0" type="curve" smooth="yes"/>
      <point x="414.0" y="38.0"/>
      <point x="356.0" y="37.0"/>
    </contour>
  </outline>
</glyph>
<glyph name="Yeru-cy" format="2">
  <advance width="899.0"/>
  <unicode hex="042B"/>
  <anchor x="449.0" y="700.0" name="top"/>
  <outline>
    <contour>
      <point x="55.0" y="0.0" type="line"/>
      <point x="347.0" y="0.0" type="line" smooth="yes"/>
      <point x="468.0" y="0.0"/>
      <point x="568.0" y="73.0"/>
      <point x="568.0" y="213.0" type="curve" smooth="yes"/>
      <point x="568.0" y="331.0"/>
      <point x="497.0" y="416.0"/>
      <point x="292.0" y="410.0" type="curve" smooth="yes"/>
      <point x="211.0" y="407.0" type="line"/>
      <point x="211.0" y="544.0" type="line" smooth="yes"/>
      <point x="211.0" y="615.0"/>
      <point x="205.0" y="664.0"/>
      <point x="280.0" y="667.0" type="curve"/>
      <point x="280.0" y="700.0" type="line"/>
      <point x="55.0" y="700.0" type="line"/>
      <point x="55.0" y="656.0" type="line"/>
      <point x="79.0" y="657.0"/>
      <point x="103.0" y="659.0"/>
      <point x="127.0" y="660.0" type="curve"/>
      <point x="125.0" y="640.0"/>
      <point x="124.0" y="615.0"/>
      <point x="124.0" y="588.0" type="curve" smooth="yes"/>
      <point x="124.0" y="156.0" type="line" smooth="yes"/>
      <point x="124.0" y="84.0"/>
      <point x="129.0" y="35.0"/>
      <point x="55.0" y="33.0" type="curve"/>
    </contour>
    <contour>
      <point x="208.0" y="40.0" type="curve"/>
      <point x="211.0" y="67.0"/>
      <point x="211.0" y="110.0"/>
      <point x="211.0" y="369.0" type="curve"/>
      <point x="243.0" y="371.0"/>
      <point x="274.0" y="372.0"/>
      <point x="314.0" y="372.0" type="curve" smooth="yes"/>
      <point x="391.0" y="372.0"/>
      <point x="472.0" y="336.0"/>
      <point x="472.0" y="209.0" type="curve" smooth="yes"/>
      <point x="472.0" y="90.0"/>
      <point x="402.0" y="38.0"/>
      <point x="314.0" y="38.0" type="curve" smooth="yes"/>
      <point x="301.0" y="38.0"/>
      <point x="239.0" y="37.0"/>
    </contour>
    <contour>
      <point x="619.0" y="0.0" type="line"/>
      <point x="844.0" y="0.0" type="line"/>
      <point x="844.0" y="44.0" type="line"/>
      <point x="820.0" y="43.0"/>
      <point x="795.0" y="41.0"/>
      <point x="771.0" y="40.0" type="curve"/>
      <point x="774.0" y="57.0"/>
      <point x="775.0" y="83.0"/>
      <point x="775.0" y="119.0" type="curve" smooth="yes"/>
      <point x="775.0" y="544.0" type="line" smooth="yes"/>
      <point x="775.0" y="615.0"/>
      <point x="769.0" y="664.0"/>
      <point x="844.0" y="667.0" type="curve"/>
      <point x="844.0" y="700.0" type="line"/>
      <point x="619.0" y="700.0" type="line"/>
      <point x="619.0" y="656.0" type="line"/>
      <point x="643.0" y="657.0"/>
      <point x="667.0" y="659.0"/>
      <point x="691.0" y="660.0" type="curve"/>
      <point x="688.0" y="640.0"/>
      <point x="688.0" y="615.0"/>
      <point x="688.0" y="588.0" type="curve" smooth="yes"/>
      <point x="688.0" y="156.0" type="line" smooth="yes"/>
      <point x="688.0" y="85.0"/>
      <point x="694.0" y="36.0"/>
      <point x="619.0" y="33.0" type="curve"/>
    </contour>
  </outline>
</glyph>
<glyph name="Softsign-cy" format="2">
  <advance width="615.0"/>
  <unicode hex="042C"/>
  <outline>
    <contour>
      <point x="280.0" y="667.0" type="curve"/>
      <point x="280.0" y="700.0" type="line"/>
      <point x="55.0" y="700.0" type="line"/>
      <point x="55.0" y="656.0" type="line"/>
      <point x="79.0" y="657.0"/>
      <point x="103.0" y="659.0"/>
      <point x="127.0" y="660.0" type="curve"/>
      <point x="125.0" y="640.0"/>
      <point x="124.0" y="615.0"/>
      <point x="124.0" y="588.0" type="curve" smooth="yes"/>
      <point x="124.0" y="156.0" type="line" smooth="yes"/>
      <point x="124.0" y="84.0"/>
      <point x="129.0" y="35.0"/>
      <point x="55.0" y="33.0" type="curve"/>
      <point x="55.0" y="0.0" type="line"/>
      <point x="347.0" y="0.0" type="line" smooth="yes"/>
      <point x="482.0" y="0.0"/>
      <point x="583.0" y="73.0"/>
      <point x="583.0" y="213.0" type="curve" smooth="yes"/>
      <point x="583.0" y="331.0"/>
      <point x="512.0" y="416.0"/>
      <point x="292.0" y="410.0" type="curve" smooth="yes"/>
      <point x="211.0" y="407.0" type="line"/>
      <point x="211.0" y="544.0" type="line" smooth="yes"/>
      <point x="211.0" y="615.0"/>
      <point x="205.0" y="664.0"/>
    </contour>
    <contour>
      <point x="211.0" y="118.0" type="curve" smooth="yes"/>
      <point x="211.0" y="369.0" type="line"/>
      <point x="243.0" y="371.0"/>
      <point x="274.0" y="372.0"/>
      <point x="314.0" y="372.0" type="curve" smooth="yes"/>
      <point x="405.0" y="372.0"/>
      <point x="486.0" y="336.0"/>
      <point x="486.0" y="209.0" type="curve" smooth="yes"/>
      <point x="486.0" y="90.0"/>
      <point x="417.0" y="38.0"/>
      <point x="314.0" y="38.0" type="curve" smooth="yes"/>
      <point x="301.0" y="38.0"/>
      <point x="239.0" y="37.0"/>
      <point x="208.0" y="40.0" type="curve"/>
      <point x="210.0" y="57.0"/>
      <point x="211.0" y="82.0"/>
    </contour>
  </outline>
</glyph>
<glyph name="Ereversed-cy" format="2">
  <advance width="697.0"/>
  <unicode hex="042D"/>
  <anchor x="330.0" y="700.0" name="top"/>
  <outline>
    <contour>
      <point x="305.0" y="-16.0" type="curve" smooth="yes"/>
      <point x="512.0" y="-16.0"/>
      <point x="653.0" y="158.0"/>
      <point x="653.0" y="369.0" type="curve" smooth="yes"/>
      <point x="653.0" y="541.0"/>
      <point x="546.0" y="716.0"/>
      <point x="320.0" y="716.0" type="curve" smooth="yes"/>
      <point x="250.0" y="716.0"/>
      <point x="190.0" y="702.0"/>
      <point x="123.0" y="655.0" type="curve"/>
      <point x="128.0" y="709.0" type="line"/>
      <point x="74.0" y="709.0" type="line"/>
      <point x="74.0" y="487.0" type="line"/>
      <point x="110.0" y="487.0" type="line"/>
      <point x="124.0" y="612.0"/>
      <point x="184.0" y="675.0"/>
      <point x="299.0" y="675.0" type="curve" smooth="yes"/>
      <point x="452.0" y="675.0"/>
      <point x="555.0" y="548.0"/>
      <point x="555.0" y="354.0" type="curve" smooth="yes"/>
      <point x="555.0" y="163.0"/>
      <point x="452.0" y="36.0"/>
      <point x="279.0" y="36.0" type="curve" smooth="yes"/>
      <point x="192.0" y="36.0"/>
      <point x="108.0" y="76.0"/>
      <point x="56.0" y="151.0" type="curve"/>
      <point x="30.0" y="130.0" type="line"/>
      <point x="113.0" y="11.0"/>
      <point x="223.0" y="-16.0"/>
    </contour>
    <contour>
      <point x="191.0" y="256.0" type="line"/>
      <point x="224.0" y="256.0" type="line"/>
      <point x="224.0" y="344.0"/>
      <point x="258.0" y="340.0"/>
      <point x="343.0" y="341.0" type="curve" smooth="yes"/>
      <point x="586.0" y="344.0" type="line"/>
      <point x="586.0" y="384.0" type="line"/>
      <point x="228.0" y="383.0" type="line"/>
      <point x="231.0" y="412.0"/>
      <point x="233.0" y="440.0"/>
      <point x="236.0" y="469.0" type="curve"/>
      <point x="191.0" y="469.0" type="line"/>
    </contour>
  </outline>
</glyph>
<glyph name="Iu-cy" format="2">
  <advance width="1075.0"/>
  <unicode hex="042E"/>
  <outline>
    <contour>
      <point x="683.0" y="-16.0" type="curve" smooth="yes"/>
      <point x="919.0" y="-16.0"/>
      <point x="1031.0" y="184.0"/>
      <point x="1031.0" y="350.0" type="curve" smooth="yes"/>
      <point x="1031.0" y="517.0"/>
      <point x="919.0" y="716.0"/>
      <point x="675.0" y="716.0" type="curve" smooth="yes"/>
      <point x="476.0" y="716.0"/>
      <point x="368.0" y="539.0"/>
      <point x="357.0" y="378.0" type="curve"/>
      <point x="211.0" y="378.0" type="line"/>
      <point x="211.0" y="544.0" type="line" smooth="yes"/>
      <point x="211.0" y="615.0"/>
      <point x="205.0" y="664.0"/>
      <point x="280.0" y="667.0" type="curve"/>
      <point x="280.0" y="700.0" type="line"/>
      <point x="55.0" y="700.0" type="line"/>
      <point x="55.0" y="656.0" type="line"/>
      <point x="79.0" y="657.0"/>
      <point x="103.0" y="659.0"/>
      <point x="127.0" y="660.0" type="curve"/>
      <point x="125.0" y="640.0"/>
      <point x="124.0" y="615.0"/>
      <point x="124.0" y="588.0" type="curve" smooth="yes"/>
      <point x="124.0" y="156.0" type="line" smooth="yes"/>
      <point x="124.0" y="85.0"/>
      <point x="130.0" y="36.0"/>
      <point x="55.0" y="33.0" type="curve"/>
      <point x="55.0" y="0.0" type="line"/>
      <point x="280.0" y="0.0" type="line"/>
      <point x="280.0" y="44.0" type="line"/>
      <point x="256.0" y="43.0"/>
      <point x="232.0" y="41.0"/>
      <point x="208.0" y="40.0" type="curve"/>
      <point x="210.0" y="57.0"/>
      <point x="211.0" y="83.0"/>
      <point x="211.0" y="119.0" type="curve" smooth="yes"/>
      <point x="211.0" y="334.0" type="line"/>
      <point x="356.0" y="337.0" type="line"/>
      <point x="361.0" y="167.0"/>
      <point x="460.0" y="-16.0"/>
    </contour>
    <contour>
      <point x="685.0" y="25.0" type="curve" smooth="yes"/>
      <point x="531.0" y="25.0"/>
      <point x="455.0" y="220.0"/>
      <point x="455.0" y="368.0" type="curve" smooth="yes"/>
      <point x="455.0" y="516.0"/>
      <point x="531.0" y="676.0"/>
      <point x="672.0" y="676.0" type="curve" smooth="yes"/>
      <point x="838.0" y="676.0"/>
      <point x="931.0" y="495.0"/>
      <point x="931.0" y="331.0" type="curve" smooth="yes"/>
      <point x="931.0" y="184.0"/>
      <point x="849.0" y="25.0"/>
    </contour>
  </outline>
</glyph>
<glyph name="Ia-cy" format="2">
  <advance width="673.0"/>
  <unicode hex="042F"/>
  <outline>
    <contour>
      <point x="22.0" y="0.0" type="line"/>
      <point x="140.0" y="0.0" type="line"/>
      <point x="169.0" y="15.0"/>
      <point x="204.0" y="67.0"/>
      <point x="232.0" y="111.0" type="curve" smooth="yes"/>
      <point x="307.0" y="226.0" type="line" smooth="yes"/>
      <point x="321.0" y="249.0"/>
      <point x="343.0" y="275.0"/>
      <point x="373.0" y="292.0" type="curve"/>
      <point x="462.0" y="293.0" type="line"/>
      <point x="462.0" y="156.0" type="line" smooth="yes"/>
      <point x="462.0" y="85.0"/>
      <point x="468.0" y="36.0"/>
      <point x="393.0" y="33.0" type="curve"/>
      <point x="393.0" y="0.0" type="line"/>
      <point x="618.0" y="0.0" type="line"/>
      <point x="618.0" y="44.0" type="line"/>
      <point x="546.0" y="40.0" type="line"/>
      <point x="548.0" y="60.0"/>
      <point x="549.0" y="85.0"/>
      <point x="549.0" y="112.0" type="curve" smooth="yes"/>
      <point x="549.0" y="544.0" type="line" smooth="yes"/>
      <point x="549.0" y="617.0"/>
      <point x="545.0" y="665.0"/>
      <point x="618.0" y="667.0" type="curve"/>
      <point x="618.0" y="700.0" type="line"/>
      <point x="351.0" y="700.0" type="line" smooth="yes"/>
      <point x="201.0" y="700.0"/>
      <point x="127.0" y="629.0"/>
      <point x="127.0" y="511.0" type="curve" smooth="yes"/>
      <point x="127.0" y="398.0"/>
      <point x="199.0" y="331.0"/>
      <point x="295.0" y="308.0" type="curve"/>
      <point x="263.0" y="299.0"/>
      <point x="243.0" y="280.0"/>
      <point x="218.0" y="244.0" type="curve" smooth="yes"/>
      <point x="141.0" y="128.0" type="line" smooth="yes"/>
      <point x="99.0" y="65.0"/>
      <point x="78.0" y="33.0"/>
      <point x="22.0" y="33.0" type="curve"/>
    </contour>
    <contour>
      <point x="384.0" y="329.0" type="curve" smooth="yes"/>
      <point x="294.0" y="329.0"/>
      <point x="221.0" y="400.0"/>
      <point x="221.0" y="501.0" type="curve" smooth="yes"/>
      <point x="221.0" y="610.0"/>
      <point x="291.0" y="662.0"/>
      <point x="384.0" y="662.0" type="curve" smooth="yes"/>
      <point x="406.0" y="662.0"/>
      <point x="434.0" y="662.0"/>
      <point x="465.0" y="660.0" type="curve"/>
      <point x="463.0" y="643.0"/>
      <point x="462.0" y="618.0"/>
      <point x="462.0" y="582.0" type="curve" smooth="yes"/>
      <point x="462.0" y="332.0" type="line"/>
      <point x="455.0" y="330.0"/>
      <point x="423.0" y="329.0"/>
    </contour>
  </outline>
</glyph>
<glyph name="be-cy" format="2">
  <advance width="544.0"/>
  <unicode hex="0431"/>
  <outline>
    <contour>
      <point x="273.0" y="-15.0" type="curve" smooth="yes"/>
      <point x="403.0" y="-15.0"/>
      <point x="508.0" y="89.0"/>
      <point x="508.0" y="250.0" type="curve" smooth="yes"/>
      <point x="508.0" y="400.0"/>
      <point x="411.0" y="481.0"/>
      <point x="286.0" y="481.0" type="curve" smooth="yes"/>
      <point x="189.0" y="481.0"/>
      <point x="125.0" y="430.0"/>
      <point x="95.0" y="352.0" type="curve"/>
      <point x="88.0" y="352.0" type="line"/>
      <point x="87.0" y="466.0"/>
      <point x="130.0" y="563.0"/>
      <point x="232.0" y="594.0" type="curve" smooth="yes"/>
      <point x="279.0" y="608.0"/>
      <point x="336.0" y="608.0"/>
      <point x="391.0" y="627.0" type="curve" smooth="yes"/>
      <point x="460.0" y="651.0"/>
      <point x="463.0" y="684.0"/>
      <point x="478.0" y="749.0" type="curve"/>
      <point x="443.0" y="760.0" type="line"/>
      <point x="432.0" y="730.0"/>
      <point x="417.0" y="722.0"/>
      <point x="382.0" y="712.0" type="curve" smooth="yes"/>
      <point x="329.0" y="698.0"/>
      <point x="276.0" y="699.0"/>
      <point x="226.0" y="679.0" type="curve" smooth="yes"/>
      <point x="94.0" y="629.0"/>
      <point x="42.0" y="474.0"/>
      <point x="42.0" y="299.0" type="curve" smooth="yes"/>
      <point x="42.0" y="87.0"/>
      <point x="145.0" y="-15.0"/>
    </contour>
    <contour>
      <point x="277.0" y="23.0" type="curve" smooth="yes"/>
      <point x="185.0" y="23.0"/>
      <point x="136.0" y="110.0"/>
      <point x="136.0" y="254.0" type="curve" smooth="yes"/>
      <point x="136.0" y="353.0"/>
      <point x="178.0" y="445.0"/>
      <point x="268.0" y="445.0" type="curve" smooth="yes"/>
      <point x="370.0" y="445.0"/>
      <point x="411.0" y="331.0"/>
      <point x="411.0" y="222.0" type="curve" smooth="yes"/>
      <point x="411.0" y="121.0"/>
      <point x="375.0" y="23.0"/>
    </contour>
  </outline>
</glyph>
<glyph name="ve-cy" format="2">
  <advance width="521.0"/>
  <unicode hex="0432"/>
  <outline>
    <contour>
      <point x="44.0" y="0.0" type="line"/>
      <point x="321.0" y="0.0" type="line" smooth="yes"/>
      <point x="411.0" y="0.0"/>
      <point x="492.0" y="52.0"/>
      <point x="492.0" y="142.0" type="curve" smooth="yes"/>
      <point x="492.0" y="210.0"/>
      <point x="444.0" y="259.0"/>
      <point x="354.0" y="263.0" type="curve"/>
      <point x="430.0" y="281.0"/>
      <point x="464.0" y="332.0"/>
      <point x="465.0" y="386.0" type="curve" smooth="yes"/>
      <point x="466.0" y="463.0"/>
      <point x="400.0" y="501.0"/>
      <point x="307.0" y="501.0" type="curve" smooth="yes"/>
      <point x="206.0" y="501.0"/>
      <point x="98.0" y="500.0"/>
      <point x="45.0" y="500.0" type="curve"/>
      <point x="45.0" y="459.0" type="line"/>
      <point x="66.0" y="460.0"/>
      <point x="87.0" y="461.0"/>
      <point x="108.0" y="462.0" type="curve"/>
      <point x="105.0" y="446.0"/>
      <point x="104.0" y="428.0"/>
      <point x="104.0" y="404.0" type="curve" smooth="yes"/>
      <point x="104.0" y="115.0" type="line" smooth="yes"/>
      <point x="104.0" y="63.0"/>
      <point x="93.0" y="31.0"/>
      <point x="44.0" y="30.0" type="curve"/>
    </contour>
    <contour>
      <point x="188.0" y="41.0" type="curve"/>
      <point x="189.0" y="53.0"/>
      <point x="190.0" y="71.0"/>
      <point x="190.0" y="97.0" type="curve" smooth="yes"/>
      <point x="190.0" y="235.0" type="line"/>
      <point x="212.0" y="236.0"/>
      <point x="245.0" y="237.0"/>
      <point x="273.0" y="237.0" type="curve" smooth="yes"/>
      <point x="338.0" y="237.0"/>
      <point x="396.0" y="209.0"/>
      <point x="396.0" y="139.0" type="curve" smooth="yes"/>
      <point x="396.0" y="69.0"/>
      <point x="347.0" y="40.0"/>
      <point x="273.0" y="40.0" type="curve" smooth="yes"/>
      <point x="264.0" y="40.0"/>
      <point x="210.0" y="39.0"/>
    </contour>
    <contour>
      <point x="190.0" y="273.0" type="line"/>
      <point x="190.0" y="396.0" type="line" smooth="yes"/>
      <point x="190.0" y="453.0"/>
      <point x="221.0" y="465.0"/>
      <point x="269.0" y="465.0" type="curve" smooth="yes"/>
      <point x="323.0" y="465.0"/>
      <point x="372.0" y="450.0"/>
      <point x="373.0" y="381.0" type="curve" smooth="yes"/>
      <point x="374.0" y="332.0"/>
      <point x="347.0" y="276.0"/>
      <point x="265.0" y="274.0" type="curve" smooth="yes"/>
    </contour>
  </outline>
</glyph>
<glyph name="ge-cy" format="2">
  <advance width="438.0"/>
  <unicode hex="0433"/>
  <anchor x="190.0" y="0.0" name="bottomright"/>
  <anchor x="273.0" y="500.0" name="top"/>
  <outline>
    <contour>
      <point x="44.0" y="0.0" type="line"/>
      <point x="248.0" y="0.0" type="line"/>
      <point x="248.0" y="41.0" type="line"/>
      <point x="185.0" y="38.0" type="line"/>
      <point x="189.0" y="61.0"/>
      <point x="189.0" y="79.0"/>
      <point x="189.0" y="106.0" type="curve" smooth="yes"/>
      <point x="190.0" y="460.0" type="line"/>
      <point x="251.0" y="460.0" type="line"/>
      <point x="359.0" y="460.0"/>
      <point x="385.0" y="433.0"/>
      <point x="387.0" y="349.0" type="curve"/>
      <point x="425.0" y="349.0" type="line"/>
      <point x="421.0" y="500.0" type="line"/>
      <point x="45.0" y="500.0" type="line"/>
      <point x="45.0" y="459.0" type="line"/>
      <point x="66.0" y="460.0"/>
      <point x="87.0" y="461.0"/>
      <point x="108.0" y="462.0" type="curve"/>
      <point x="104.0" y="439.0"/>
      <point x="104.0" y="421.0"/>
      <point x="104.0" y="394.0" type="curve" smooth="yes"/>
      <point x="104.0" y="152.0" type="line" smooth="yes"/>
      <point x="103.0" y="80.0"/>
      <point x="105.0" y="30.0"/>
      <point x="44.0" y="30.0" type="curve"/>
    </contour>
  </outline>
</glyph>
<glyph name="ka-cy" format="2">
  <advance width="537"/>
  <unicode hex="043A"/>
  <outline>
    <contour>
      <point x="34" y="0" type="line"/>
      <point x="238" y="0" type="line"/>
      <point x="238" y="41" type="line"/>
      <point x="217" y="40"/>
      <point x="196" y="39"/>
      <point x="175" y="38" type="curve"/>
      <point x="179" y="61"/>
      <point x="179" y="79"/>
      <point x="179" y="106" type="curve" smooth="yes"/>
      <point x="180" y="243" type="line"/>
      <point x="220" y="245" type="line"/>
      <point x="246" y="220"/>
      <point x="281" y="166"/>
      <point x="333" y="94" type="curve" smooth="yes"/>
      <point x="370" y="46"/>
      <point x="402" y="0"/>
      <point x="439" y="0" type="curve" smooth="yes"/>
      <point x="530" y="0" type="line"/>
      <point x="530" y="30" type="line"/>
      <point x="484" y="30"/>
      <point x="421" y="122"/>
      <point x="409" y="138" type="curve" smooth="yes"/>
      <point x="338" y="229" type="line" smooth="yes"/>
      <point x="319" y="252"/>
      <point x="302" y="271"/>
      <point x="276" y="283" type="curve"/>
      <point x="354" y="365" type="line" smooth="yes"/>
      <point x="390" y="402"/>
      <point x="446" y="463"/>
      <point x="514" y="470" type="curve"/>
      <point x="514" y="500" type="line"/>
      <point x="332" y="500" type="line"/>
      <point x="332" y="460" type="line"/>
      <point x="400" y="463" type="line"/>
      <point x="381" y="451"/>
      <point x="363" y="433"/>
      <point x="341" y="410" type="curve" smooth="yes"/>
      <point x="219" y="282" type="line"/>
      <point x="180" y="282" type="line"/>
      <point x="181" y="348" type="line" smooth="yes"/>
      <point x="181" y="420"/>
      <point x="179" y="470"/>
      <point x="240" y="470" type="curve"/>
      <point x="240" y="500" type="line"/>
      <point x="36" y="500" type="line"/>
      <point x="36" y="459" type="line"/>
      <point x="57" y="460"/>
      <point x="78" y="461"/>
      <point x="99" y="462" type="curve"/>
      <point x="95" y="439"/>
      <point x="95" y="421"/>
      <point x="95" y="394" type="curve" smooth="yes"/>
      <point x="94" y="152" type="line" smooth="yes"/>
      <point x="93" y="80"/>
      <point x="95" y="30"/>
      <point x="34" y="30" type="curve"/>
    </contour>
  </outline>
</glyph>
<glyph name="el-cy" format="2">
  <advance width="592.0"/>
  <unicode hex="043B"/>
  <anchor x="481.0" y="0.0" name="bottomright"/>
  <outline>
    <contour>
      <point x="82.0" y="-11.0" type="curve" smooth="yes"/>
      <point x="209.0" y="-11.0"/>
      <point x="250.0" y="193.0"/>
      <point x="260.0" y="383.0" type="curve"/>
      <point x="260.0" y="431.0"/>
      <point x="273.0" y="462.0"/>
      <point x="319.0" y="462.0" type="curve" smooth="yes"/>
      <point x="407.0" y="462.0" type="line"/>
      <point x="403.0" y="439.0"/>
      <point x="403.0" y="421.0"/>
      <point x="403.0" y="394.0" type="curve" smooth="yes"/>
      <point x="403.0" y="152.0" type="line" smooth="yes"/>
      <point x="401.0" y="80.0"/>
      <point x="403.0" y="30.0"/>
      <point x="342.0" y="30.0" type="curve"/>
      <point x="342.0" y="0.0" type="line"/>
      <point x="546.0" y="0.0" type="line"/>
      <point x="546.0" y="41.0" type="line"/>
      <point x="483.0" y="38.0" type="line"/>
      <point x="487.0" y="61.0"/>
      <point x="487.0" y="79.0"/>
      <point x="489.0" y="106.0" type="curve"/>
      <point x="489.0" y="348.0" type="line" smooth="yes"/>
      <point x="489.0" y="420.0"/>
      <point x="487.0" y="470.0"/>
      <point x="548.0" y="470.0" type="curve"/>
      <point x="548.0" y="500.0" type="line"/>
      <point x="117.0" y="500.0" type="line"/>
      <point x="117.0" y="457.0" type="line"/>
      <point x="211.0" y="461.0" type="line"/>
      <point x="196.0" y="148.0"/>
      <point x="143.0" y="40.0"/>
      <point x="103.0" y="40.0" type="curve" smooth="yes"/>
      <point x="100.0" y="40.0"/>
      <point x="97.0" y="41.0"/>
      <point x="94.0" y="42.0" type="curve"/>
      <point x="95.0" y="46.0"/>
      <point x="96.0" y="53.0"/>
      <point x="96.0" y="57.0" type="curve" smooth="yes"/>
      <point x="96.0" y="73.0"/>
      <point x="83.0" y="93.0"/>
      <point x="51.0" y="93.0" type="curve" smooth="yes"/>
      <point x="22.0" y="92.0"/>
      <point x="7.0" y="71.0"/>
      <point x="7.0" y="42.0" type="curve" smooth="yes"/>
      <point x="7.0" y="10.0"/>
      <point x="34.0" y="-11.0"/>
    </contour>
  </outline>
</glyph>
<glyph name="ef-cy" format="2">
  <advance width="779.0"/>
  <unicode hex="0444"/>
  <outline>
    <contour>
      <point x="286.0" y="-255.0" type="line"/>
      <point x="491.0" y="-255.0" type="line"/>
      <point x="491.0" y="-214.0" type="line"/>
      <point x="428.0" y="-217.0" type="line"/>
      <point x="432.0" y="-194.0"/>
      <point x="432.0" y="-176.0"/>
      <point x="432.0" y="-149.0" type="curve" smooth="yes"/>
      <point x="432.0" y="755.0" type="line"/>
      <point x="404.0" y="755.0" type="line"/>
      <point x="389.0" y="741.0"/>
      <point x="367.0" y="728.0"/>
      <point x="279.0" y="728.0" type="curve"/>
      <point x="279.0" y="686.0" type="line"/>
      <point x="350.0" y="690.0" type="line"/>
      <point x="347.0" y="663.0"/>
      <point x="347.0" y="646.0"/>
      <point x="347.0" y="625.0" type="curve" smooth="yes"/>
      <point x="347.0" y="-103.0" type="line" smooth="yes"/>
      <point x="344.0" y="-175.0"/>
      <point x="347.0" y="-225.0"/>
      <point x="286.0" y="-225.0" type="curve"/>
    </contour>
    <contour>
      <point x="261.0" y="-16.0" type="curve" smooth="yes"/>
      <point x="319.0" y="-16.0"/>
      <point x="381.0" y="11.0"/>
      <point x="421.0" y="49.0" type="curve"/>
      <point x="419.0" y="94.0" type="line"/>
      <point x="392.0" y="62.0"/>
      <point x="346.0" y="30.0"/>
      <point x="296.0" y="30.0" type="curve" smooth="yes"/>
      <point x="188.0" y="30.0"/>
      <point x="142.0" y="140.0"/>
      <point x="142.0" y="248.0" type="curve" smooth="yes"/>
      <point x="142.0" y="380.0"/>
      <point x="188.0" y="475.0"/>
      <point x="282.0" y="475.0" type="curve" smooth="yes"/>
      <point x="329.0" y="475.0"/>
      <point x="360.0" y="455.0"/>
      <point x="395.0" y="427.0" type="curve"/>
      <point x="395.0" y="474.0" type="line"/>
      <point x="360.0" y="499.0"/>
      <point x="315.0" y="516.0"/>
      <point x="280.0" y="516.0" type="curve" smooth="yes"/>
      <point x="146.0" y="516.0"/>
      <point x="41.0" y="403.0"/>
      <point x="41.0" y="232.0" type="curve" smooth="yes"/>
      <point x="41.0" y="78.0"/>
      <point x="145.0" y="-16.0"/>
    </contour>
    <contour>
      <point x="503.0" y="-16.0" type="curve" smooth="yes"/>
      <point x="631.0" y="-16.0"/>
      <point x="738.0" y="97.0"/>
      <point x="738.0" y="268.0" type="curve" smooth="yes"/>
      <point x="738.0" y="422.0"/>
      <point x="635.0" y="516.0"/>
      <point x="519.0" y="516.0" type="curve" smooth="yes"/>
      <point x="459.0" y="516.0"/>
      <point x="430.0" y="503.0"/>
      <point x="390.0" y="472.0" type="curve"/>
      <point x="390.0" y="439.0" type="line"/>
      <point x="419.0" y="460.0"/>
      <point x="446.0" y="470.0"/>
      <point x="483.0" y="470.0" type="curve" smooth="yes"/>
      <point x="592.0" y="470.0"/>
      <point x="638.0" y="360.0"/>
      <point x="638.0" y="252.0" type="curve" smooth="yes"/>
      <point x="638.0" y="120.0"/>
      <point x="593.0" y="24.0"/>
      <point x="506.0" y="24.0" type="curve" smooth="yes"/>
      <point x="452.0" y="24.0"/>
      <point x="432.0" y="37.0"/>
      <point x="402.0" y="70.0" type="curve"/>
      <point x="402.0" y="23.0" type="line"/>
      <point x="435.0" y="-4.0"/>
      <point x="457.0" y="-16.0"/>
    </contour>
  </outline>
</glyph>
<glyph name="tse-cy" format="2">
  <advance width="613"/>
  <unicode hex="0446"/>
  <outline>
    <contour>
      <point x="548" y="-178" type="curve"/>
      <point x="586" y="-178" type="line"/>
      <point x="586" y="42" type="line"/>
      <point x="497" y="38" type="line"/>
      <point x="500" y="61"/>
      <point x="500" y="79"/>
      <point x="500" y="106" type="curve" smooth="yes"/>
      <point x="501" y="348" type="line" smooth="yes"/>
      <point x="502" y="420"/>
      <point x="500" y="470"/>
      <point x="561" y="470" type="curve"/>
      <point x="561" y="500" type="line"/>
      <point x="357" y="500" type="line"/>
      <point x="357" y="459" type="line"/>
      <point x="420" y="462" type="line"/>
      <point x="416" y="439"/>
      <point x="416" y="421"/>
      <point x="416" y="394" type="curve" smooth="yes"/>
      <point x="415" y="152" type="line" smooth="yes"/>
      <point x="414" y="80"/>
      <point x="417" y="40"/>
      <point x="355" y="40" type="curve" smooth="yes"/>
      <point x="185" y="38" type="line"/>
      <point x="189" y="61"/>
      <point x="189" y="79"/>
      <point x="189" y="106" type="curve" smooth="yes"/>
      <point x="190" y="348" type="line" smooth="yes"/>
      <point x="190" y="420"/>
      <point x="188" y="470"/>
      <point x="250" y="470" type="curve"/>
      <point x="250" y="500" type="line"/>
      <point x="45" y="500" type="line"/>
      <point x="45" y="459" type="line"/>
      <point x="108" y="462" type="line"/>
      <point x="104" y="439"/>
      <point x="104" y="421"/>
      <point x="104" y="394" type="curve" smooth="yes"/>
      <point x="103" y="152" type="line" smooth="yes"/>
      <point x="103" y="80"/>
      <point x="105" y="30"/>
      <point x="44" y="30" type="curve"/>
      <point x="44" y="0" type="line"/>
      <point x="465" y="0" type="line" smooth="yes"/>
      <point x="531" y="0"/>
      <point x="548" y="-78"/>
    </contour>
  </outline>
</glyph>
<glyph name="che-cy" format="2">
  <advance width="558.0"/>
  <unicode hex="0447"/>
  <anchor x="403.0" y="0.0" name="bottomright"/>
  <anchor x="279.0" y="220.0" name="center"/>
  <anchor x="267.0" y="500.0" name="top"/>
  <outline>
    <contour>
      <point x="309.0" y="0.0" type="line"/>
      <point x="513.0" y="0.0" type="line"/>
      <point x="513.0" y="41.0" type="line"/>
      <point x="450.0" y="38.0" type="line"/>
      <point x="454.0" y="61.0"/>
      <point x="454.0" y="79.0"/>
      <point x="454.0" y="106.0" type="curve" smooth="yes"/>
      <point x="455.0" y="348.0" type="line" smooth="yes"/>
      <point x="456.0" y="420.0"/>
      <point x="453.0" y="470.0"/>
      <point x="514.0" y="470.0" type="curve"/>
      <point x="514.0" y="500.0" type="line"/>
      <point x="310.0" y="500.0" type="line"/>
      <point x="310.0" y="459.0" type="line"/>
      <point x="373.0" y="462.0" type="line"/>
      <point x="369.0" y="439.0"/>
      <point x="369.0" y="421.0"/>
      <point x="369.0" y="394.0" type="curve" smooth="yes"/>
      <point x="368.0" y="258.0" type="line"/>
      <point x="336.0" y="250.0"/>
      <point x="300.0" y="246.0"/>
      <point x="273.0" y="246.0" type="curve" smooth="yes"/>
      <point x="198.0" y="246.0"/>
      <point x="162.0" y="292.0"/>
      <point x="162.0" y="359.0" type="curve" smooth="yes"/>
      <point x="163.0" y="444.0"/>
      <point x="175.0" y="470.0"/>
      <point x="221.0" y="470.0" type="curve"/>
      <point x="221.0" y="500.0" type="line"/>
      <point x="17.0" y="500.0" type="line"/>
      <point x="17.0" y="459.0" type="line"/>
      <point x="80.0" y="462.0" type="line"/>
      <point x="77.0" y="443.0"/>
      <point x="76.0" y="411.0"/>
      <point x="76.0" y="385.0" type="curve" smooth="yes"/>
      <point x="76.0" y="261.0"/>
      <point x="129.0" y="195.0"/>
      <point x="255.0" y="195.0" type="curve" smooth="yes"/>
      <point x="284.0" y="195.0"/>
      <point x="329.0" y="199.0"/>
      <point x="368.0" y="209.0" type="curve"/>
      <point x="368.0" y="152.0" type="line" smooth="yes"/>
      <point x="368.0" y="80.0"/>
      <point x="370.0" y="30.0"/>
      <point x="309.0" y="30.0" type="curve"/>
    </contour>
  </outline>
</glyph>
<glyph name="shcha-cy" format="2">
  <advance width="838.0"/>
  <unicode hex="0449"/>
  <outline>
    <contour>
      <point x="773.0" y="-178.0" type="curve"/>
      <point x="811.0" y="-178.0" type="line"/>
      <point x="811.0" y="42.0" type="line"/>
      <point x="721.0" y="38.0" type="line"/>
      <point x="725.0" y="61.0"/>
      <point x="725.0" y="79.0"/>
      <point x="726.0" y="106.0" type="curve"/>
      <point x="726.0" y="348.0" type="line" smooth="yes"/>
      <point x="727.0" y="420.0"/>
      <point x="725.0" y="470.0"/>
      <point x="786.0" y="470.0" type="curve"/>
      <point x="786.0" y="500.0" type="line"/>
      <point x="582.0" y="500.0" type="line"/>
      <point x="582.0" y="459.0" type="line"/>
      <point x="645.0" y="462.0" type="line"/>
      <point x="641.0" y="439.0"/>
      <point x="641.0" y="421.0"/>
      <point x="641.0" y="394.0" type="curve" smooth="yes"/>
      <point x="641.0" y="152.0" type="line" smooth="yes"/>
      <point x="639.0" y="80.0"/>
      <point x="641.0" y="41.0"/>
      <point x="580.0" y="40.0" type="curve" smooth="yes"/>
      <point x="458.0" y="38.0" type="line"/>
      <point x="461.0" y="61.0"/>
      <point x="461.0" y="79.0"/>
      <point x="461.0" y="106.0" type="curve" smooth="yes"/>
      <point x="461.0" y="348.0" type="line" smooth="yes"/>
      <point x="463.0" y="420.0"/>
      <point x="461.0" y="470.0"/>
      <point x="522.0" y="470.0" type="curve"/>
      <point x="522.0" y="500.0" type="line"/>
      <point x="318.0" y="500.0" type="line"/>
      <point x="318.0" y="459.0" type="line"/>
      <point x="381.0" y="462.0" type="line"/>
      <point x="377.0" y="439.0"/>
      <point x="377.0" y="421.0"/>
      <point x="377.0" y="394.0" type="curve" smooth="yes"/>
      <point x="377.0" y="152.0" type="line" smooth="yes"/>
      <point x="375.0" y="80.0"/>
      <point x="377.0" y="41.0"/>
      <point x="316.0" y="40.0" type="curve" smooth="yes"/>
      <point x="185.0" y="38.0" type="line"/>
      <point x="189.0" y="61.0"/>
      <point x="189.0" y="79.0"/>
      <point x="189.0" y="106.0" type="curve" smooth="yes"/>
      <point x="189.0" y="348.0" type="line" smooth="yes"/>
      <point x="190.0" y="420.0"/>
      <point x="188.0" y="470.0"/>
      <point x="250.0" y="470.0" type="curve"/>
      <point x="250.0" y="500.0" type="line"/>
      <point x="45.0" y="500.0" type="line"/>
      <point x="45.0" y="459.0" type="line"/>
      <point x="108.0" y="462.0" type="line"/>
      <point x="104.0" y="439.0"/>
      <point x="104.0" y="421.0"/>
      <point x="104.0" y="394.0" type="curve" smooth="yes"/>
      <point x="104.0" y="152.0" type="line" smooth="yes"/>
      <point x="103.0" y="80.0"/>
      <point x="105.0" y="30.0"/>
      <point x="44.0" y="30.0" type="curve"/>
      <point x="44.0" y="0.0" type="line"/>
      <point x="690.0" y="0.0" type="line" smooth="yes"/>
      <point x="756.0" y="0.0"/>
      <point x="773.0" y="-78.0"/>
    </contour>
  </outline>
</glyph>
<glyph name="yeru-cy" format="2">
  <advance width="742.0"/>
  <unicode hex="044B"/>
  <anchor x="358.0" y="500.0" name="top"/>
  <outline>
    <contour>
      <point x="44.0" y="0.0" type="line"/>
      <point x="291.0" y="0.0" type="line" smooth="yes"/>
      <point x="378.0" y="0.0"/>
      <point x="454.0" y="52.0"/>
      <point x="454.0" y="148.0" type="curve" smooth="yes"/>
      <point x="454.0" y="228.0"/>
      <point x="402.0" y="296.0"/>
      <point x="241.0" y="292.0" type="curve" smooth="yes"/>
      <point x="190.0" y="290.0" type="line"/>
      <point x="190.0" y="382.0" type="line" smooth="yes"/>
      <point x="190.0" y="420.0"/>
      <point x="188.0" y="470.0"/>
      <point x="249.0" y="470.0" type="curve"/>
      <point x="249.0" y="500.0" type="line"/>
      <point x="45.0" y="500.0" type="line"/>
      <point x="45.0" y="459.0" type="line"/>
      <point x="66.0" y="460.0"/>
      <point x="87.0" y="461.0"/>
      <point x="108.0" y="462.0" type="curve"/>
      <point x="104.0" y="439.0"/>
      <point x="104.0" y="421.0"/>
      <point x="104.0" y="394.0" type="curve" smooth="yes"/>
      <point x="104.0" y="115.0" type="line" smooth="yes"/>
      <point x="104.0" y="63.0"/>
      <point x="93.0" y="31.0"/>
      <point x="44.0" y="30.0" type="curve"/>
    </contour>
    <contour>
      <point x="188.0" y="41.0" type="curve"/>
      <point x="189.0" y="53.0"/>
      <point x="190.0" y="71.0"/>
      <point x="190.0" y="97.0" type="curve" smooth="yes"/>
      <point x="190.0" y="252.0" type="line"/>
      <point x="212.0" y="253.0"/>
      <point x="226.0" y="254.0"/>
      <point x="254.0" y="254.0" type="curve" smooth="yes"/>
      <point x="324.0" y="254.0"/>
      <point x="366.0" y="214.0"/>
      <point x="366.0" y="146.0" type="curve" smooth="yes"/>
      <point x="366.0" y="69.0"/>
      <point x="316.0" y="40.0"/>
      <point x="254.0" y="40.0" type="curve" smooth="yes"/>
      <point x="231.0" y="40.0"/>
      <point x="210.0" y="40.0"/>
    </contour>
    <contour>
      <point x="492.0" y="0.0" type="line"/>
      <point x="696.0" y="0.0" type="line"/>
      <point x="696.0" y="41.0" type="line"/>
      <point x="675.0" y="40.0"/>
      <point x="654.0" y="39.0"/>
      <point x="633.0" y="38.0" type="curve"/>
      <point x="637.0" y="61.0"/>
      <point x="637.0" y="79.0"/>
      <point x="637.0" y="106.0" type="curve" smooth="yes"/>
      <point x="639.0" y="348.0" type="line" smooth="yes"/>
      <point x="639.0" y="420.0"/>
      <point x="637.0" y="470.0"/>
      <point x="698.0" y="470.0" type="curve"/>
      <point x="698.0" y="500.0" type="line"/>
      <point x="494.0" y="500.0" type="line"/>
      <point x="494.0" y="459.0" type="line"/>
      <point x="515.0" y="460.0"/>
      <point x="536.0" y="461.0"/>
      <point x="557.0" y="462.0" type="curve"/>
      <point x="553.0" y="439.0"/>
      <point x="553.0" y="421.0"/>
      <point x="553.0" y="394.0" type="curve" smooth="yes"/>
      <point x="552.0" y="152.0" type="line" smooth="yes"/>
      <point x="551.0" y="80.0"/>
      <point x="553.0" y="30.0"/>
      <point x="492.0" y="30.0" type="curve"/>
    </contour>
  </outline>
</glyph>
<glyph name="softsign-cy" format="2">
  <advance width="507.0"/>
  <unicode hex="044C"/>
  <outline>
    <contour>
      <point x="44.0" y="0.0" type="line"/>
      <point x="302.0" y="0.0" type="line" smooth="yes"/>
      <point x="389.0" y="0.0"/>
      <point x="465.0" y="52.0"/>
      <point x="465.0" y="148.0" type="curve" smooth="yes"/>
      <point x="465.0" y="228.0"/>
      <point x="414.0" y="295.0"/>
      <point x="252.0" y="292.0" type="curve" smooth="yes"/>
      <point x="190.0" y="290.0" type="line"/>
      <point x="190.0" y="382.0" type="line" smooth="yes"/>
      <point x="190.0" y="420.0"/>
      <point x="188.0" y="470.0"/>
      <point x="249.0" y="470.0" type="curve"/>
      <point x="249.0" y="500.0" type="line"/>
      <point x="45.0" y="500.0" type="line"/>
      <point x="45.0" y="459.0" type="line"/>
      <point x="66.0" y="460.0"/>
      <point x="87.0" y="461.0"/>
      <point x="108.0" y="462.0" type="curve"/>
      <point x="104.0" y="439.0"/>
      <point x="104.0" y="421.0"/>
      <point x="104.0" y="394.0" type="curve" smooth="yes"/>
      <point x="104.0" y="115.0" type="line" smooth="yes"/>
      <point x="104.0" y="63.0"/>
      <point x="93.0" y="31.0"/>
      <point x="44.0" y="30.0" type="curve"/>
    </contour>
    <contour>
      <point x="188.0" y="41.0" type="curve"/>
      <point x="189.0" y="53.0"/>
      <point x="190.0" y="71.0"/>
      <point x="190.0" y="97.0" type="curve" smooth="yes"/>
      <point x="190.0" y="252.0" type="line"/>
      <point x="212.0" y="253.0"/>
      <point x="237.0" y="254.0"/>
      <point x="266.0" y="254.0" type="curve" smooth="yes"/>
      <point x="335.0" y="254.0"/>
      <point x="377.0" y="214.0"/>
      <point x="377.0" y="146.0" type="curve" smooth="yes"/>
      <point x="377.0" y="69.0"/>
      <point x="327.0" y="40.0"/>
      <point x="266.0" y="40.0" type="curve" smooth="yes"/>
      <point x="256.0" y="40.0"/>
      <point x="210.0" y="39.0"/>
    </contour>
  </outline>
</glyph>
<glyph name="iu-cy" format="2">
  <advance width="814.0"/>
  <unicode hex="044E"/>
  <outline>
    <contour>
      <point x="521.0" y="-16.0" type="curve" smooth="yes"/>
      <point x="663.0" y="-16.0"/>
      <point x="773.0" y="107.0"/>
      <point x="773.0" y="262.0" type="curve" smooth="yes"/>
      <point x="773.0" y="407.0"/>
      <point x="661.0" y="516.0"/>
      <point x="521.0" y="516.0" type="curve" smooth="yes"/>
      <point x="402.0" y="516.0"/>
      <point x="300.0" y="415.0"/>
      <point x="284.0" y="276.0" type="curve"/>
      <point x="190.0" y="276.0" type="line"/>
      <point x="190.0" y="348.0" type="line" smooth="yes"/>
      <point x="191.0" y="420.0"/>
      <point x="188.0" y="470.0"/>
      <point x="250.0" y="470.0" type="curve"/>
      <point x="250.0" y="500.0" type="line"/>
      <point x="45.0" y="500.0" type="line"/>
      <point x="45.0" y="459.0" type="line"/>
      <point x="108.0" y="462.0" type="line"/>
      <point x="104.0" y="439.0"/>
      <point x="104.0" y="421.0"/>
      <point x="104.0" y="394.0" type="curve" smooth="yes"/>
      <point x="104.0" y="152.0" type="line" smooth="yes"/>
      <point x="103.0" y="80.0"/>
      <point x="105.0" y="30.0"/>
      <point x="44.0" y="30.0" type="curve"/>
      <point x="44.0" y="0.0" type="line"/>
      <point x="248.0" y="0.0" type="line"/>
      <point x="248.0" y="41.0" type="line"/>
      <point x="185.0" y="38.0" type="line"/>
      <point x="189.0" y="61.0"/>
      <point x="189.0" y="79.0"/>
      <point x="189.0" y="106.0" type="curve" smooth="yes"/>
      <point x="190.0" y="234.0" type="line"/>
      <point x="282.0" y="236.0" type="line"/>
      <point x="283.0" y="89.0"/>
      <point x="394.0" y="-16.0"/>
    </contour>
    <contour>
      <point x="529.0" y="24.0" type="curve" smooth="yes"/>
      <point x="435.0" y="24.0"/>
      <point x="384.0" y="143.0"/>
      <point x="384.0" y="267.0" type="curve" smooth="yes"/>
      <point x="384.0" y="376.0"/>
      <point x="428.0" y="478.0"/>
      <point x="521.0" y="478.0" type="curve" smooth="yes"/>
      <point x="628.0" y="478.0"/>
      <point x="671.0" y="353.0"/>
      <point x="671.0" y="233.0" type="curve" smooth="yes"/>
      <point x="671.0" y="127.0"/>
      <point x="634.0" y="24.0"/>
    </contour>
  </outline>
</glyph>
<glyph name="ia-cy" format="2">
  <advance width="544"/>
  <unicode hex="044F"/>
  <outline>
    <contour>
      <point x="17" y="0" type="line"/>
      <point x="96" y="0" type="line" smooth="yes"/>
      <point x="132" y="0"/>
      <point x="172" y="47"/>
      <point x="206" y="94" type="curve" smooth="yes"/>
      <point x="224" y="119"/>
      <point x="259" y="174"/>
      <point x="285" y="199" type="curve"/>
      <point x="354" y="200" type="line"/>
      <point x="354" y="119" type="line" smooth="yes"/>
      <point x="354" y="71"/>
      <point x="347" y="30"/>
      <point x="295" y="30" type="curve"/>
      <point x="295" y="0" type="line"/>
      <point x="499" y="0" type="line"/>
      <point x="499" y="41" type="line"/>
      <point x="436" y="38" type="line"/>
      <point x="440" y="61"/>
      <point x="440" y="79"/>
      <point x="440" y="106" type="curve" smooth="yes"/>
      <point x="440" y="385" type="line" smooth="yes"/>
      <point x="440" y="438"/>
      <point x="451" y="469"/>
      <point x="500" y="470" type="curve"/>
      <point x="500" y="500" type="line"/>
      <point x="247" y="500" type="line" smooth="yes"/>
      <point x="160" y="500"/>
      <point x="83" y="448"/>
      <point x="83" y="352" type="curve" smooth="yes"/>
      <point x="83" y="286"/>
      <point x="118" y="231"/>
      <point x="220" y="214" type="curve"/>
      <point x="203" y="209"/>
      <point x="189" y="201"/>
      <point x="174" y="183" type="curve" smooth="yes"/>
      <point x="138" y="138" type="line" smooth="yes"/>
      <point x="82" y="68"/>
      <point x="63" y="30"/>
      <point x="17" y="30" type="curve"/>
    </contour>
    <contour>
      <point x="283" y="236" type="curve" smooth="yes"/>
      <point x="213" y="236"/>
      <point x="172" y="289"/>
      <point x="172" y="354" type="curve" smooth="yes"/>
      <point x="172" y="431"/>
      <point x="222" y="460"/>
      <point x="283" y="460" type="curve" smooth="yes"/>
      <point x="292" y="460"/>
      <point x="334" y="461"/>
      <point x="356" y="459" type="curve"/>
      <point x="355" y="447"/>
      <point x="354" y="429"/>
      <point x="354" y="403" type="curve" smooth="yes"/>
      <point x="354" y="238" type="line"/>
      <point x="332" y="237"/>
      <point x="312" y="236"/>
    </contour>
  </outline>
</glyph>
<glyph name="e-cy" format="2">
  <advance width="532.0"/>
  <unicode hex="0454"/>
  <anchor x="342.0" y="0.0" name="bottom"/>
  <anchor x="292.0" y="500.0" name="top"/>
  <outline>
    <contour>
      <point x="131.0" y="233.0" type="line"/>
      <point x="375.0" y="237.0" type="line"/>
      <point x="375.0" y="276.0" type="line"/>
      <point x="131.0" y="276.0" type="line"/>
    </contour>
    <component base="c"/>
  </outline>
</glyph>
<glyph name="lje-cy" format="2">
  <advance width="752.0"/>
  <unicode hex="0459"/>
  <outline>
    <contour>
      <point x="87.0" y="-16.0" type="curve" smooth="yes"/>
      <point x="200.0" y="-16.0"/>
      <point x="250.0" y="188.0"/>
      <point x="260.0" y="377.0" type="curve" smooth="yes"/>
      <point x="261.0" y="435.0"/>
      <point x="274.0" y="462.0"/>
      <point x="319.0" y="462.0" type="curve" smooth="yes"/>
      <point x="382.0" y="462.0" type="line"/>
      <point x="378.0" y="439.0"/>
      <point x="378.0" y="421.0"/>
      <point x="378.0" y="394.0" type="curve" smooth="yes"/>
      <point x="378.0" y="115.0" type="line" smooth="yes"/>
      <point x="378.0" y="63.0"/>
      <point x="367.0" y="31.0"/>
      <point x="318.0" y="30.0" type="curve"/>
      <point x="318.0" y="0.0" type="line"/>
      <point x="557.0" y="0.0" type="line" smooth="yes"/>
      <point x="644.0" y="0.0"/>
      <point x="720.0" y="52.0"/>
      <point x="720.0" y="148.0" type="curve" smooth="yes"/>
      <point x="720.0" y="228.0"/>
      <point x="668.0" y="297.0"/>
      <point x="507.0" y="292.0" type="curve" smooth="yes"/>
      <point x="464.0" y="290.0" type="line"/>
      <point x="464.0" y="348.0" type="line" smooth="yes"/>
      <point x="465.0" y="420.0"/>
      <point x="462.0" y="470.0"/>
      <point x="523.0" y="470.0" type="curve"/>
      <point x="523.0" y="500.0" type="line"/>
      <point x="118.0" y="500.0" type="line"/>
      <point x="118.0" y="457.0" type="line"/>
      <point x="206.0" y="461.0" type="line"/>
      <point x="207.0" y="421.0" type="line"/>
      <point x="199.0" y="173.0"/>
      <point x="145.0" y="39.0"/>
      <point x="106.0" y="39.0" type="curve" smooth="yes"/>
      <point x="101.0" y="39.0"/>
      <point x="98.0" y="40.0"/>
      <point x="95.0" y="43.0" type="curve"/>
      <point x="96.0" y="48.0"/>
      <point x="96.0" y="53.0"/>
      <point x="96.0" y="57.0" type="curve" smooth="yes"/>
      <point x="96.0" y="73.0"/>
      <point x="83.0" y="93.0"/>
      <point x="51.0" y="93.0" type="curve" smooth="yes"/>
      <point x="22.0" y="92.0"/>
      <point x="7.0" y="71.0"/>
      <point x="7.0" y="42.0" type="curve" smooth="yes"/>
      <point x="7.0" y="3.0"/>
      <point x="39.0" y="-16.0"/>
    </contour>
    <contour>
      <point x="462.0" y="41.0" type="curve"/>
      <point x="463.0" y="53.0"/>
      <point x="464.0" y="71.0"/>
      <point x="464.0" y="97.0" type="curve" smooth="yes"/>
      <point x="464.0" y="252.0" type="line"/>
      <point x="487.0" y="253.0"/>
      <point x="492.0" y="254.0"/>
      <point x="520.0" y="254.0" type="curve" smooth="yes"/>
      <point x="598.0" y="254.0"/>
      <point x="632.0" y="214.0"/>
      <point x="632.0" y="146.0" type="curve" smooth="yes"/>
      <point x="632.0" y="69.0"/>
      <point x="582.0" y="40.0"/>
      <point x="520.0" y="40.0" type="curve" smooth="yes"/>
      <point x="511.0" y="40.0"/>
      <point x="484.0" y="39.0"/>
    </contour>
  </outline>
</glyph>
<glyph name="nje-cy" format="2">
  <advance width="803.0"/>
  <unicode hex="045A"/>
  <outline>
    <contour>
      <point x="574.0" y="470.0" type="curve"/>
      <point x="574.0" y="500.0" type="line"/>
      <point x="370.0" y="500.0" type="line"/>
      <point x="370.0" y="459.0" type="line"/>
      <point x="433.0" y="462.0" type="line"/>
      <point x="429.0" y="439.0"/>
      <point x="429.0" y="421.0"/>
      <point x="429.0" y="394.0" type="curve" smooth="yes"/>
      <point x="429.0" y="115.0" type="line" smooth="yes"/>
      <point x="429.0" y="63.0"/>
      <point x="418.0" y="31.0"/>
      <point x="369.0" y="30.0" type="curve"/>
      <point x="369.0" y="0.0" type="line"/>
      <point x="608.0" y="0.0" type="line" smooth="yes"/>
      <point x="695.0" y="0.0"/>
      <point x="771.0" y="52.0"/>
      <point x="771.0" y="148.0" type="curve" smooth="yes"/>
      <point x="771.0" y="228.0"/>
      <point x="719.0" y="297.0"/>
      <point x="558.0" y="292.0" type="curve" smooth="yes"/>
      <point x="515.0" y="290.0" type="line"/>
      <point x="515.0" y="348.0" type="line" smooth="yes"/>
      <point x="516.0" y="420.0"/>
      <point x="513.0" y="470.0"/>
    </contour>
    <contour>
      <point x="261.0" y="470.0" type="curve"/>
      <point x="261.0" y="500.0" type="line"/>
      <point x="56.0" y="500.0" type="line"/>
      <point x="56.0" y="459.0" type="line"/>
      <point x="119.0" y="462.0" type="line"/>
      <point x="115.0" y="439.0"/>
      <point x="115.0" y="421.0"/>
      <point x="115.0" y="394.0" type="curve" smooth="yes"/>
      <point x="115.0" y="152.0" type="line" smooth="yes"/>
      <point x="114.0" y="80.0"/>
      <point x="116.0" y="30.0"/>
      <point x="55.0" y="30.0" type="curve"/>
      <point x="55.0" y="0.0" type="line"/>
      <point x="259.0" y="0.0" type="line"/>
      <point x="259.0" y="41.0" type="line"/>
      <point x="196.0" y="38.0" type="line"/>
      <point x="200.0" y="61.0"/>
      <point x="200.0" y="79.0"/>
      <point x="200.0" y="106.0" type="curve" smooth="yes"/>
      <point x="201.0" y="348.0" type="line" smooth="yes"/>
      <point x="202.0" y="420.0"/>
      <point x="199.0" y="470.0"/>
    </contour>
    <contour>
      <point x="515.0" y="97.0" type="curve" smooth="yes"/>
      <point x="515.0" y="252.0" type="line"/>
      <point x="538.0" y="254.0"/>
      <point x="543.0" y="254.0"/>
      <point x="572.0" y="254.0" type="curve" smooth="yes"/>
      <point x="649.0" y="254.0"/>
      <point x="683.0" y="214.0"/>
      <point x="683.0" y="146.0" type="curve" smooth="yes"/>
      <point x="683.0" y="69.0"/>
      <point x="633.0" y="40.0"/>
      <point x="572.0" y="40.0" type="curve" smooth="yes"/>
      <point x="562.0" y="40.0"/>
      <point x="535.0" y="39.0"/>
      <point x="513.0" y="41.0" type="curve"/>
      <point x="514.0" y="53.0"/>
      <point x="515.0" y="71.0"/>
    </contour>
    <contour>
      <point x="165.0" y="290.0" type="line"/>
      <point x="165.0" y="247.0" type="line"/>
      <point x="465.0" y="251.0" type="line"/>
      <point x="465.0" y="290.0" type="line"/>
    </contour>
  </outline>
</glyph>
<glyph name="dzhe-cy" format="2">
  <advance width="615"/>
  <unicode hex="045F"/>
  <anchor x="134" y="500" name="bottomright"/>
  <outline>
    <contour>
      <point x="304" y="-178" type="curve"/>
      <point x="342" y="-178" type="line"/>
      <point x="342" y="32" type="line"/>
      <point x="315" y="31" type="line"/>
      <point x="221" y="0" type="line"/>
      <point x="287" y="0"/>
      <point x="304" y="-78"/>
    </contour>
    <component base="pe-cy" xScale="-1" yScale="-1" xOffset="615" yOffset="500"/>
  </outline>
</glyph>
<glyph name="Yusbig-cy" format="2">
  <advance width="933.0"/>
  <unicode hex="046A"/>
  <outline>
    <contour>
      <point x="-10.0" y="0.0" type="line"/>
      <point x="97.0" y="0.0" type="line" smooth="yes"/>
      <point x="117.0" y="0.0"/>
      <point x="162.0" y="34.0"/>
      <point x="200.0" y="98.0" type="curve" smooth="yes"/>
      <point x="298.0" y="260.0" type="line" smooth="yes"/>
      <point x="317.0" y="291.0"/>
      <point x="333.0" y="317.0"/>
      <point x="363.0" y="341.0" type="curve"/>
      <point x="423.0" y="340.0" type="line"/>
      <point x="423.0" y="156.0" type="line" smooth="yes"/>
      <point x="423.0" y="85.0"/>
      <point x="429.0" y="36.0"/>
      <point x="354.0" y="33.0" type="curve"/>
      <point x="354.0" y="0.0" type="line"/>
      <point x="579.0" y="0.0" type="line"/>
      <point x="579.0" y="44.0" type="line"/>
      <point x="555.0" y="43.0"/>
      <point x="530.0" y="41.0"/>
      <point x="506.0" y="40.0" type="curve"/>
      <point x="509.0" y="57.0"/>
      <point x="510.0" y="83.0"/>
      <point x="510.0" y="119.0" type="curve" smooth="yes"/>
      <point x="510.0" y="340.0" type="line"/>
      <point x="569.0" y="341.0" type="line"/>
      <point x="600.0" y="317.0"/>
      <point x="615.0" y="291.0"/>
      <point x="634.0" y="260.0" type="curve" smooth="yes"/>
      <point x="734.0" y="98.0" type="line" smooth="yes"/>
      <point x="774.0" y="35.0"/>
      <point x="820.0" y="0.0"/>
      <point x="840.0" y="0.0" type="curve" smooth="yes"/>
      <point x="943.0" y="0.0" type="line"/>
      <point x="943.0" y="33.0" type="line"/>
      <point x="900.0" y="33.0"/>
      <point x="865.0" y="52.0"/>
      <point x="805.0" y="149.0" type="curve" smooth="yes"/>
      <point x="718.0" y="291.0" type="line" smooth="yes"/>
      <point x="672.0" y="364.0"/>
      <point x="635.0" y="376.0"/>
      <point x="585.0" y="380.0" type="curve"/>
      <point x="545.0" y="380.0" type="line"/>
      <point x="646.0" y="538.0" type="line"/>
      <point x="702.0" y="623.0"/>
      <point x="738.0" y="643.0"/>
      <point x="777.0" y="647.0" type="curve"/>
      <point x="796.0" y="647.0" type="line"/>
      <point x="796.0" y="700.0" type="line"/>
      <point x="137.0" y="700.0" type="line"/>
      <point x="137.0" y="636.0" type="line"/>
      <point x="205.0" y="637.0" type="line"/>
      <point x="214.0" y="612.0"/>
      <point x="236.0" y="579.0"/>
      <point x="262.0" y="545.0" type="curve" smooth="yes"/>
      <point x="391.0" y="380.0" type="line"/>
      <point x="377.0" y="380.0"/>
      <point x="362.0" y="380.0"/>
      <point x="348.0" y="380.0" type="curve" smooth="yes"/>
      <point x="293.0" y="380.0"/>
      <point x="261.0" y="366.0"/>
      <point x="214.0" y="291.0" type="curve" smooth="yes"/>
      <point x="128.0" y="149.0" type="line" smooth="yes"/>
      <point x="68.0" y="52.0"/>
      <point x="33.0" y="33.0"/>
      <point x="-10.0" y="33.0" type="curve"/>
    </contour>
    <contour>
      <point x="494.0" y="372.0" type="line"/>
      <point x="350.0" y="558.0" type="line"/>
      <point x="306.0" y="617.0"/>
      <point x="316.0" y="637.0"/>
      <point x="352.0" y="640.0" type="curve"/>
      <point x="667.0" y="645.0" type="line"/>
      <point x="647.0" y="625.0"/>
      <point x="636.0" y="606.0"/>
      <point x="621.0" y="581.0" type="curve"/>
    </contour>
  </outline>
</glyph>
